G04 start of page 12 for group -3984 idx -3984 *
G04 Title: controlboard_2.3, fab *
G04 Creator: pcb.exe 20130205 *
G04 CreationDate: 26.2.2018 13.50.51 UTC *
G04 Format: Gerber/RS-274X *
G04 PCB-Dimensions (mm): 183.00 105.00 *
G04 PCB-Coordinate-Origin: lower left *
%MOMM*%
%FSLAX43Y43*%
%LNFAB*%
%ADD1140C,0.254*%
%ADD1139C,0.152*%
%ADD1138R,0.203X0.203*%
G54D1138*X75794Y93976D02*G75*G03X76200Y93976I203J0D01*G01*
G75*G03X75794Y93976I-203J0D01*G01*
X75387D02*G75*G03X76606Y93976I610J0D01*G01*
G75*G03X75387Y93976I-610J0D01*G01*
X51105D02*G75*G03X51511Y93976I203J0D01*G01*
G75*G03X51105Y93976I-203J0D01*G01*
X50698D02*G75*G03X51918Y93976I610J0D01*G01*
G75*G03X50698Y93976I-610J0D01*G01*
X44044D02*G75*G03X44450Y93976I203J0D01*G01*
G75*G03X44044Y93976I-203J0D01*G01*
X43637D02*G75*G03X44856Y93976I610J0D01*G01*
G75*G03X43637Y93976I-610J0D01*G01*
X19355D02*G75*G03X19761Y93976I203J0D01*G01*
G75*G03X19355Y93976I-203J0D01*G01*
X18948D02*G75*G03X20168Y93976I610J0D01*G01*
G75*G03X18948Y93976I-610J0D01*G01*
X107544D02*G75*G03X107950Y93976I203J0D01*G01*
G75*G03X107544Y93976I-203J0D01*G01*
X107137D02*G75*G03X108356Y93976I610J0D01*G01*
G75*G03X107137Y93976I-610J0D01*G01*
X82855D02*G75*G03X83261Y93976I203J0D01*G01*
G75*G03X82855Y93976I-203J0D01*G01*
X82448D02*G75*G03X83668Y93976I610J0D01*G01*
G75*G03X82448Y93976I-610J0D01*G01*
X126543Y92554D02*G75*G03X126949Y92554I203J0D01*G01*
G75*G03X126543Y92554I-203J0D01*G01*
X126136D02*G75*G03X127356Y92554I610J0D01*G01*
G75*G03X126136Y92554I-610J0D01*G01*
X113843D02*G75*G03X114249Y92554I203J0D01*G01*
G75*G03X113843Y92554I-203J0D01*G01*
X113436D02*G75*G03X114656Y92554I610J0D01*G01*
G75*G03X113436Y92554I-610J0D01*G01*
X166303Y96494D02*G75*G03X166709Y96494I203J0D01*G01*
G75*G03X166303Y96494I-203J0D01*G01*
X165896D02*G75*G03X167116Y96494I610J0D01*G01*
G75*G03X165896Y96494I-610J0D01*G01*
X166303Y10994D02*G75*G03X166709Y10994I203J0D01*G01*
G75*G03X166303Y10994I-203J0D01*G01*
X165896D02*G75*G03X167116Y10994I610J0D01*G01*
G75*G03X165896Y10994I-610J0D01*G01*
X14303Y99494D02*G75*G03X14709Y99494I203J0D01*G01*
G75*G03X14303Y99494I-203J0D01*G01*
X13896D02*G75*G03X15116Y99494I610J0D01*G01*
G75*G03X13896Y99494I-610J0D01*G01*
X14303Y8994D02*G75*G03X14709Y8994I203J0D01*G01*
G75*G03X14303Y8994I-203J0D01*G01*
X13896D02*G75*G03X15116Y8994I610J0D01*G01*
G75*G03X13896Y8994I-610J0D01*G01*
X3607Y107858D02*G75*G03X4013Y107858I203J0D01*G01*
G75*G03X3607Y107858I-203J0D01*G01*
X3200D02*G75*G03X4420Y107858I610J0D01*G01*
G75*G03X3200Y107858I-610J0D01*G01*
G54D1139*X34290Y108429D02*Y108239D01*
X34671Y107858D01*
X35052Y108239D01*
Y108429D02*Y108239D01*
X34671Y107858D02*Y106905D01*
X35509Y107667D02*X36081D01*
X35509Y106905D02*X36271D01*
X35509Y108429D02*Y106905D01*
Y108429D02*X36271D01*
X37490D02*X37681Y108239D01*
X36919Y108429D02*X37490D01*
X36728Y108239D02*X36919Y108429D01*
X36728Y108239D02*Y107858D01*
X36919Y107667D01*
X37490D01*
X37681Y107477D01*
Y107096D01*
X37490Y106905D02*X37681Y107096D01*
X36919Y106905D02*X37490D01*
X36728Y107096D02*X36919Y106905D01*
X25083D02*X25464D01*
X25273Y108429D02*Y106905D01*
X24892Y108048D02*X25273Y108429D01*
X25921Y108239D02*X26111Y108429D01*
X26683D01*
X26873Y108239D01*
Y107858D01*
X25921Y106905D02*X26873Y107858D01*
X25921Y106905D02*X26873D01*
X11430Y107096D02*X11621Y106905D01*
X11430Y108239D02*Y107096D01*
Y108239D02*X11621Y108429D01*
X12002D01*
X12192Y108239D01*
Y107096D01*
X12002Y106905D02*X12192Y107096D01*
X11621Y106905D02*X12002D01*
X11430Y107286D02*X12192Y108048D01*
X12649Y106905D02*X12840D01*
X13487D02*X13868D01*
X13678Y108429D02*Y106905D01*
X13297Y108048D02*X13678Y108429D01*
X14516Y106905D02*X14897D01*
X14707Y108429D02*Y106905D01*
X14326Y108048D02*X14707Y108429D01*
X15354Y106905D02*X16116Y107667D01*
Y108239D02*Y107667D01*
X15926Y108429D02*X16116Y108239D01*
X15545Y108429D02*X15926D01*
X15354Y108239D02*X15545Y108429D01*
X15354Y108239D02*Y107858D01*
X15545Y107667D01*
X16116D01*
X147599Y94053D02*X148819Y92833D01*
X147599D02*X148819Y94053D01*
X147803Y93849D02*X148615D01*
X147803D02*Y93037D01*
X148615D01*
Y93849D02*Y93037D01*
X159639Y94053D02*X160858Y92833D01*
X159639D02*X160858Y94053D01*
X159842Y93849D02*X160655D01*
X159842D02*Y93037D01*
X160655D01*
Y93849D02*Y93037D01*
X143637Y94891D02*X144856Y93672D01*
X143637D02*X144856Y94891D01*
X143840Y94688D02*X144653D01*
X143840D02*Y93875D01*
X144653D01*
Y94688D02*Y93875D01*
X130505Y94891D02*X131724Y93672D01*
X130505D02*X131724Y94891D01*
X130708Y94688D02*X131521D01*
X130708D02*Y93875D01*
X131521D01*
Y94688D02*Y93875D01*
X3200Y112277D02*X4420Y111058D01*
X3200D02*X4420Y112277D01*
X3404Y112074D02*X4216D01*
X3404D02*Y111261D01*
X4216D01*
Y112074D02*Y111261D01*
X34290Y112239D02*Y112049D01*
X34671Y111668D01*
X35052Y112049D01*
Y112239D02*Y112049D01*
X34671Y111668D02*Y110715D01*
X35509Y111477D02*X36081D01*
X35509Y110715D02*X36271D01*
X35509Y112239D02*Y110715D01*
Y112239D02*X36271D01*
X37490D02*X37681Y112049D01*
X36919Y112239D02*X37490D01*
X36728Y112049D02*X36919Y112239D01*
X36728Y112049D02*Y111668D01*
X36919Y111477D01*
X37490D01*
X37681Y111287D01*
Y110906D01*
X37490Y110715D02*X37681Y110906D01*
X36919Y110715D02*X37490D01*
X36728Y110906D02*X36919Y110715D01*
X24892Y111477D02*X25654Y112239D01*
X24892Y111477D02*X25845D01*
X25654Y112239D02*Y110715D01*
X11430Y110906D02*X11621Y110715D01*
X11430Y112049D02*Y110906D01*
Y112049D02*X11621Y112239D01*
X12002D01*
X12192Y112049D01*
Y110906D01*
X12002Y110715D02*X12192Y110906D01*
X11621Y110715D02*X12002D01*
X11430Y111096D02*X12192Y111858D01*
X12649Y110715D02*X12840D01*
X13297Y110906D02*X13487Y110715D01*
X13297Y112049D02*Y110906D01*
Y112049D02*X13487Y112239D01*
X13868D01*
X14059Y112049D01*
Y110906D01*
X13868Y110715D02*X14059Y110906D01*
X13487Y110715D02*X13868D01*
X13297Y111096D02*X14059Y111858D01*
X14516Y110906D02*X14707Y110715D01*
X14516Y111287D02*Y110906D01*
Y111287D02*X14707Y111477D01*
X15088D01*
X15278Y111287D01*
Y110906D01*
X15088Y110715D02*X15278Y110906D01*
X14707Y110715D02*X15088D01*
X14516Y111668D02*X14707Y111477D01*
X14516Y112049D02*Y111668D01*
Y112049D02*X14707Y112239D01*
X15088D01*
X15278Y112049D01*
Y111668D01*
X15088Y111477D02*X15278Y111668D01*
X15735Y110715D02*X16688Y111668D01*
Y112239D02*Y111668D01*
X15735Y112239D02*X16688D01*
X49864Y51689D02*Y50063D01*
X49051Y50876D02*X50677D01*
X49458Y51282D02*X50270D01*
X49458D02*Y50470D01*
X50270D01*
Y51282D02*Y50470D01*
X69904Y51549D02*Y49923D01*
X69091Y50736D02*X70717D01*
X69498Y51142D02*X70311D01*
X69498D02*Y50330D01*
X70311D01*
Y51142D02*Y50330D01*
X112395Y96542D02*Y94916D01*
X111582Y95729D02*X113208D01*
X111989Y96135D02*X112801D01*
X111989D02*Y95323D01*
X112801D01*
Y96135D02*Y95323D01*
X128524Y96542D02*Y94916D01*
X127711Y95729D02*X129337D01*
X128118Y96135D02*X128930D01*
X128118D02*Y95323D01*
X128930D01*
Y96135D02*Y95323D01*
X3810Y116290D02*Y114665D01*
X2997Y115478D02*X4623D01*
X3404Y115884D02*X4216D01*
X3404D02*Y115071D01*
X4216D01*
Y115884D02*Y115071D01*
X34290Y116049D02*Y115859D01*
X34671Y115478D01*
X35052Y115859D01*
Y116049D02*Y115859D01*
X34671Y115478D02*Y114525D01*
X35509Y115287D02*X36081D01*
X35509Y114525D02*X36271D01*
X35509Y116049D02*Y114525D01*
Y116049D02*X36271D01*
X37490D02*X37681Y115859D01*
X36919Y116049D02*X37490D01*
X36728Y115859D02*X36919Y116049D01*
X36728Y115859D02*Y115478D01*
X36919Y115287D01*
X37490D01*
X37681Y115097D01*
Y114716D01*
X37490Y114525D02*X37681Y114716D01*
X36919Y114525D02*X37490D01*
X36728Y114716D02*X36919Y114525D01*
X24892Y115287D02*X25654Y116049D01*
X24892Y115287D02*X25845D01*
X25654Y116049D02*Y114525D01*
X11430Y114716D02*X11621Y114525D01*
X11430Y115859D02*Y114716D01*
Y115859D02*X11621Y116049D01*
X12002D01*
X12192Y115859D01*
Y114716D01*
X12002Y114525D02*X12192Y114716D01*
X11621Y114525D02*X12002D01*
X11430Y114906D02*X12192Y115668D01*
X12649Y114525D02*X12840D01*
X13297Y114716D02*X13487Y114525D01*
X13297Y115859D02*Y114716D01*
Y115859D02*X13487Y116049D01*
X13868D01*
X14059Y115859D01*
Y114716D01*
X13868Y114525D02*X14059Y114716D01*
X13487Y114525D02*X13868D01*
X13297Y114906D02*X14059Y115668D01*
X15088Y116049D02*X15278Y115859D01*
X14707Y116049D02*X15088D01*
X14516Y115859D02*X14707Y116049D01*
X14516Y115859D02*Y114716D01*
X14707Y114525D01*
X15088Y115287D02*X15278Y115097D01*
X14516Y115287D02*X15088D01*
X14707Y114525D02*X15088D01*
X15278Y114716D01*
Y115097D02*Y114716D01*
X15735Y115859D02*X15926Y116049D01*
X16307D01*
X16497Y115859D01*
Y114716D01*
X16307Y114525D02*X16497Y114716D01*
X15926Y114525D02*X16307D01*
X15735Y114716D02*X15926Y114525D01*
Y115287D02*X16497D01*
X171958Y73631D02*Y72818D01*
Y73631D02*X172662Y74037D01*
X171958Y73631D02*X171254Y74037D01*
X171552Y73631D02*G75*G03X172364Y73631I406J0D01*G01*
G75*G03X171552Y73631I-406J0D01*G01*
X174498D02*Y72818D01*
Y73631D02*X175202Y74037D01*
X174498Y73631D02*X173794Y74037D01*
X174092Y73631D02*G75*G03X174904Y73631I406J0D01*G01*
G75*G03X174092Y73631I-406J0D01*G01*
X177038D02*Y72818D01*
Y73631D02*X177742Y74037D01*
X177038Y73631D02*X176334Y74037D01*
X176632Y73631D02*G75*G03X177444Y73631I406J0D01*G01*
G75*G03X176632Y73631I-406J0D01*G01*
X173101Y87982D02*Y87169D01*
Y87982D02*X173805Y88388D01*
X173101Y87982D02*X172397Y88388D01*
X172695Y87982D02*G75*G03X173507Y87982I406J0D01*G01*
G75*G03X172695Y87982I-406J0D01*G01*
X173101Y82902D02*Y82089D01*
Y82902D02*X173805Y83308D01*
X173101Y82902D02*X172397Y83308D01*
X172695Y82902D02*G75*G03X173507Y82902I406J0D01*G01*
G75*G03X172695Y82902I-406J0D01*G01*
X178181Y87982D02*Y87169D01*
Y87982D02*X178885Y88388D01*
X178181Y87982D02*X177477Y88388D01*
X177775Y87982D02*G75*G03X178587Y87982I406J0D01*G01*
G75*G03X177775Y87982I-406J0D01*G01*
X178181Y82902D02*Y82089D01*
Y82902D02*X178885Y83308D01*
X178181Y82902D02*X177477Y83308D01*
X177775Y82902D02*G75*G03X178587Y82902I406J0D01*G01*
G75*G03X177775Y82902I-406J0D01*G01*
X178181Y85442D02*Y84629D01*
Y85442D02*X178885Y85848D01*
X178181Y85442D02*X177477Y85848D01*
X177775Y85442D02*G75*G03X178587Y85442I406J0D01*G01*
G75*G03X177775Y85442I-406J0D01*G01*
X175641D02*Y84629D01*
Y85442D02*X176345Y85848D01*
X175641Y85442D02*X174937Y85848D01*
X175235Y85442D02*G75*G03X176047Y85442I406J0D01*G01*
G75*G03X175235Y85442I-406J0D01*G01*
X175641Y87982D02*Y87169D01*
Y87982D02*X176345Y88388D01*
X175641Y87982D02*X174937Y88388D01*
X175235Y87982D02*G75*G03X176047Y87982I406J0D01*G01*
G75*G03X175235Y87982I-406J0D01*G01*
X175641Y82902D02*Y82089D01*
Y82902D02*X176345Y83308D01*
X175641Y82902D02*X174937Y83308D01*
X175235Y82902D02*G75*G03X176047Y82902I406J0D01*G01*
G75*G03X175235Y82902I-406J0D01*G01*
X173101Y85442D02*Y84629D01*
Y85442D02*X173805Y85848D01*
X173101Y85442D02*X172397Y85848D01*
X172695Y85442D02*G75*G03X173507Y85442I406J0D01*G01*
G75*G03X172695Y85442I-406J0D01*G01*
X175641Y80362D02*Y79549D01*
Y80362D02*X176345Y80768D01*
X175641Y80362D02*X174937Y80768D01*
X175235Y80362D02*G75*G03X176047Y80362I406J0D01*G01*
G75*G03X175235Y80362I-406J0D01*G01*
X178181D02*Y79549D01*
Y80362D02*X178885Y80768D01*
X178181Y80362D02*X177477Y80768D01*
X177775Y80362D02*G75*G03X178587Y80362I406J0D01*G01*
G75*G03X177775Y80362I-406J0D01*G01*
X178181Y90522D02*Y89709D01*
Y90522D02*X178885Y90928D01*
X178181Y90522D02*X177477Y90928D01*
X177775Y90522D02*G75*G03X178587Y90522I406J0D01*G01*
G75*G03X177775Y90522I-406J0D01*G01*
X175641D02*Y89709D01*
Y90522D02*X176345Y90928D01*
X175641Y90522D02*X174937Y90928D01*
X175235Y90522D02*G75*G03X176047Y90522I406J0D01*G01*
G75*G03X175235Y90522I-406J0D01*G01*
X173101Y80362D02*Y79549D01*
Y80362D02*X173805Y80768D01*
X173101Y80362D02*X172397Y80768D01*
X172695Y80362D02*G75*G03X173507Y80362I406J0D01*G01*
G75*G03X172695Y80362I-406J0D01*G01*
X173101Y90522D02*Y89709D01*
Y90522D02*X173805Y90928D01*
X173101Y90522D02*X172397Y90928D01*
X172695Y90522D02*G75*G03X173507Y90522I406J0D01*G01*
G75*G03X172695Y90522I-406J0D01*G01*
X3810Y119288D02*Y118475D01*
Y119288D02*X4514Y119694D01*
X3810Y119288D02*X3106Y119694D01*
X3404Y119288D02*G75*G03X4216Y119288I406J0D01*G01*
G75*G03X3404Y119288I-406J0D01*G01*
X34290Y119859D02*Y119669D01*
X34671Y119288D01*
X35052Y119669D01*
Y119859D02*Y119669D01*
X34671Y119288D02*Y118335D01*
X35509Y119097D02*X36081D01*
X35509Y118335D02*X36271D01*
X35509Y119859D02*Y118335D01*
Y119859D02*X36271D01*
X37490D02*X37681Y119669D01*
X36919Y119859D02*X37490D01*
X36728Y119669D02*X36919Y119859D01*
X36728Y119669D02*Y119288D01*
X36919Y119097D01*
X37490D01*
X37681Y118907D01*
Y118526D01*
X37490Y118335D02*X37681Y118526D01*
X36919Y118335D02*X37490D01*
X36728Y118526D02*X36919Y118335D01*
X25083D02*X25464D01*
X25273Y119859D02*Y118335D01*
X24892Y119478D02*X25273Y119859D01*
X25921Y118526D02*X26111Y118335D01*
X25921Y118907D02*Y118526D01*
Y118907D02*X26111Y119097D01*
X26492D01*
X26683Y118907D01*
Y118526D01*
X26492Y118335D02*X26683Y118526D01*
X26111Y118335D02*X26492D01*
X25921Y119288D02*X26111Y119097D01*
X25921Y119669D02*Y119288D01*
Y119669D02*X26111Y119859D01*
X26492D01*
X26683Y119669D01*
Y119288D01*
X26492Y119097D02*X26683Y119288D01*
X11430Y118526D02*X11621Y118335D01*
X11430Y119669D02*Y118526D01*
Y119669D02*X11621Y119859D01*
X12002D01*
X12192Y119669D01*
Y118526D01*
X12002Y118335D02*X12192Y118526D01*
X11621Y118335D02*X12002D01*
X11430Y118716D02*X12192Y119478D01*
X12649Y118335D02*X12840D01*
X13297Y118526D02*X13487Y118335D01*
X13297Y119669D02*Y118526D01*
Y119669D02*X13487Y119859D01*
X13868D01*
X14059Y119669D01*
Y118526D01*
X13868Y118335D02*X14059Y118526D01*
X13487Y118335D02*X13868D01*
X13297Y118716D02*X14059Y119478D01*
X14516Y119859D02*X15278D01*
X14516D02*Y119097D01*
X14707Y119288D01*
X15088D01*
X15278Y119097D01*
Y118526D01*
X15088Y118335D02*X15278Y118526D01*
X14707Y118335D02*X15088D01*
X14516Y118526D02*X14707Y118335D01*
X15926D02*X16307D01*
X16116Y119859D02*Y118335D01*
X15735Y119478D02*X16116Y119859D01*
X131928Y6600D02*X132740D01*
X131928D02*Y5788D01*
X132740D01*
Y6600D02*Y5788D01*
X124308Y6600D02*X125120D01*
X124308D02*Y5788D01*
X125120D01*
Y6600D02*Y5788D01*
X131928Y9140D02*X132740D01*
X131928D02*Y8328D01*
X132740D01*
Y9140D02*Y8328D01*
X124308Y9140D02*X125120D01*
X124308D02*Y8328D01*
X125120D01*
Y9140D02*Y8328D01*
X131928Y11680D02*X132740D01*
X131928D02*Y10868D01*
X132740D01*
Y11680D02*Y10868D01*
X124308Y11680D02*X125120D01*
X124308D02*Y10868D01*
X125120D01*
Y11680D02*Y10868D01*
X131928Y14220D02*X132740D01*
X131928D02*Y13408D01*
X132740D01*
Y14220D02*Y13408D01*
X124308Y14220D02*X125120D01*
X124308D02*Y13408D01*
X125120D01*
Y14220D02*Y13408D01*
X131928Y16760D02*X132740D01*
X131928D02*Y15948D01*
X132740D01*
Y16760D02*Y15948D01*
X124308Y16760D02*X125120D01*
X124308D02*Y15948D01*
X125120D01*
Y16760D02*Y15948D01*
X3404Y123504D02*X4216D01*
X3404D02*Y122691D01*
X4216D01*
Y123504D02*Y122691D01*
X34290Y123669D02*Y123479D01*
X34671Y123098D01*
X35052Y123479D01*
Y123669D02*Y123479D01*
X34671Y123098D02*Y122145D01*
X35509Y122907D02*X36081D01*
X35509Y122145D02*X36271D01*
X35509Y123669D02*Y122145D01*
Y123669D02*X36271D01*
X37490D02*X37681Y123479D01*
X36919Y123669D02*X37490D01*
X36728Y123479D02*X36919Y123669D01*
X36728Y123479D02*Y123098D01*
X36919Y122907D01*
X37490D01*
X37681Y122717D01*
Y122336D01*
X37490Y122145D02*X37681Y122336D01*
X36919Y122145D02*X37490D01*
X36728Y122336D02*X36919Y122145D01*
X25083D02*X25464D01*
X25273Y123669D02*Y122145D01*
X24892Y123288D02*X25273Y123669D01*
X25921Y122336D02*X26111Y122145D01*
X25921Y123479D02*Y122336D01*
Y123479D02*X26111Y123669D01*
X26492D01*
X26683Y123479D01*
Y122336D01*
X26492Y122145D02*X26683Y122336D01*
X26111Y122145D02*X26492D01*
X25921Y122526D02*X26683Y123288D01*
X11430Y122336D02*X11621Y122145D01*
X11430Y123479D02*Y122336D01*
Y123479D02*X11621Y123669D01*
X12002D01*
X12192Y123479D01*
Y122336D01*
X12002Y122145D02*X12192Y122336D01*
X11621Y122145D02*X12002D01*
X11430Y122526D02*X12192Y123288D01*
X12649Y122145D02*X12840D01*
X13297Y122336D02*X13487Y122145D01*
X13297Y123479D02*Y122336D01*
Y123479D02*X13487Y123669D01*
X13868D01*
X14059Y123479D01*
Y122336D01*
X13868Y122145D02*X14059Y122336D01*
X13487Y122145D02*X13868D01*
X13297Y122526D02*X14059Y123288D01*
X14516Y122907D02*X15278Y123669D01*
X14516Y122907D02*X15469D01*
X15278Y123669D02*Y122145D01*
X15926Y123479D02*X16116Y123669D01*
X16497D01*
X16688Y123479D01*
Y122336D01*
X16497Y122145D02*X16688Y122336D01*
X16116Y122145D02*X16497D01*
X15926Y122336D02*X16116Y122145D01*
Y122907D02*X16688D01*
X34468Y36293D02*G75*G03X34874Y36293I203J0D01*G01*
G75*G03X34468Y36293I-203J0D01*G01*
Y38833D02*G75*G03X34874Y38833I203J0D01*G01*
G75*G03X34468Y38833I-203J0D01*G01*
X37008Y36293D02*G75*G03X37414Y36293I203J0D01*G01*
G75*G03X37008Y36293I-203J0D01*G01*
Y38833D02*G75*G03X37414Y38833I203J0D01*G01*
G75*G03X37008Y38833I-203J0D01*G01*
X39548Y36293D02*G75*G03X39954Y36293I203J0D01*G01*
G75*G03X39548Y36293I-203J0D01*G01*
Y38833D02*G75*G03X39954Y38833I203J0D01*G01*
G75*G03X39548Y38833I-203J0D01*G01*
X42088Y36293D02*G75*G03X42494Y36293I203J0D01*G01*
G75*G03X42088Y36293I-203J0D01*G01*
Y38833D02*G75*G03X42494Y38833I203J0D01*G01*
G75*G03X42088Y38833I-203J0D01*G01*
X44628Y36293D02*G75*G03X45034Y36293I203J0D01*G01*
G75*G03X44628Y36293I-203J0D01*G01*
Y38833D02*G75*G03X45034Y38833I203J0D01*G01*
G75*G03X44628Y38833I-203J0D01*G01*
X47168Y36293D02*G75*G03X47574Y36293I203J0D01*G01*
G75*G03X47168Y36293I-203J0D01*G01*
Y38833D02*G75*G03X47574Y38833I203J0D01*G01*
G75*G03X47168Y38833I-203J0D01*G01*
X49708Y36293D02*G75*G03X50114Y36293I203J0D01*G01*
G75*G03X49708Y36293I-203J0D01*G01*
Y38833D02*G75*G03X50114Y38833I203J0D01*G01*
G75*G03X49708Y38833I-203J0D01*G01*
X52248Y36293D02*G75*G03X52654Y36293I203J0D01*G01*
G75*G03X52248Y36293I-203J0D01*G01*
Y38833D02*G75*G03X52654Y38833I203J0D01*G01*
G75*G03X52248Y38833I-203J0D01*G01*
X54788Y36293D02*G75*G03X55194Y36293I203J0D01*G01*
G75*G03X54788Y36293I-203J0D01*G01*
Y38833D02*G75*G03X55194Y38833I203J0D01*G01*
G75*G03X54788Y38833I-203J0D01*G01*
X57328Y36293D02*G75*G03X57734Y36293I203J0D01*G01*
G75*G03X57328Y36293I-203J0D01*G01*
Y38833D02*G75*G03X57734Y38833I203J0D01*G01*
G75*G03X57328Y38833I-203J0D01*G01*
X59868Y36293D02*G75*G03X60274Y36293I203J0D01*G01*
G75*G03X59868Y36293I-203J0D01*G01*
Y38833D02*G75*G03X60274Y38833I203J0D01*G01*
G75*G03X59868Y38833I-203J0D01*G01*
X62408Y36293D02*G75*G03X62814Y36293I203J0D01*G01*
G75*G03X62408Y36293I-203J0D01*G01*
Y38833D02*G75*G03X62814Y38833I203J0D01*G01*
G75*G03X62408Y38833I-203J0D01*G01*
X64948Y36293D02*G75*G03X65354Y36293I203J0D01*G01*
G75*G03X64948Y36293I-203J0D01*G01*
Y38833D02*G75*G03X65354Y38833I203J0D01*G01*
G75*G03X64948Y38833I-203J0D01*G01*
X137592Y56486D02*G75*G03X137998Y56486I203J0D01*G01*
G75*G03X137592Y56486I-203J0D01*G01*
Y59026D02*G75*G03X137998Y59026I203J0D01*G01*
G75*G03X137592Y59026I-203J0D01*G01*
X140132Y56486D02*G75*G03X140538Y56486I203J0D01*G01*
G75*G03X140132Y56486I-203J0D01*G01*
Y59026D02*G75*G03X140538Y59026I203J0D01*G01*
G75*G03X140132Y59026I-203J0D01*G01*
X142672Y56486D02*G75*G03X143078Y56486I203J0D01*G01*
G75*G03X142672Y56486I-203J0D01*G01*
Y59026D02*G75*G03X143078Y59026I203J0D01*G01*
G75*G03X142672Y59026I-203J0D01*G01*
X145212Y56486D02*G75*G03X145618Y56486I203J0D01*G01*
G75*G03X145212Y56486I-203J0D01*G01*
Y59026D02*G75*G03X145618Y59026I203J0D01*G01*
G75*G03X145212Y59026I-203J0D01*G01*
X147752Y56486D02*G75*G03X148158Y56486I203J0D01*G01*
G75*G03X147752Y56486I-203J0D01*G01*
Y59026D02*G75*G03X148158Y59026I203J0D01*G01*
G75*G03X147752Y59026I-203J0D01*G01*
X75743Y79854D02*G75*G03X76149Y79854I203J0D01*G01*
G75*G03X75743Y79854I-203J0D01*G01*
Y77314D02*G75*G03X76149Y77314I203J0D01*G01*
G75*G03X75743Y77314I-203J0D01*G01*
Y74774D02*G75*G03X76149Y74774I203J0D01*G01*
G75*G03X75743Y74774I-203J0D01*G01*
Y72234D02*G75*G03X76149Y72234I203J0D01*G01*
G75*G03X75743Y72234I-203J0D01*G01*
Y69694D02*G75*G03X76149Y69694I203J0D01*G01*
G75*G03X75743Y69694I-203J0D01*G01*
Y67154D02*G75*G03X76149Y67154I203J0D01*G01*
G75*G03X75743Y67154I-203J0D01*G01*
Y64614D02*G75*G03X76149Y64614I203J0D01*G01*
G75*G03X75743Y64614I-203J0D01*G01*
Y62074D02*G75*G03X76149Y62074I203J0D01*G01*
G75*G03X75743Y62074I-203J0D01*G01*
Y59534D02*G75*G03X76149Y59534I203J0D01*G01*
G75*G03X75743Y59534I-203J0D01*G01*
Y56994D02*G75*G03X76149Y56994I203J0D01*G01*
G75*G03X75743Y56994I-203J0D01*G01*
Y54454D02*G75*G03X76149Y54454I203J0D01*G01*
G75*G03X75743Y54454I-203J0D01*G01*
Y51914D02*G75*G03X76149Y51914I203J0D01*G01*
G75*G03X75743Y51914I-203J0D01*G01*
Y49374D02*G75*G03X76149Y49374I203J0D01*G01*
G75*G03X75743Y49374I-203J0D01*G01*
Y46834D02*G75*G03X76149Y46834I203J0D01*G01*
G75*G03X75743Y46834I-203J0D01*G01*
Y44294D02*G75*G03X76149Y44294I203J0D01*G01*
G75*G03X75743Y44294I-203J0D01*G01*
Y41754D02*G75*G03X76149Y41754I203J0D01*G01*
G75*G03X75743Y41754I-203J0D01*G01*
Y39214D02*G75*G03X76149Y39214I203J0D01*G01*
G75*G03X75743Y39214I-203J0D01*G01*
Y36674D02*G75*G03X76149Y36674I203J0D01*G01*
G75*G03X75743Y36674I-203J0D01*G01*
Y34134D02*G75*G03X76149Y34134I203J0D01*G01*
G75*G03X75743Y34134I-203J0D01*G01*
Y31594D02*G75*G03X76149Y31594I203J0D01*G01*
G75*G03X75743Y31594I-203J0D01*G01*
X98603D02*G75*G03X99009Y31594I203J0D01*G01*
G75*G03X98603Y31594I-203J0D01*G01*
Y34134D02*G75*G03X99009Y34134I203J0D01*G01*
G75*G03X98603Y34134I-203J0D01*G01*
Y36674D02*G75*G03X99009Y36674I203J0D01*G01*
G75*G03X98603Y36674I-203J0D01*G01*
Y39214D02*G75*G03X99009Y39214I203J0D01*G01*
G75*G03X98603Y39214I-203J0D01*G01*
Y41754D02*G75*G03X99009Y41754I203J0D01*G01*
G75*G03X98603Y41754I-203J0D01*G01*
Y44294D02*G75*G03X99009Y44294I203J0D01*G01*
G75*G03X98603Y44294I-203J0D01*G01*
Y46834D02*G75*G03X99009Y46834I203J0D01*G01*
G75*G03X98603Y46834I-203J0D01*G01*
Y49374D02*G75*G03X99009Y49374I203J0D01*G01*
G75*G03X98603Y49374I-203J0D01*G01*
Y51914D02*G75*G03X99009Y51914I203J0D01*G01*
G75*G03X98603Y51914I-203J0D01*G01*
Y54454D02*G75*G03X99009Y54454I203J0D01*G01*
G75*G03X98603Y54454I-203J0D01*G01*
Y56994D02*G75*G03X99009Y56994I203J0D01*G01*
G75*G03X98603Y56994I-203J0D01*G01*
Y59534D02*G75*G03X99009Y59534I203J0D01*G01*
G75*G03X98603Y59534I-203J0D01*G01*
Y62074D02*G75*G03X99009Y62074I203J0D01*G01*
G75*G03X98603Y62074I-203J0D01*G01*
Y64614D02*G75*G03X99009Y64614I203J0D01*G01*
G75*G03X98603Y64614I-203J0D01*G01*
Y67154D02*G75*G03X99009Y67154I203J0D01*G01*
G75*G03X98603Y67154I-203J0D01*G01*
Y69694D02*G75*G03X99009Y69694I203J0D01*G01*
G75*G03X98603Y69694I-203J0D01*G01*
Y72234D02*G75*G03X99009Y72234I203J0D01*G01*
G75*G03X98603Y72234I-203J0D01*G01*
Y74774D02*G75*G03X99009Y74774I203J0D01*G01*
G75*G03X98603Y74774I-203J0D01*G01*
Y77314D02*G75*G03X99009Y77314I203J0D01*G01*
G75*G03X98603Y77314I-203J0D01*G01*
Y79854D02*G75*G03X99009Y79854I203J0D01*G01*
G75*G03X98603Y79854I-203J0D01*G01*
X44628Y45564D02*G75*G03X45034Y45564I203J0D01*G01*
G75*G03X44628Y45564I-203J0D01*G01*
Y43024D02*G75*G03X45034Y43024I203J0D01*G01*
G75*G03X44628Y43024I-203J0D01*G01*
X42088Y45564D02*G75*G03X42494Y45564I203J0D01*G01*
G75*G03X42088Y45564I-203J0D01*G01*
Y43024D02*G75*G03X42494Y43024I203J0D01*G01*
G75*G03X42088Y43024I-203J0D01*G01*
X39548Y45564D02*G75*G03X39954Y45564I203J0D01*G01*
G75*G03X39548Y45564I-203J0D01*G01*
Y43024D02*G75*G03X39954Y43024I203J0D01*G01*
G75*G03X39548Y43024I-203J0D01*G01*
X37008Y45564D02*G75*G03X37414Y45564I203J0D01*G01*
G75*G03X37008Y45564I-203J0D01*G01*
Y43024D02*G75*G03X37414Y43024I203J0D01*G01*
G75*G03X37008Y43024I-203J0D01*G01*
X34468Y45564D02*G75*G03X34874Y45564I203J0D01*G01*
G75*G03X34468Y45564I-203J0D01*G01*
Y43024D02*G75*G03X34874Y43024I203J0D01*G01*
G75*G03X34468Y43024I-203J0D01*G01*
X3607Y126908D02*G75*G03X4013Y126908I203J0D01*G01*
G75*G03X3607Y126908I-203J0D01*G01*
X34290Y127479D02*Y127289D01*
X34671Y126908D01*
X35052Y127289D01*
Y127479D02*Y127289D01*
X34671Y126908D02*Y125955D01*
X35509Y126717D02*X36081D01*
X35509Y125955D02*X36271D01*
X35509Y127479D02*Y125955D01*
Y127479D02*X36271D01*
X37490D02*X37681Y127289D01*
X36919Y127479D02*X37490D01*
X36728Y127289D02*X36919Y127479D01*
X36728Y127289D02*Y126908D01*
X36919Y126717D01*
X37490D01*
X37681Y126527D01*
Y126146D01*
X37490Y125955D02*X37681Y126146D01*
X36919Y125955D02*X37490D01*
X36728Y126146D02*X36919Y125955D01*
X24892Y126146D02*X25083Y125955D01*
X24892Y126527D02*Y126146D01*
Y126527D02*X25083Y126717D01*
X25464D01*
X25654Y126527D01*
Y126146D01*
X25464Y125955D02*X25654Y126146D01*
X25083Y125955D02*X25464D01*
X24892Y126908D02*X25083Y126717D01*
X24892Y127289D02*Y126908D01*
Y127289D02*X25083Y127479D01*
X25464D01*
X25654Y127289D01*
Y126908D01*
X25464Y126717D02*X25654Y126908D01*
X26683Y127479D02*X26873Y127289D01*
X26302Y127479D02*X26683D01*
X26111Y127289D02*X26302Y127479D01*
X26111Y127289D02*Y126146D01*
X26302Y125955D01*
X26683Y126717D02*X26873Y126527D01*
X26111Y126717D02*X26683D01*
X26302Y125955D02*X26683D01*
X26873Y126146D01*
Y126527D02*Y126146D01*
X11430D02*X11621Y125955D01*
X11430Y127289D02*Y126146D01*
Y127289D02*X11621Y127479D01*
X12002D01*
X12192Y127289D01*
Y126146D01*
X12002Y125955D02*X12192Y126146D01*
X11621Y125955D02*X12002D01*
X11430Y126336D02*X12192Y127098D01*
X12649Y125955D02*X12840D01*
X13297Y126146D02*X13487Y125955D01*
X13297Y127289D02*Y126146D01*
Y127289D02*X13487Y127479D01*
X13868D01*
X14059Y127289D01*
Y126146D01*
X13868Y125955D02*X14059Y126146D01*
X13487Y125955D02*X13868D01*
X13297Y126336D02*X14059Y127098D01*
X14516Y127289D02*X14707Y127479D01*
X15088D01*
X15278Y127289D01*
Y126146D01*
X15088Y125955D02*X15278Y126146D01*
X14707Y125955D02*X15088D01*
X14516Y126146D02*X14707Y125955D01*
Y126717D02*X15278D01*
X15735Y125955D02*X16497Y126717D01*
Y127289D02*Y126717D01*
X16307Y127479D02*X16497Y127289D01*
X15926Y127479D02*X16307D01*
X15735Y127289D02*X15926Y127479D01*
X15735Y127289D02*Y126908D01*
X15926Y126717D01*
X16497D01*
X57861Y92859D02*X58471Y92249D01*
X57861D02*X58471Y92859D01*
X60604D02*X61214Y92249D01*
X60604D02*X61214Y92859D01*
X63348D02*X63957Y92249D01*
X63348D02*X63957Y92859D01*
X66091D02*X66700Y92249D01*
X66091D02*X66700Y92859D01*
X68834D02*X69444Y92249D01*
X68834D02*X69444Y92859D01*
X59233Y95704D02*X59842Y95094D01*
X59233D02*X59842Y95704D01*
X61976D02*X62586Y95094D01*
X61976D02*X62586Y95704D01*
X64719D02*X65329Y95094D01*
X64719D02*X65329Y95704D01*
X67462D02*X68072Y95094D01*
X67462D02*X68072Y95704D01*
X141173Y49679D02*X141783Y49069D01*
X141173D02*X141783Y49679D01*
X141173Y47139D02*X141783Y46529D01*
X141173D02*X141783Y47139D01*
X141173Y44599D02*X141783Y43989D01*
X141173D02*X141783Y44599D01*
X141173Y42059D02*X141783Y41449D01*
X141173D02*X141783Y42059D01*
X141173Y39519D02*X141783Y38909D01*
X141173D02*X141783Y39519D01*
X141173Y36979D02*X141783Y36369D01*
X141173D02*X141783Y36979D01*
X143713D02*X144323Y36369D01*
X143713D02*X144323Y36979D01*
X138633D02*X139243Y36369D01*
X138633D02*X139243Y36979D01*
X143713Y39519D02*X144323Y38909D01*
X143713D02*X144323Y39519D01*
X138633D02*X139243Y38909D01*
X138633D02*X139243Y39519D01*
X143713Y42059D02*X144323Y41449D01*
X143713D02*X144323Y42059D01*
X138633D02*X139243Y41449D01*
X138633D02*X139243Y42059D01*
X143713Y44599D02*X144323Y43989D01*
X143713D02*X144323Y44599D01*
X138633D02*X139243Y43989D01*
X138633D02*X139243Y44599D01*
X143713Y47139D02*X144323Y46529D01*
X143713D02*X144323Y47139D01*
X138633D02*X139243Y46529D01*
X138633D02*X139243Y47139D01*
X143713Y49679D02*X144323Y49069D01*
X143713D02*X144323Y49679D01*
X138633D02*X139243Y49069D01*
X138633D02*X139243Y49679D01*
X26111Y92859D02*X26721Y92249D01*
X26111D02*X26721Y92859D01*
X28854D02*X29464Y92249D01*
X28854D02*X29464Y92859D01*
X31598D02*X32207Y92249D01*
X31598D02*X32207Y92859D01*
X34341D02*X34950Y92249D01*
X34341D02*X34950Y92859D01*
X37084D02*X37694Y92249D01*
X37084D02*X37694Y92859D01*
X27483Y95704D02*X28092Y95094D01*
X27483D02*X28092Y95704D01*
X30226D02*X30836Y95094D01*
X30226D02*X30836Y95704D01*
X32969D02*X33579Y95094D01*
X32969D02*X33579Y95704D01*
X35712D02*X36322Y95094D01*
X35712D02*X36322Y95704D01*
X89611Y92859D02*X90221Y92249D01*
X89611D02*X90221Y92859D01*
X92354D02*X92964Y92249D01*
X92354D02*X92964Y92859D01*
X95098D02*X95707Y92249D01*
X95098D02*X95707Y92859D01*
X97841D02*X98450Y92249D01*
X97841D02*X98450Y92859D01*
X100584D02*X101194Y92249D01*
X100584D02*X101194Y92859D01*
X90983Y95704D02*X91592Y95094D01*
X90983D02*X91592Y95704D01*
X93726D02*X94336Y95094D01*
X93726D02*X94336Y95704D01*
X96469D02*X97079Y95094D01*
X96469D02*X97079Y95704D01*
X99212D02*X99822Y95094D01*
X99212D02*X99822Y95704D01*
X138405Y91868D02*X139014Y91259D01*
X138405D02*X139014Y91868D01*
X136373D02*X136982Y91259D01*
X136373D02*X136982Y91868D01*
X140894D02*X141503Y91259D01*
X140894D02*X141503Y91868D01*
X133883D02*X134493Y91259D01*
X133883D02*X134493Y91868D01*
X113995Y75079D02*X114605Y74469D01*
X113995D02*X114605Y75079D01*
X116027D02*X116637Y74469D01*
X116027D02*X116637Y75079D01*
X115011Y77619D02*X115621Y77009D01*
X115011D02*X115621Y77619D01*
X118059Y75079D02*X118669Y74469D01*
X118059D02*X118669Y75079D01*
X117043Y77619D02*X117653Y77009D01*
X117043D02*X117653Y77619D01*
X122123Y75079D02*X122733Y74469D01*
X122123D02*X122733Y75079D01*
X124155D02*X124765Y74469D01*
X124155D02*X124765Y75079D01*
X123139Y77619D02*X123749Y77009D01*
X123139D02*X123749Y77619D01*
X125171D02*X125781Y77009D01*
X125171D02*X125781Y77619D01*
X168478Y85493D02*X169088Y84883D01*
X168478D02*X169088Y85493D01*
X165938D02*X166548Y84883D01*
X165938D02*X166548Y85493D01*
X165938Y82953D02*X166548Y82343D01*
X165938D02*X166548Y82953D01*
X165938Y88033D02*X166548Y87423D01*
X165938D02*X166548Y88033D01*
X168478Y82953D02*X169088Y82343D01*
X168478D02*X169088Y82953D01*
X168478Y88033D02*X169088Y87423D01*
X168478D02*X169088Y88033D01*
X154381Y84350D02*X154991Y83740D01*
X154381D02*X154991Y84350D01*
X154381Y81810D02*X154991Y81200D01*
X154381D02*X154991Y81810D01*
X154381Y79270D02*X154991Y78660D01*
X154381D02*X154991Y79270D01*
X156921D02*X157531Y78660D01*
X156921D02*X157531Y79270D01*
X151841D02*X152451Y78660D01*
X151841D02*X152451Y79270D01*
X156921Y81810D02*X157531Y81200D01*
X156921D02*X157531Y81810D01*
X151841D02*X152451Y81200D01*
X151841D02*X152451Y81810D01*
X156921Y84350D02*X157531Y83740D01*
X156921D02*X157531Y84350D01*
X151841D02*X152451Y83740D01*
X151841D02*X152451Y84350D01*
X88087Y8785D02*X88697Y8175D01*
X88087D02*X88697Y8785D01*
X90627D02*X91237Y8175D01*
X90627D02*X91237Y8785D01*
X93167D02*X93777Y8175D01*
X93167D02*X93777Y8785D01*
X95707D02*X96317Y8175D01*
X95707D02*X96317Y8785D01*
X98247D02*X98857Y8175D01*
X98247D02*X98857Y8785D01*
X100787D02*X101397Y8175D01*
X100787D02*X101397Y8785D01*
X100787Y11325D02*X101397Y10715D01*
X100787D02*X101397Y11325D01*
X100787Y6245D02*X101397Y5635D01*
X100787D02*X101397Y6245D01*
X98247Y11325D02*X98857Y10715D01*
X98247D02*X98857Y11325D01*
X98247Y6245D02*X98857Y5635D01*
X98247D02*X98857Y6245D01*
X95707Y11325D02*X96317Y10715D01*
X95707D02*X96317Y11325D01*
X95707Y6245D02*X96317Y5635D01*
X95707D02*X96317Y6245D01*
X93167Y11325D02*X93777Y10715D01*
X93167D02*X93777Y11325D01*
X93167Y6245D02*X93777Y5635D01*
X93167D02*X93777Y6245D01*
X90627Y11325D02*X91237Y10715D01*
X90627D02*X91237Y11325D01*
X90627Y6245D02*X91237Y5635D01*
X90627D02*X91237Y6245D01*
X88087Y11325D02*X88697Y10715D01*
X88087D02*X88697Y11325D01*
X88087Y6245D02*X88697Y5635D01*
X88087D02*X88697Y6245D01*
X37668Y73047D02*X38278Y72437D01*
X37668D02*X38278Y73047D01*
X37668Y75587D02*X38278Y74977D01*
X37668D02*X38278Y75587D01*
X37668Y70507D02*X38278Y69897D01*
X37668D02*X38278Y70507D01*
X37668Y67967D02*X38278Y67357D01*
X37668D02*X38278Y67967D01*
X37668Y65427D02*X38278Y64817D01*
X37668D02*X38278Y65427D01*
X37668Y62887D02*X38278Y62277D01*
X37668D02*X38278Y62887D01*
X37668Y60347D02*X38278Y59737D01*
X37668D02*X38278Y60347D01*
X37668Y57807D02*X38278Y57197D01*
X37668D02*X38278Y57807D01*
X40208D02*X40818Y57197D01*
X40208D02*X40818Y57807D01*
X35128D02*X35738Y57197D01*
X35128D02*X35738Y57807D01*
X40208Y60347D02*X40818Y59737D01*
X40208D02*X40818Y60347D01*
X35128D02*X35738Y59737D01*
X35128D02*X35738Y60347D01*
X40208Y62887D02*X40818Y62277D01*
X40208D02*X40818Y62887D01*
X35128D02*X35738Y62277D01*
X35128D02*X35738Y62887D01*
X40208Y65427D02*X40818Y64817D01*
X40208D02*X40818Y65427D01*
X35128D02*X35738Y64817D01*
X35128D02*X35738Y65427D01*
X40208Y67967D02*X40818Y67357D01*
X40208D02*X40818Y67967D01*
X35128D02*X35738Y67357D01*
X35128D02*X35738Y67967D01*
X40208Y70507D02*X40818Y69897D01*
X40208D02*X40818Y70507D01*
X35128D02*X35738Y69897D01*
X35128D02*X35738Y70507D01*
X35128Y75587D02*X35738Y74977D01*
X35128D02*X35738Y75587D01*
X40208D02*X40818Y74977D01*
X40208D02*X40818Y75587D01*
X35128Y73047D02*X35738Y72437D01*
X35128D02*X35738Y73047D01*
X40208D02*X40818Y72437D01*
X40208D02*X40818Y73047D01*
X26111Y82445D02*X26721Y81835D01*
X26111D02*X26721Y82445D01*
X23571D02*X24181Y81835D01*
X23571D02*X24181Y82445D01*
X28651D02*X29261Y81835D01*
X28651D02*X29261Y82445D01*
X31191D02*X31801Y81835D01*
X31191D02*X31801Y82445D01*
X33731D02*X34341Y81835D01*
X33731D02*X34341Y82445D01*
X36271D02*X36881Y81835D01*
X36271D02*X36881Y82445D01*
X38811D02*X39421Y81835D01*
X38811D02*X39421Y82445D01*
X41351D02*X41961Y81835D01*
X41351D02*X41961Y82445D01*
X41351Y84985D02*X41961Y84375D01*
X41351D02*X41961Y84985D01*
X41351Y79905D02*X41961Y79295D01*
X41351D02*X41961Y79905D01*
X38811Y84985D02*X39421Y84375D01*
X38811D02*X39421Y84985D01*
X38811Y79905D02*X39421Y79295D01*
X38811D02*X39421Y79905D01*
X36271Y84985D02*X36881Y84375D01*
X36271D02*X36881Y84985D01*
X36271Y79905D02*X36881Y79295D01*
X36271D02*X36881Y79905D01*
X33731Y84985D02*X34341Y84375D01*
X33731D02*X34341Y84985D01*
X33731Y79905D02*X34341Y79295D01*
X33731D02*X34341Y79905D01*
X31191Y84985D02*X31801Y84375D01*
X31191D02*X31801Y84985D01*
X31191Y79905D02*X31801Y79295D01*
X31191D02*X31801Y79905D01*
X28651Y84985D02*X29261Y84375D01*
X28651D02*X29261Y84985D01*
X28651Y79905D02*X29261Y79295D01*
X28651D02*X29261Y79905D01*
X23571D02*X24181Y79295D01*
X23571D02*X24181Y79905D01*
X23571Y84985D02*X24181Y84375D01*
X23571D02*X24181Y84985D01*
X26111Y79905D02*X26721Y79295D01*
X26111D02*X26721Y79905D01*
X26111Y84985D02*X26721Y84375D01*
X26111D02*X26721Y84985D01*
X21031Y82445D02*X21641Y81835D01*
X21031D02*X21641Y82445D01*
X18491D02*X19101Y81835D01*
X18491D02*X19101Y82445D01*
X18491Y79905D02*X19101Y79295D01*
X18491D02*X19101Y79905D01*
X18491Y84985D02*X19101Y84375D01*
X18491D02*X19101Y84985D01*
X21031Y79905D02*X21641Y79295D01*
X21031D02*X21641Y79905D01*
X21031Y84985D02*X21641Y84375D01*
X21031D02*X21641Y84985D01*
X7061Y89557D02*X7671Y88947D01*
X7061D02*X7671Y89557D01*
X7061Y92097D02*X7671Y91487D01*
X7061D02*X7671Y92097D01*
X7061Y87017D02*X7671Y86407D01*
X7061D02*X7671Y87017D01*
X7061Y84477D02*X7671Y83867D01*
X7061D02*X7671Y84477D01*
X7061Y81937D02*X7671Y81327D01*
X7061D02*X7671Y81937D01*
X7061Y79397D02*X7671Y78787D01*
X7061D02*X7671Y79397D01*
X7061Y76857D02*X7671Y76247D01*
X7061D02*X7671Y76857D01*
X7061Y74317D02*X7671Y73707D01*
X7061D02*X7671Y74317D01*
X9601D02*X10211Y73707D01*
X9601D02*X10211Y74317D01*
X4521D02*X5131Y73707D01*
X4521D02*X5131Y74317D01*
X9601Y76857D02*X10211Y76247D01*
X9601D02*X10211Y76857D01*
X4521D02*X5131Y76247D01*
X4521D02*X5131Y76857D01*
X9601Y79397D02*X10211Y78787D01*
X9601D02*X10211Y79397D01*
X4521D02*X5131Y78787D01*
X4521D02*X5131Y79397D01*
X9601Y81937D02*X10211Y81327D01*
X9601D02*X10211Y81937D01*
X4521D02*X5131Y81327D01*
X4521D02*X5131Y81937D01*
X9601Y84477D02*X10211Y83867D01*
X9601D02*X10211Y84477D01*
X4521D02*X5131Y83867D01*
X4521D02*X5131Y84477D01*
X9601Y87017D02*X10211Y86407D01*
X9601D02*X10211Y87017D01*
X4521D02*X5131Y86407D01*
X4521D02*X5131Y87017D01*
X4521Y92097D02*X5131Y91487D01*
X4521D02*X5131Y92097D01*
X9601D02*X10211Y91487D01*
X9601D02*X10211Y92097D01*
X4521Y89557D02*X5131Y88947D01*
X4521D02*X5131Y89557D01*
X9601D02*X10211Y88947D01*
X9601D02*X10211Y89557D01*
X176225Y25041D02*X176835Y24431D01*
X176225D02*X176835Y25041D01*
X173685D02*X174295Y24431D01*
X173685D02*X174295Y25041D01*
X171145D02*X171755Y24431D01*
X171145D02*X171755Y25041D01*
X168605D02*X169215Y24431D01*
X168605D02*X169215Y25041D01*
X168605Y22501D02*X169215Y21891D01*
X168605D02*X169215Y22501D01*
X168605Y27581D02*X169215Y26971D01*
X168605D02*X169215Y27581D01*
X171145Y22501D02*X171755Y21891D01*
X171145D02*X171755Y22501D01*
X171145Y27581D02*X171755Y26971D01*
X171145D02*X171755Y27581D01*
X173685Y22501D02*X174295Y21891D01*
X173685D02*X174295Y22501D01*
X173685Y27581D02*X174295Y26971D01*
X173685D02*X174295Y27581D01*
X176225Y22501D02*X176835Y21891D01*
X176225D02*X176835Y22501D01*
X176225Y27581D02*X176835Y26971D01*
X176225D02*X176835Y27581D01*
X175971Y56537D02*X176581Y55927D01*
X175971D02*X176581Y56537D01*
X173431D02*X174041Y55927D01*
X173431D02*X174041Y56537D01*
X170891D02*X171501Y55927D01*
X170891D02*X171501Y56537D01*
X168351D02*X168961Y55927D01*
X168351D02*X168961Y56537D01*
X168351Y53997D02*X168961Y53387D01*
X168351D02*X168961Y53997D01*
X168351Y59077D02*X168961Y58467D01*
X168351D02*X168961Y59077D01*
X170891Y53997D02*X171501Y53387D01*
X170891D02*X171501Y53997D01*
X170891Y59077D02*X171501Y58467D01*
X170891D02*X171501Y59077D01*
X173431Y53997D02*X174041Y53387D01*
X173431D02*X174041Y53997D01*
X173431Y59077D02*X174041Y58467D01*
X173431D02*X174041Y59077D01*
X175971Y53997D02*X176581Y53387D01*
X175971D02*X176581Y53997D01*
X175971Y59077D02*X176581Y58467D01*
X175971D02*X176581Y59077D01*
X118059Y6626D02*X118669Y6016D01*
X118059D02*X118669Y6626D01*
X118059Y9166D02*X118669Y8556D01*
X118059D02*X118669Y9166D01*
X118059Y11706D02*X118669Y11096D01*
X118059D02*X118669Y11706D01*
X118059Y14246D02*X118669Y13636D01*
X118059D02*X118669Y14246D01*
X118059Y16786D02*X118669Y16176D01*
X118059D02*X118669Y16786D01*
X115519D02*X116129Y16176D01*
X115519D02*X116129Y16786D01*
X120599D02*X121209Y16176D01*
X120599D02*X121209Y16786D01*
X115519Y14246D02*X116129Y13636D01*
X115519D02*X116129Y14246D01*
X120599D02*X121209Y13636D01*
X120599D02*X121209Y14246D01*
X115519Y11706D02*X116129Y11096D01*
X115519D02*X116129Y11706D01*
X120599D02*X121209Y11096D01*
X120599D02*X121209Y11706D01*
X115519Y9166D02*X116129Y8556D01*
X115519D02*X116129Y9166D01*
X120599D02*X121209Y8556D01*
X120599D02*X121209Y9166D01*
X115519Y6626D02*X116129Y6016D01*
X115519D02*X116129Y6626D01*
X120599D02*X121209Y6016D01*
X120599D02*X121209Y6626D01*
X153111Y6880D02*X153721Y6270D01*
X153111D02*X153721Y6880D01*
X153111Y9420D02*X153721Y8810D01*
X153111D02*X153721Y9420D01*
X153111Y11960D02*X153721Y11350D01*
X153111D02*X153721Y11960D01*
X153111Y14500D02*X153721Y13890D01*
X153111D02*X153721Y14500D01*
X153111Y17040D02*X153721Y16430D01*
X153111D02*X153721Y17040D01*
X150571D02*X151181Y16430D01*
X150571D02*X151181Y17040D01*
X155651D02*X156261Y16430D01*
X155651D02*X156261Y17040D01*
X150571Y14500D02*X151181Y13890D01*
X150571D02*X151181Y14500D01*
X155651D02*X156261Y13890D01*
X155651D02*X156261Y14500D01*
X150571Y11960D02*X151181Y11350D01*
X150571D02*X151181Y11960D01*
X155651D02*X156261Y11350D01*
X155651D02*X156261Y11960D01*
X150571Y9420D02*X151181Y8810D01*
X150571D02*X151181Y9420D01*
X155651D02*X156261Y8810D01*
X155651D02*X156261Y9420D01*
X150571Y6880D02*X151181Y6270D01*
X150571D02*X151181Y6880D01*
X155651D02*X156261Y6270D01*
X155651D02*X156261Y6880D01*
X7696Y43329D02*X8306Y42719D01*
X7696D02*X8306Y43329D01*
X7696Y45869D02*X8306Y45259D01*
X7696D02*X8306Y45869D01*
X7696Y40789D02*X8306Y40179D01*
X7696D02*X8306Y40789D01*
X7696Y38249D02*X8306Y37639D01*
X7696D02*X8306Y38249D01*
X7696Y35709D02*X8306Y35099D01*
X7696D02*X8306Y35709D01*
X7696Y33169D02*X8306Y32559D01*
X7696D02*X8306Y33169D01*
X7696Y30629D02*X8306Y30019D01*
X7696D02*X8306Y30629D01*
X7696Y28089D02*X8306Y27479D01*
X7696D02*X8306Y28089D01*
X10236D02*X10846Y27479D01*
X10236D02*X10846Y28089D01*
X5156D02*X5766Y27479D01*
X5156D02*X5766Y28089D01*
X10236Y30629D02*X10846Y30019D01*
X10236D02*X10846Y30629D01*
X5156D02*X5766Y30019D01*
X5156D02*X5766Y30629D01*
X10236Y33169D02*X10846Y32559D01*
X10236D02*X10846Y33169D01*
X5156D02*X5766Y32559D01*
X5156D02*X5766Y33169D01*
X10236Y35709D02*X10846Y35099D01*
X10236D02*X10846Y35709D01*
X5156D02*X5766Y35099D01*
X5156D02*X5766Y35709D01*
X10236Y38249D02*X10846Y37639D01*
X10236D02*X10846Y38249D01*
X5156D02*X5766Y37639D01*
X5156D02*X5766Y38249D01*
X10236Y40789D02*X10846Y40179D01*
X10236D02*X10846Y40789D01*
X5156D02*X5766Y40179D01*
X5156D02*X5766Y40789D01*
X5156Y45869D02*X5766Y45259D01*
X5156D02*X5766Y45869D01*
X10236D02*X10846Y45259D01*
X10236D02*X10846Y45869D01*
X5156Y43329D02*X5766Y42719D01*
X5156D02*X5766Y43329D01*
X10236D02*X10846Y42719D01*
X10236D02*X10846Y43329D01*
X175971Y41678D02*X176581Y41068D01*
X175971D02*X176581Y41678D01*
X173431D02*X174041Y41068D01*
X173431D02*X174041Y41678D01*
X170891D02*X171501Y41068D01*
X170891D02*X171501Y41678D01*
X168351D02*X168961Y41068D01*
X168351D02*X168961Y41678D01*
X168351Y39138D02*X168961Y38528D01*
X168351D02*X168961Y39138D01*
X168351Y44218D02*X168961Y43608D01*
X168351D02*X168961Y44218D01*
X170891Y39138D02*X171501Y38528D01*
X170891D02*X171501Y39138D01*
X170891Y44218D02*X171501Y43608D01*
X170891D02*X171501Y44218D01*
X173431Y39138D02*X174041Y38528D01*
X173431D02*X174041Y39138D01*
X173431Y44218D02*X174041Y43608D01*
X173431D02*X174041Y44218D01*
X175971Y39138D02*X176581Y38528D01*
X175971D02*X176581Y39138D01*
X175971Y44218D02*X176581Y43608D01*
X175971D02*X176581Y44218D01*
X137998Y6499D02*X138608Y5889D01*
X137998D02*X138608Y6499D01*
X137998Y9039D02*X138608Y8429D01*
X137998D02*X138608Y9039D01*
X137998Y11579D02*X138608Y10969D01*
X137998D02*X138608Y11579D01*
X137998Y14119D02*X138608Y13509D01*
X137998D02*X138608Y14119D01*
X137998Y16659D02*X138608Y16049D01*
X137998D02*X138608Y16659D01*
X135458D02*X136068Y16049D01*
X135458D02*X136068Y16659D01*
X140538D02*X141148Y16049D01*
X140538D02*X141148Y16659D01*
X135458Y14119D02*X136068Y13509D01*
X135458D02*X136068Y14119D01*
X140538D02*X141148Y13509D01*
X140538D02*X141148Y14119D01*
X135458Y11579D02*X136068Y10969D01*
X135458D02*X136068Y11579D01*
X140538D02*X141148Y10969D01*
X140538D02*X141148Y11579D01*
X135458Y9039D02*X136068Y8429D01*
X135458D02*X136068Y9039D01*
X140538D02*X141148Y8429D01*
X140538D02*X141148Y9039D01*
X135458Y6499D02*X136068Y5889D01*
X135458D02*X136068Y6499D01*
X140538D02*X141148Y5889D01*
X140538D02*X141148Y6499D01*
X7823Y67078D02*X8433Y66468D01*
X7823D02*X8433Y67078D01*
X7823Y64538D02*X8433Y63928D01*
X7823D02*X8433Y64538D01*
X7823Y61998D02*X8433Y61388D01*
X7823D02*X8433Y61998D01*
X7823Y59458D02*X8433Y58848D01*
X7823D02*X8433Y59458D01*
X7823Y56918D02*X8433Y56308D01*
X7823D02*X8433Y56918D01*
X7823Y54378D02*X8433Y53768D01*
X7823D02*X8433Y54378D01*
X10363D02*X10973Y53768D01*
X10363D02*X10973Y54378D01*
X5283D02*X5893Y53768D01*
X5283D02*X5893Y54378D01*
X10363Y56918D02*X10973Y56308D01*
X10363D02*X10973Y56918D01*
X5283D02*X5893Y56308D01*
X5283D02*X5893Y56918D01*
X10363Y59458D02*X10973Y58848D01*
X10363D02*X10973Y59458D01*
X5283D02*X5893Y58848D01*
X5283D02*X5893Y59458D01*
X10363Y61998D02*X10973Y61388D01*
X10363D02*X10973Y61998D01*
X5283D02*X5893Y61388D01*
X5283D02*X5893Y61998D01*
X10363Y64538D02*X10973Y63928D01*
X10363D02*X10973Y64538D01*
X5283D02*X5893Y63928D01*
X5283D02*X5893Y64538D01*
X10363Y67078D02*X10973Y66468D01*
X10363D02*X10973Y67078D01*
X5283D02*X5893Y66468D01*
X5283D02*X5893Y67078D01*
X95326Y19072D02*X95936Y18462D01*
X95326D02*X95936Y19072D01*
X95326Y21612D02*X95936Y21002D01*
X95326D02*X95936Y21612D01*
X95326Y24152D02*X95936Y23542D01*
X95326D02*X95936Y24152D01*
X92786D02*X93396Y23542D01*
X92786D02*X93396Y24152D01*
X97866D02*X98476Y23542D01*
X97866D02*X98476Y24152D01*
X92786Y21612D02*X93396Y21002D01*
X92786D02*X93396Y21612D01*
X97866D02*X98476Y21002D01*
X97866D02*X98476Y21612D01*
X92786Y19072D02*X93396Y18462D01*
X92786D02*X93396Y19072D01*
X97866D02*X98476Y18462D01*
X97866D02*X98476Y19072D01*
X129489Y83080D02*X130099Y82470D01*
X129489D02*X130099Y83080D01*
X129489Y80921D02*X130099Y80311D01*
X129489D02*X130099Y80921D01*
X124155Y72031D02*X124765Y71421D01*
X124155D02*X124765Y72031D01*
X121869D02*X122479Y71421D01*
X121869D02*X122479Y72031D01*
X156921Y21739D02*X157531Y21129D01*
X156921D02*X157531Y21739D01*
X120472Y82953D02*X121082Y82343D01*
X120472D02*X121082Y82953D01*
X145491Y6245D02*X146101Y5635D01*
X145491D02*X146101Y6245D01*
X142951Y89811D02*X143561Y89201D01*
X142951D02*X143561Y89811D01*
X176479Y15389D02*X177089Y14779D01*
X176479D02*X177089Y15389D01*
X35763Y53108D02*X36373Y52498D01*
X35763D02*X36373Y53108D01*
X32969D02*X33579Y52498D01*
X32969D02*X33579Y53108D01*
X52781Y33169D02*X53391Y32559D01*
X52781D02*X53391Y33169D01*
X24714Y47266D02*X25324Y46656D01*
X24714D02*X25324Y47266D01*
X86817Y87271D02*X87427Y86661D01*
X86817D02*X87427Y87271D01*
X163779Y21739D02*X164389Y21129D01*
X163779D02*X164389Y21739D01*
X108661Y50949D02*X109271Y50339D01*
X108661D02*X109271Y50949D01*
X129362Y85493D02*X129972Y84883D01*
X129362D02*X129972Y85493D01*
X104089Y59712D02*X104699Y59102D01*
X104089D02*X104699Y59712D01*
X119202Y87652D02*X119812Y87042D01*
X119202D02*X119812Y87652D01*
X113487Y87779D02*X114097Y87169D01*
X113487D02*X114097Y87779D01*
X141173Y83969D02*X141783Y83359D01*
X141173D02*X141783Y83969D01*
X103327Y87398D02*X103937Y86788D01*
X103327D02*X103937Y87398D01*
X87071Y79905D02*X87681Y79295D01*
X87071D02*X87681Y79905D01*
X96977Y81937D02*X97587Y81327D01*
X96977D02*X97587Y81937D01*
X92278Y52219D02*X92888Y51609D01*
X92278D02*X92888Y52219D01*
X89992Y87271D02*X90602Y86661D01*
X89992D02*X90602Y87271D01*
X89992Y72412D02*X90602Y71802D01*
X89992D02*X90602Y72412D01*
X87071Y31772D02*X87681Y31162D01*
X87071D02*X87681Y31772D01*
X154635Y66316D02*X155245Y65706D01*
X154635D02*X155245Y66316D01*
X81864Y54632D02*X82474Y54022D01*
X81864D02*X82474Y54632D01*
X117043Y52854D02*X117653Y52244D01*
X117043D02*X117653Y52854D01*
X112598Y59839D02*X113208Y59229D01*
X112598D02*X113208Y59839D01*
X64211Y28978D02*X64821Y28368D01*
X64211D02*X64821Y28978D01*
X66497Y29232D02*X67107Y28622D01*
X66497D02*X67107Y29232D01*
X73990Y56156D02*X74600Y55546D01*
X73990D02*X74600Y56156D01*
X72847Y57807D02*X73457Y57197D01*
X72847D02*X73457Y57807D01*
X72085Y71650D02*X72695Y71040D01*
X72085D02*X72695Y71650D01*
X73736Y64157D02*X74346Y63547D01*
X73736D02*X74346Y64157D01*
X16586Y7261D02*X17196Y6651D01*
X16586D02*X17196Y7261D01*
X61417Y51076D02*X62027Y50466D01*
X61417D02*X62027Y51076D01*
X47701Y34820D02*X48311Y34210D01*
X47701D02*X48311Y34820D01*
X53416Y72031D02*X54026Y71421D01*
X53416D02*X54026Y72031D01*
X67767Y57680D02*X68377Y57070D01*
X67767D02*X68377Y57680D01*
X73355Y31899D02*X73965Y31289D01*
X73355D02*X73965Y31899D01*
X68656Y29613D02*X69266Y29003D01*
X68656D02*X69266Y29613D01*
X53162Y64284D02*X53772Y63674D01*
X53162D02*X53772Y64284D01*
X81483Y33423D02*X82093Y32813D01*
X81483D02*X82093Y33423D01*
X49733Y61998D02*X50343Y61388D01*
X49733D02*X50343Y61998D01*
X51257Y56537D02*X51867Y55927D01*
X51257D02*X51867Y56537D01*
X50368Y29232D02*X50978Y28622D01*
X50368D02*X50978Y29232D01*
X57099Y30502D02*X57709Y29892D01*
X57099D02*X57709Y30502D01*
X55321Y28851D02*X55931Y28241D01*
X55321D02*X55931Y28851D01*
X59639Y32661D02*X60249Y32051D01*
X59639D02*X60249Y32661D01*
X71958Y59585D02*X72568Y58975D01*
X71958D02*X72568Y59585D01*
X69037Y73809D02*X69647Y73199D01*
X69037D02*X69647Y73809D01*
X73990Y71396D02*X74600Y70786D01*
X73990D02*X74600Y71396D01*
X64465Y51584D02*X65075Y50974D01*
X64465D02*X65075Y51584D01*
X69926Y59712D02*X70536Y59102D01*
X69926D02*X70536Y59712D01*
X61544Y81048D02*X62154Y80438D01*
X61544D02*X62154Y81048D01*
X73990Y82445D02*X74600Y81835D01*
X73990D02*X74600Y82445D01*
X38430Y29486D02*X39040Y28876D01*
X38430D02*X39040Y29486D01*
X56718Y48917D02*X57328Y48307D01*
X56718D02*X57328Y48917D01*
X43510Y31391D02*X44120Y30781D01*
X43510D02*X44120Y31391D01*
X60528Y79143D02*X61138Y78533D01*
X60528D02*X61138Y79143D01*
X44399Y75841D02*X45009Y75231D01*
X44399D02*X45009Y75841D01*
X55067Y62633D02*X55677Y62023D01*
X55067D02*X55677Y62633D01*
X148031Y64030D02*X148641Y63420D01*
X148031D02*X148641Y64030D01*
X54051Y60347D02*X54661Y59737D01*
X54051D02*X54661Y60347D01*
X57480Y59585D02*X58090Y58975D01*
X57480D02*X58090Y59585D01*
X55702Y58569D02*X56312Y57959D01*
X55702D02*X56312Y58569D01*
X58877Y56029D02*X59487Y55419D01*
X58877D02*X59487Y56029D01*
X154432Y74418D02*X155042Y73809D01*
X154432D02*X155042Y74418D01*
X3505Y131022D02*X4115Y130413D01*
X3505D02*X4115Y131022D01*
X34290Y131289D02*Y131099D01*
X34671Y130718D01*
X35052Y131099D01*
Y131289D02*Y131099D01*
X34671Y130718D02*Y129765D01*
X35509Y130527D02*X36081D01*
X35509Y129765D02*X36271D01*
X35509Y131289D02*Y129765D01*
Y131289D02*X36271D01*
X37490D02*X37681Y131099D01*
X36919Y131289D02*X37490D01*
X36728Y131099D02*X36919Y131289D01*
X36728Y131099D02*Y130718D01*
X36919Y130527D01*
X37490D01*
X37681Y130337D01*
Y129956D01*
X37490Y129765D02*X37681Y129956D01*
X36919Y129765D02*X37490D01*
X36728Y129956D02*X36919Y129765D01*
X24892Y131099D02*X25083Y131289D01*
X25464D01*
X25654Y131099D01*
Y129956D01*
X25464Y129765D02*X25654Y129956D01*
X25083Y129765D02*X25464D01*
X24892Y129956D02*X25083Y129765D01*
Y130527D02*X25654D01*
X26111Y129765D02*X27064Y130718D01*
Y131289D02*Y130718D01*
X26111Y131289D02*X27064D01*
X27521Y131099D02*X27711Y131289D01*
X28092D01*
X28283Y131099D01*
Y129956D01*
X28092Y129765D02*X28283Y129956D01*
X27711Y129765D02*X28092D01*
X27521Y129956D02*X27711Y129765D01*
Y130527D02*X28283D01*
X11430Y129956D02*X11621Y129765D01*
X11430Y131099D02*Y129956D01*
Y131099D02*X11621Y131289D01*
X12002D01*
X12192Y131099D01*
Y129956D01*
X12002Y129765D02*X12192Y129956D01*
X11621Y129765D02*X12002D01*
X11430Y130146D02*X12192Y130908D01*
X12649Y129765D02*X12840D01*
X13297Y129956D02*X13487Y129765D01*
X13297Y131099D02*Y129956D01*
Y131099D02*X13487Y131289D01*
X13868D01*
X14059Y131099D01*
Y129956D01*
X13868Y129765D02*X14059Y129956D01*
X13487Y129765D02*X13868D01*
X13297Y130146D02*X14059Y130908D01*
X14516Y131099D02*X14707Y131289D01*
X15088D01*
X15278Y131099D01*
Y129956D01*
X15088Y129765D02*X15278Y129956D01*
X14707Y129765D02*X15088D01*
X14516Y129956D02*X14707Y129765D01*
Y130527D02*X15278D01*
X15735Y131289D02*X16497D01*
X15735D02*Y130527D01*
X15926Y130718D01*
X16307D01*
X16497Y130527D01*
Y129956D01*
X16307Y129765D02*X16497Y129956D01*
X15926Y129765D02*X16307D01*
X15735Y129956D02*X15926Y129765D01*
X148844Y54352D02*Y53540D01*
X148438Y53946D02*X149250D01*
X148844Y46732D02*Y45920D01*
X148438Y46326D02*X149250D01*
X151384Y44192D02*Y43380D01*
X150978Y43786D02*X151790D01*
X151384Y36572D02*Y35760D01*
X150978Y36166D02*X151790D01*
X148082Y44192D02*Y43380D01*
X147676Y43786D02*X148488D01*
X148082Y36572D02*Y35760D01*
X147676Y36166D02*X148488D01*
X107188Y20570D02*Y19758D01*
X106782Y20164D02*X107594D01*
X114808Y20570D02*Y19758D01*
X114402Y20164D02*X115214D01*
X104902Y22602D02*Y21790D01*
X104496Y22196D02*X105308D01*
X112522Y22602D02*Y21790D01*
X112116Y22196D02*X112928D01*
X135128Y90166D02*Y89354D01*
X134722Y89760D02*X135534D01*
X130048Y90166D02*Y89354D01*
X129642Y89760D02*X130454D01*
X137922Y88388D02*Y87576D01*
X137516Y87982D02*X138328D01*
X132842Y88388D02*Y87576D01*
X132436Y87982D02*X133248D01*
X130810Y70735D02*Y69923D01*
X130404Y70329D02*X131216D01*
X130810Y65655D02*Y64843D01*
X130404Y65249D02*X131216D01*
X169545Y70862D02*Y70050D01*
X169139Y70456D02*X169951D01*
X174625Y70862D02*Y70050D01*
X174219Y70456D02*X175031D01*
X177038Y68195D02*Y67383D01*
X176632Y67789D02*X177444D01*
X171958Y68195D02*Y67383D01*
X171552Y67789D02*X172364D01*
X169418Y77212D02*Y76400D01*
X169012Y76806D02*X169824D01*
X161798Y77212D02*Y76400D01*
X161392Y76806D02*X162204D01*
X151130Y50288D02*Y49476D01*
X150724Y49882D02*X151536D01*
X151130Y57908D02*Y57096D01*
X150724Y57502D02*X151536D01*
X112268Y67306D02*Y66494D01*
X111862Y66900D02*X112674D01*
X117348Y67306D02*Y66494D01*
X116942Y66900D02*X117754D01*
X129286Y66671D02*Y65859D01*
X128880Y66265D02*X129692D01*
X129286Y61591D02*Y60779D01*
X128880Y61185D02*X129692D01*
X124714Y67433D02*Y66621D01*
X124308Y67027D02*X125120D01*
X119634Y67433D02*Y66621D01*
X119228Y67027D02*X120040D01*
X130937Y58162D02*Y57350D01*
X130531Y57756D02*X131343D01*
X130937Y63242D02*Y62430D01*
X130531Y62836D02*X131343D01*
X59309Y90039D02*Y89227D01*
X58903Y89633D02*X59715D01*
X54229Y90039D02*Y89227D01*
X53823Y89633D02*X54635D01*
X82804Y84705D02*Y83893D01*
X82398Y84299D02*X83210D01*
X77724Y84705D02*Y83893D01*
X77318Y84299D02*X78130D01*
X54229Y87753D02*Y86941D01*
X53823Y87347D02*X54635D01*
X49149Y87753D02*Y86941D01*
X48743Y87347D02*X49555D01*
X61849Y87499D02*Y86687D01*
X61443Y87093D02*X62255D01*
X66929Y87499D02*Y86687D01*
X66523Y87093D02*X67335D01*
X64389Y89785D02*Y88973D01*
X63983Y89379D02*X64795D01*
X69469Y89785D02*Y88973D01*
X69063Y89379D02*X69875D01*
X74168Y6727D02*Y5915D01*
X73762Y6321D02*X74574D01*
X74168Y14347D02*Y13535D01*
X73762Y13941D02*X74574D01*
X74422Y18157D02*Y17345D01*
X74016Y17751D02*X74828D01*
X74422Y25777D02*Y24965D01*
X74016Y25371D02*X74828D01*
X72517Y18157D02*Y17345D01*
X72111Y17751D02*X72923D01*
X72517Y25777D02*Y24965D01*
X72111Y25371D02*X72923D01*
X102743Y49018D02*Y48206D01*
X102337Y48612D02*X103149D01*
X102743Y56638D02*Y55826D01*
X102337Y56232D02*X103149D01*
X102997Y47621D02*Y46809D01*
X102591Y47215D02*X103403D01*
X102997Y40001D02*Y39189D01*
X102591Y39595D02*X103403D01*
X104648Y45843D02*Y45031D01*
X104242Y45437D02*X105054D01*
X104648Y53463D02*Y52651D01*
X104242Y53057D02*X105054D01*
X88265Y23618D02*Y22806D01*
X87859Y23212D02*X88671D01*
X88265Y15998D02*Y15186D01*
X87859Y15592D02*X88671D01*
X165481Y67433D02*Y66621D01*
X165075Y67027D02*X165887D01*
X165481Y75053D02*Y74241D01*
X165075Y74647D02*X165887D01*
X119380Y46097D02*Y45285D01*
X118974Y45691D02*X119786D01*
X119380Y38477D02*Y37665D01*
X118974Y38071D02*X119786D01*
X117983Y47240D02*Y46428D01*
X117577Y46834D02*X118389D01*
X117983Y54860D02*Y54048D01*
X117577Y54454D02*X118389D01*
X14097Y28190D02*Y27378D01*
X13691Y27784D02*X14503D01*
X21717Y28190D02*Y27378D01*
X21311Y27784D02*X22123D01*
X14097Y30730D02*Y29918D01*
X13691Y30324D02*X14503D01*
X21717Y30730D02*Y29918D01*
X21311Y30324D02*X22123D01*
X14097Y33270D02*Y32458D01*
X13691Y32864D02*X14503D01*
X21717Y33270D02*Y32458D01*
X21311Y32864D02*X22123D01*
X14097Y35810D02*Y34998D01*
X13691Y35404D02*X14503D01*
X21717Y35810D02*Y34998D01*
X21311Y35404D02*X22123D01*
X14097Y38350D02*Y37538D01*
X13691Y37944D02*X14503D01*
X21717Y38350D02*Y37538D01*
X21311Y37944D02*X22123D01*
X14097Y40890D02*Y40078D01*
X13691Y40484D02*X14503D01*
X21717Y40890D02*Y40078D01*
X21311Y40484D02*X22123D01*
X14097Y43430D02*Y42618D01*
X13691Y43024D02*X14503D01*
X21717Y43430D02*Y42618D01*
X21311Y43024D02*X22123D01*
X14097Y45970D02*Y45158D01*
X13691Y45564D02*X14503D01*
X21717Y45970D02*Y45158D01*
X21311Y45564D02*X22123D01*
X23241Y28190D02*Y27378D01*
X22835Y27784D02*X23647D01*
X30861Y28190D02*Y27378D01*
X30455Y27784D02*X31267D01*
X23241Y30222D02*Y29410D01*
X22835Y29816D02*X23647D01*
X30861Y30222D02*Y29410D01*
X30455Y29816D02*X31267D01*
X23368Y32254D02*Y31442D01*
X22962Y31848D02*X23774D01*
X30988Y32254D02*Y31442D01*
X30582Y31848D02*X31394D01*
X22987Y36064D02*Y35252D01*
X22581Y35658D02*X23393D01*
X30607Y36064D02*Y35252D01*
X30201Y35658D02*X31013D01*
X22987Y38350D02*Y37538D01*
X22581Y37944D02*X23393D01*
X30607Y38350D02*Y37538D01*
X30201Y37944D02*X31013D01*
X22987Y40890D02*Y40078D01*
X22581Y40484D02*X23393D01*
X30607Y40890D02*Y40078D01*
X30201Y40484D02*X31013D01*
X22987Y43430D02*Y42618D01*
X22581Y43024D02*X23393D01*
X30607Y43430D02*Y42618D01*
X30201Y43024D02*X31013D01*
X22987Y45970D02*Y45158D01*
X22581Y45564D02*X23393D01*
X30607Y45970D02*Y45158D01*
X30201Y45564D02*X31013D01*
X13589Y19808D02*Y18996D01*
X13183Y19402D02*X13995D01*
X18669Y19808D02*Y18996D01*
X18263Y19402D02*X19075D01*
X13589Y22856D02*Y22044D01*
X13183Y22450D02*X13995D01*
X18669Y22856D02*Y22044D01*
X18263Y22450D02*X19075D01*
X13589Y25396D02*Y24584D01*
X13183Y24990D02*X13995D01*
X18669Y25396D02*Y24584D01*
X18263Y24990D02*X19075D01*
X35941Y15236D02*Y14424D01*
X35535Y14830D02*X36347D01*
X30861Y15236D02*Y14424D01*
X30455Y14830D02*X31267D01*
X13589Y17268D02*Y16456D01*
X13183Y16862D02*X13995D01*
X18669Y17268D02*Y16456D01*
X18263Y16862D02*X19075D01*
X35941Y17776D02*Y16964D01*
X35535Y17370D02*X36347D01*
X30861Y17776D02*Y16964D01*
X30455Y17370D02*X31267D01*
X35941Y22856D02*Y22044D01*
X35535Y22450D02*X36347D01*
X30861Y22856D02*Y22044D01*
X30455Y22450D02*X31267D01*
X35941Y20316D02*Y19504D01*
X35535Y19910D02*X36347D01*
X30861Y20316D02*Y19504D01*
X30455Y19910D02*X31267D01*
X14605Y61972D02*Y61160D01*
X14199Y61566D02*X15011D01*
X22225Y61972D02*Y61160D01*
X21819Y61566D02*X22631D01*
X31369Y59432D02*Y58620D01*
X30963Y59026D02*X31775D01*
X23749Y59432D02*Y58620D01*
X23343Y59026D02*X24155D01*
X14478Y54479D02*Y53667D01*
X14072Y54073D02*X14884D01*
X22098Y54479D02*Y53667D01*
X21692Y54073D02*X22504D01*
X14351Y56892D02*Y56080D01*
X13945Y56486D02*X14757D01*
X21971Y56892D02*Y56080D01*
X21565Y56486D02*X22377D01*
X14605Y64512D02*Y63700D01*
X14199Y64106D02*X15011D01*
X22225Y64512D02*Y63700D01*
X21819Y64106D02*X22631D01*
X14605Y67052D02*Y66240D01*
X14199Y66646D02*X15011D01*
X22225Y67052D02*Y66240D01*
X21819Y66646D02*X22631D01*
X31369Y54479D02*Y53667D01*
X30963Y54073D02*X31775D01*
X23749Y54479D02*Y53667D01*
X23343Y54073D02*X24155D01*
X31242Y56892D02*Y56080D01*
X30836Y56486D02*X31648D01*
X23622Y56892D02*Y56080D01*
X23216Y56486D02*X24028D01*
X31623Y67052D02*Y66240D01*
X31217Y66646D02*X32029D01*
X24003Y67052D02*Y66240D01*
X23597Y66646D02*X24409D01*
X31623Y64512D02*Y63700D01*
X31217Y64106D02*X32029D01*
X24003Y64512D02*Y63700D01*
X23597Y64106D02*X24409D01*
X31623Y62226D02*Y61414D01*
X31217Y61820D02*X32029D01*
X24003Y62226D02*Y61414D01*
X23597Y61820D02*X24409D01*
X25400Y68957D02*Y68145D01*
X24994Y68551D02*X25806D01*
X25400Y74037D02*Y73225D01*
X24994Y73631D02*X25806D01*
X16002Y69084D02*Y68272D01*
X15596Y68678D02*X16408D01*
X16002Y74164D02*Y73352D01*
X15596Y73758D02*X16408D01*
X27940Y68957D02*Y68145D01*
X27534Y68551D02*X28346D01*
X27940Y74037D02*Y73225D01*
X27534Y73631D02*X28346D01*
X30480Y68957D02*Y68145D01*
X30074Y68551D02*X30886D01*
X30480Y74037D02*Y73225D01*
X30074Y73631D02*X30886D01*
X19812Y69084D02*Y68272D01*
X19406Y68678D02*X20218D01*
X19812Y74164D02*Y73352D01*
X19406Y73758D02*X20218D01*
X17907Y69084D02*Y68272D01*
X17501Y68678D02*X18313D01*
X17907Y74164D02*Y73352D01*
X17501Y73758D02*X18313D01*
X14605Y59432D02*Y58620D01*
X14199Y59026D02*X15011D01*
X22225Y59432D02*Y58620D01*
X21819Y59026D02*X22631D01*
X132461Y39366D02*Y38554D01*
X132055Y38960D02*X132867D01*
X132461Y46986D02*Y46174D01*
X132055Y46580D02*X132867D01*
X43942Y64004D02*Y63192D01*
X43536Y63598D02*X44348D01*
X43942Y56384D02*Y55572D01*
X43536Y55978D02*X44348D01*
X43942Y73656D02*Y72844D01*
X43536Y73250D02*X44348D01*
X43942Y66036D02*Y65224D01*
X43536Y65630D02*X44348D01*
X3810Y134934D02*Y134121D01*
X3404Y134528D02*X4216D01*
X34290Y135099D02*Y134909D01*
X34671Y134528D01*
X35052Y134909D01*
Y135099D02*Y134909D01*
X34671Y134528D02*Y133575D01*
X35509Y134337D02*X36081D01*
X35509Y133575D02*X36271D01*
X35509Y135099D02*Y133575D01*
Y135099D02*X36271D01*
X37490D02*X37681Y134909D01*
X36919Y135099D02*X37490D01*
X36728Y134909D02*X36919Y135099D01*
X36728Y134909D02*Y134528D01*
X36919Y134337D01*
X37490D01*
X37681Y134147D01*
Y133766D01*
X37490Y133575D02*X37681Y133766D01*
X36919Y133575D02*X37490D01*
X36728Y133766D02*X36919Y133575D01*
X25083D02*X25464D01*
X25273Y135099D02*Y133575D01*
X24892Y134718D02*X25273Y135099D01*
X25921D02*X26683D01*
X25921D02*Y134337D01*
X26111Y134528D01*
X26492D01*
X26683Y134337D01*
Y133766D01*
X26492Y133575D02*X26683Y133766D01*
X26111Y133575D02*X26492D01*
X25921Y133766D02*X26111Y133575D01*
X27140Y134909D02*X27330Y135099D01*
X27902D01*
X28092Y134909D01*
Y134528D01*
X27140Y133575D02*X28092Y134528D01*
X27140Y133575D02*X28092D01*
X11430Y133766D02*X11621Y133575D01*
X11430Y134909D02*Y133766D01*
Y134909D02*X11621Y135099D01*
X12002D01*
X12192Y134909D01*
Y133766D01*
X12002Y133575D02*X12192Y133766D01*
X11621Y133575D02*X12002D01*
X11430Y133956D02*X12192Y134718D01*
X12649Y133575D02*X12840D01*
X13297Y133766D02*X13487Y133575D01*
X13297Y134909D02*Y133766D01*
Y134909D02*X13487Y135099D01*
X13868D01*
X14059Y134909D01*
Y133766D01*
X13868Y133575D02*X14059Y133766D01*
X13487Y133575D02*X13868D01*
X13297Y133956D02*X14059Y134718D01*
X14516Y134909D02*X14707Y135099D01*
X15088D01*
X15278Y134909D01*
Y133766D01*
X15088Y133575D02*X15278Y133766D01*
X14707Y133575D02*X15088D01*
X14516Y133766D02*X14707Y133575D01*
Y134337D02*X15278D01*
X15926Y133575D02*X16307D01*
X16116Y135099D02*Y133575D01*
X15735Y134718D02*X16116Y135099D01*
X150094Y32333D02*Y31927D01*
Y32333D02*X150446Y32537D01*
X150094Y32333D02*X149742Y32537D01*
X147554Y32333D02*Y31927D01*
Y32333D02*X147906Y32537D01*
X147554Y32333D02*X147202Y32537D01*
X145014Y32333D02*Y31927D01*
Y32333D02*X145366Y32537D01*
X145014Y32333D02*X144662Y32537D01*
X145014Y24713D02*Y24307D01*
Y24713D02*X145366Y24917D01*
X145014Y24713D02*X144662Y24917D01*
X147554Y24713D02*Y24307D01*
Y24713D02*X147906Y24917D01*
X147554Y24713D02*X147202Y24917D01*
X150094Y24713D02*Y24307D01*
Y24713D02*X150446Y24917D01*
X150094Y24713D02*X149742Y24917D01*
X153924Y39214D02*Y38808D01*
Y39214D02*X154276Y39417D01*
X153924Y39214D02*X153572Y39417D01*
X153924Y36674D02*Y36268D01*
Y36674D02*X154276Y36877D01*
X153924Y36674D02*X153572Y36877D01*
X153924Y34134D02*Y33728D01*
Y34134D02*X154276Y34337D01*
X153924Y34134D02*X153572Y34337D01*
X153924Y31594D02*Y31188D01*
Y31594D02*X154276Y31797D01*
X153924Y31594D02*X153572Y31797D01*
X161544Y31594D02*Y31188D01*
Y31594D02*X161896Y31797D01*
X161544Y31594D02*X161192Y31797D01*
X161544Y34134D02*Y33728D01*
Y34134D02*X161896Y34337D01*
X161544Y34134D02*X161192Y34337D01*
X161544Y36674D02*Y36268D01*
Y36674D02*X161896Y36877D01*
X161544Y36674D02*X161192Y36877D01*
X161544Y39214D02*Y38808D01*
Y39214D02*X161896Y39417D01*
X161544Y39214D02*X161192Y39417D01*
X153924Y49374D02*Y48968D01*
Y49374D02*X154276Y49577D01*
X153924Y49374D02*X153572Y49577D01*
X153924Y46834D02*Y46428D01*
Y46834D02*X154276Y47037D01*
X153924Y46834D02*X153572Y47037D01*
X153924Y44294D02*Y43888D01*
Y44294D02*X154276Y44497D01*
X153924Y44294D02*X153572Y44497D01*
X153924Y41754D02*Y41348D01*
Y41754D02*X154276Y41957D01*
X153924Y41754D02*X153572Y41957D01*
X161544Y41754D02*Y41348D01*
Y41754D02*X161896Y41957D01*
X161544Y41754D02*X161192Y41957D01*
X161544Y44294D02*Y43888D01*
Y44294D02*X161896Y44497D01*
X161544Y44294D02*X161192Y44497D01*
X161544Y46834D02*Y46428D01*
Y46834D02*X161896Y47037D01*
X161544Y46834D02*X161192Y47037D01*
X161544Y49374D02*Y48968D01*
Y49374D02*X161896Y49577D01*
X161544Y49374D02*X161192Y49577D01*
X153924Y59788D02*Y59382D01*
Y59788D02*X154276Y59991D01*
X153924Y59788D02*X153572Y59991D01*
X153924Y57248D02*Y56842D01*
Y57248D02*X154276Y57451D01*
X153924Y57248D02*X153572Y57451D01*
X153924Y54708D02*Y54302D01*
Y54708D02*X154276Y54911D01*
X153924Y54708D02*X153572Y54911D01*
X153924Y52168D02*Y51762D01*
Y52168D02*X154276Y52371D01*
X153924Y52168D02*X153572Y52371D01*
X161544Y52168D02*Y51762D01*
Y52168D02*X161896Y52371D01*
X161544Y52168D02*X161192Y52371D01*
X161544Y54708D02*Y54302D01*
Y54708D02*X161896Y54911D01*
X161544Y54708D02*X161192Y54911D01*
X161544Y57248D02*Y56842D01*
Y57248D02*X161896Y57451D01*
X161544Y57248D02*X161192Y57451D01*
X161544Y59788D02*Y59382D01*
Y59788D02*X161896Y59991D01*
X161544Y59788D02*X161192Y59991D01*
X110236Y32229D02*Y31823D01*
Y32229D02*X110588Y32432D01*
X110236Y32229D02*X109884Y32432D01*
X107696Y32229D02*Y31823D01*
Y32229D02*X108048Y32432D01*
X107696Y32229D02*X107344Y32432D01*
X105156Y32229D02*Y31823D01*
Y32229D02*X105508Y32432D01*
X105156Y32229D02*X104804Y32432D01*
X105156Y24609D02*Y24203D01*
Y24609D02*X105508Y24812D01*
X105156Y24609D02*X104804Y24812D01*
X107696Y24609D02*Y24203D01*
Y24609D02*X108048Y24812D01*
X107696Y24609D02*X107344Y24812D01*
X110236Y24609D02*Y24203D01*
Y24609D02*X110588Y24812D01*
X110236Y24609D02*X109884Y24812D01*
X120269Y32356D02*Y31950D01*
Y32356D02*X120621Y32559D01*
X120269Y32356D02*X119917Y32559D01*
X117729Y32356D02*Y31950D01*
Y32356D02*X118081Y32559D01*
X117729Y32356D02*X117377Y32559D01*
X115189Y32356D02*Y31950D01*
Y32356D02*X115541Y32559D01*
X115189Y32356D02*X114837Y32559D01*
X115189Y24736D02*Y24330D01*
Y24736D02*X115541Y24939D01*
X115189Y24736D02*X114837Y24939D01*
X117729Y24736D02*Y24330D01*
Y24736D02*X118081Y24939D01*
X117729Y24736D02*X117377Y24939D01*
X120269Y24736D02*Y24330D01*
Y24736D02*X120621Y24939D01*
X120269Y24736D02*X119917Y24939D01*
X129794Y32356D02*Y31950D01*
Y32356D02*X130146Y32559D01*
X129794Y32356D02*X129442Y32559D01*
X127254Y32356D02*Y31950D01*
Y32356D02*X127606Y32559D01*
X127254Y32356D02*X126902Y32559D01*
X124714Y32356D02*Y31950D01*
Y32356D02*X125066Y32559D01*
X124714Y32356D02*X124362Y32559D01*
X124714Y24736D02*Y24330D01*
Y24736D02*X125066Y24939D01*
X124714Y24736D02*X124362Y24939D01*
X127254Y24736D02*Y24330D01*
Y24736D02*X127606Y24939D01*
X127254Y24736D02*X126902Y24939D01*
X129794Y24736D02*Y24330D01*
Y24736D02*X130146Y24939D01*
X129794Y24736D02*X129442Y24939D01*
X139954Y32356D02*Y31950D01*
Y32356D02*X140306Y32559D01*
X139954Y32356D02*X139602Y32559D01*
X137414Y32356D02*Y31950D01*
Y32356D02*X137766Y32559D01*
X137414Y32356D02*X137062Y32559D01*
X134874Y32356D02*Y31950D01*
Y32356D02*X135226Y32559D01*
X134874Y32356D02*X134522Y32559D01*
X134874Y24736D02*Y24330D01*
Y24736D02*X135226Y24939D01*
X134874Y24736D02*X134522Y24939D01*
X137414Y24736D02*Y24330D01*
Y24736D02*X137766Y24939D01*
X137414Y24736D02*X137062Y24939D01*
X139954Y24736D02*Y24330D01*
Y24736D02*X140306Y24939D01*
X139954Y24736D02*X139602Y24939D01*
X124460Y64868D02*Y64462D01*
Y64868D02*X124812Y65071D01*
X124460Y64868D02*X124108Y65071D01*
X121920Y64868D02*Y64462D01*
Y64868D02*X122272Y65071D01*
X121920Y64868D02*X121568Y65071D01*
X119380Y64868D02*Y64462D01*
Y64868D02*X119732Y65071D01*
X119380Y64868D02*X119028Y65071D01*
X116840Y64868D02*Y64462D01*
Y64868D02*X117192Y65071D01*
X116840Y64868D02*X116488Y65071D01*
X114300Y64868D02*Y64462D01*
Y64868D02*X114652Y65071D01*
X114300Y64868D02*X113948Y65071D01*
X111760Y64868D02*Y64462D01*
Y64868D02*X112112Y65071D01*
X111760Y64868D02*X111408Y65071D01*
X109220Y64868D02*Y64462D01*
Y64868D02*X109572Y65071D01*
X109220Y64868D02*X108868Y65071D01*
X106680Y64868D02*Y64462D01*
Y64868D02*X107032Y65071D01*
X106680Y64868D02*X106328Y65071D01*
X106680Y57248D02*Y56842D01*
Y57248D02*X107032Y57451D01*
X106680Y57248D02*X106328Y57451D01*
X109220Y57248D02*Y56842D01*
Y57248D02*X109572Y57451D01*
X109220Y57248D02*X108868Y57451D01*
X111760Y57248D02*Y56842D01*
Y57248D02*X112112Y57451D01*
X111760Y57248D02*X111408Y57451D01*
X114300Y57248D02*Y56842D01*
Y57248D02*X114652Y57451D01*
X114300Y57248D02*X113948Y57451D01*
X116840Y57248D02*Y56842D01*
Y57248D02*X117192Y57451D01*
X116840Y57248D02*X116488Y57451D01*
X119380Y57248D02*Y56842D01*
Y57248D02*X119732Y57451D01*
X119380Y57248D02*X119028Y57451D01*
X121920Y57248D02*Y56842D01*
Y57248D02*X122272Y57451D01*
X121920Y57248D02*X121568Y57451D01*
X124460Y57248D02*Y56842D01*
Y57248D02*X124812Y57451D01*
X124460Y57248D02*X124108Y57451D01*
X66802Y84680D02*Y84274D01*
Y84680D02*X67154Y84883D01*
X66802Y84680D02*X66450Y84883D01*
X64262Y84680D02*Y84274D01*
Y84680D02*X64614Y84883D01*
X64262Y84680D02*X63910Y84883D01*
X61722Y84680D02*Y84274D01*
Y84680D02*X62074Y84883D01*
X61722Y84680D02*X61370Y84883D01*
X59182Y84680D02*Y84274D01*
Y84680D02*X59534Y84883D01*
X59182Y84680D02*X58830Y84883D01*
X56642Y84680D02*Y84274D01*
Y84680D02*X56994Y84883D01*
X56642Y84680D02*X56290Y84883D01*
X54102Y84680D02*Y84274D01*
Y84680D02*X54454Y84883D01*
X54102Y84680D02*X53750Y84883D01*
X51562Y84680D02*Y84274D01*
Y84680D02*X51914Y84883D01*
X51562Y84680D02*X51210Y84883D01*
X49022Y84680D02*Y84274D01*
Y84680D02*X49374Y84883D01*
X49022Y84680D02*X48670Y84883D01*
X49022Y77060D02*Y76654D01*
Y77060D02*X49374Y77263D01*
X49022Y77060D02*X48670Y77263D01*
X51562Y77060D02*Y76654D01*
Y77060D02*X51914Y77263D01*
X51562Y77060D02*X51210Y77263D01*
X54102Y77060D02*Y76654D01*
Y77060D02*X54454Y77263D01*
X54102Y77060D02*X53750Y77263D01*
X56642Y77060D02*Y76654D01*
Y77060D02*X56994Y77263D01*
X56642Y77060D02*X56290Y77263D01*
X59182Y77060D02*Y76654D01*
Y77060D02*X59534Y77263D01*
X59182Y77060D02*X58830Y77263D01*
X61722Y77060D02*Y76654D01*
Y77060D02*X62074Y77263D01*
X61722Y77060D02*X61370Y77263D01*
X64262Y77060D02*Y76654D01*
Y77060D02*X64614Y77263D01*
X64262Y77060D02*X63910Y77263D01*
X66802Y77060D02*Y76654D01*
Y77060D02*X67154Y77263D01*
X66802Y77060D02*X66450Y77263D01*
X153924Y29054D02*Y28648D01*
Y29054D02*X154276Y29257D01*
X153924Y29054D02*X153572Y29257D01*
X153924Y26514D02*Y26108D01*
Y26514D02*X154276Y26717D01*
X153924Y26514D02*X153572Y26717D01*
X153924Y23974D02*Y23568D01*
Y23974D02*X154276Y24177D01*
X153924Y23974D02*X153572Y24177D01*
X153924Y21434D02*Y21028D01*
Y21434D02*X154276Y21637D01*
X153924Y21434D02*X153572Y21637D01*
X161544Y21434D02*Y21028D01*
Y21434D02*X161896Y21637D01*
X161544Y21434D02*X161192Y21637D01*
X161544Y23974D02*Y23568D01*
Y23974D02*X161896Y24177D01*
X161544Y23974D02*X161192Y24177D01*
X161544Y26514D02*Y26108D01*
Y26514D02*X161896Y26717D01*
X161544Y26514D02*X161192Y26717D01*
X161544Y29054D02*Y28648D01*
Y29054D02*X161896Y29257D01*
X161544Y29054D02*X161192Y29257D01*
X106807Y53311D02*Y52905D01*
Y53311D02*X107159Y53514D01*
X106807Y53311D02*X106455Y53514D01*
X106807Y50771D02*Y50365D01*
Y50771D02*X107159Y50974D01*
X106807Y50771D02*X106455Y50974D01*
X106807Y48231D02*Y47825D01*
Y48231D02*X107159Y48434D01*
X106807Y48231D02*X106455Y48434D01*
X106807Y45691D02*Y45285D01*
Y45691D02*X107159Y45894D01*
X106807Y45691D02*X106455Y45894D01*
X106807Y43151D02*Y42745D01*
Y43151D02*X107159Y43354D01*
X106807Y43151D02*X106455Y43354D01*
X106807Y40611D02*Y40205D01*
Y40611D02*X107159Y40814D01*
X106807Y40611D02*X106455Y40814D01*
X106807Y38071D02*Y37665D01*
Y38071D02*X107159Y38274D01*
X106807Y38071D02*X106455Y38274D01*
X114427Y38071D02*Y37665D01*
Y38071D02*X114779Y38274D01*
X114427Y38071D02*X114075Y38274D01*
X114427Y40611D02*Y40205D01*
Y40611D02*X114779Y40814D01*
X114427Y40611D02*X114075Y40814D01*
X114427Y43151D02*Y42745D01*
Y43151D02*X114779Y43354D01*
X114427Y43151D02*X114075Y43354D01*
X114427Y45691D02*Y45285D01*
Y45691D02*X114779Y45894D01*
X114427Y45691D02*X114075Y45894D01*
X114427Y48231D02*Y47825D01*
Y48231D02*X114779Y48434D01*
X114427Y48231D02*X114075Y48434D01*
X114427Y50771D02*Y50365D01*
Y50771D02*X114779Y50974D01*
X114427Y50771D02*X114075Y50974D01*
X114427Y53311D02*Y52905D01*
Y53311D02*X114779Y53514D01*
X114427Y53311D02*X114075Y53514D01*
X136525Y54200D02*Y53794D01*
Y54200D02*X136877Y54403D01*
X136525Y54200D02*X136173Y54403D01*
X139065Y54200D02*Y53794D01*
Y54200D02*X139417Y54403D01*
X139065Y54200D02*X138713Y54403D01*
X141605Y54200D02*Y53794D01*
Y54200D02*X141957Y54403D01*
X141605Y54200D02*X141253Y54403D01*
X144145Y54200D02*Y53794D01*
Y54200D02*X144497Y54403D01*
X144145Y54200D02*X143793Y54403D01*
X146685Y54200D02*Y53794D01*
Y54200D02*X147037Y54403D01*
X146685Y54200D02*X146333Y54403D01*
X136906Y61947D02*Y61541D01*
Y61947D02*X137258Y62150D01*
X136906Y61947D02*X136554Y62150D01*
X139446Y61947D02*Y61541D01*
Y61947D02*X139798Y62150D01*
X139446Y61947D02*X139094Y62150D01*
X141986Y61947D02*Y61541D01*
Y61947D02*X142338Y62150D01*
X141986Y61947D02*X141634Y62150D01*
X144526Y61947D02*Y61541D01*
Y61947D02*X144878Y62150D01*
X144526Y61947D02*X144174Y62150D01*
X147066Y61947D02*Y61541D01*
Y61947D02*X147418Y62150D01*
X147066Y61947D02*X146714Y62150D01*
X133604Y59534D02*Y59128D01*
Y59534D02*X133956Y59737D01*
X133604Y59534D02*X133252Y59737D01*
X133604Y56994D02*Y56588D01*
Y56994D02*X133956Y57197D01*
X133604Y56994D02*X133252Y57197D01*
X133604Y54454D02*Y54048D01*
Y54454D02*X133956Y54657D01*
X133604Y54454D02*X133252Y54657D01*
X133604Y51914D02*Y51508D01*
Y51914D02*X133956Y52117D01*
X133604Y51914D02*X133252Y52117D01*
X133604Y49374D02*Y48968D01*
Y49374D02*X133956Y49577D01*
X133604Y49374D02*X133252Y49577D01*
X150749Y60042D02*Y59636D01*
Y60042D02*X151101Y60245D01*
X150749Y60042D02*X150397Y60245D01*
X150749Y62582D02*Y62176D01*
Y62582D02*X151101Y62785D01*
X150749Y62582D02*X150397Y62785D01*
X152984Y90725D02*Y90319D01*
Y90725D02*X153336Y90928D01*
X152984Y90725D02*X152632Y90928D01*
X155473Y90725D02*Y90319D01*
Y90725D02*X155826Y90928D01*
X155473Y90725D02*X155121Y90928D01*
X155473Y88744D02*Y88338D01*
Y88744D02*X155826Y88947D01*
X155473Y88744D02*X155121Y88947D01*
X152984Y88744D02*Y88338D01*
Y88744D02*X153336Y88947D01*
X152984Y88744D02*X152632Y88947D01*
X161735Y67853D02*Y67446D01*
Y67853D02*X162087Y68056D01*
X161735Y67853D02*X161382Y68056D01*
X159195Y67853D02*Y67446D01*
Y67853D02*X159547Y68056D01*
X159195Y67853D02*X158842Y68056D01*
X156655Y67853D02*Y67446D01*
Y67853D02*X157007Y68056D01*
X156655Y67853D02*X156302Y68056D01*
X151448Y67853D02*Y67446D01*
Y67853D02*X151800Y68056D01*
X151448Y67853D02*X151095Y68056D01*
X148908Y67853D02*Y67446D01*
Y67853D02*X149260Y68056D01*
X148908Y67853D02*X148555Y68056D01*
X146368Y67853D02*Y67446D01*
Y67853D02*X146720Y68056D01*
X146368Y67853D02*X146015Y68056D01*
X143828Y67853D02*Y67446D01*
Y67853D02*X144180Y68056D01*
X143828Y67853D02*X143475Y68056D01*
X77089Y23339D02*Y22933D01*
Y23339D02*X77441Y23542D01*
X77089Y23339D02*X76737Y23542D01*
X77089Y20799D02*Y20393D01*
Y20799D02*X77441Y21002D01*
X77089Y20799D02*X76737Y21002D01*
X77089Y18259D02*Y17853D01*
Y18259D02*X77441Y18462D01*
X77089Y18259D02*X76737Y18462D01*
X77089Y15719D02*Y15313D01*
Y15719D02*X77441Y15922D01*
X77089Y15719D02*X76737Y15922D01*
X77089Y13179D02*Y12773D01*
Y13179D02*X77441Y13382D01*
X77089Y13179D02*X76737Y13382D01*
X77089Y10639D02*Y10233D01*
Y10639D02*X77441Y10842D01*
X77089Y10639D02*X76737Y10842D01*
X77089Y8099D02*Y7693D01*
Y8099D02*X77441Y8302D01*
X77089Y8099D02*X76737Y8302D01*
X77089Y5559D02*Y5153D01*
Y5559D02*X77441Y5762D01*
X77089Y5559D02*X76737Y5762D01*
X84709Y5559D02*Y5153D01*
Y5559D02*X85061Y5762D01*
X84709Y5559D02*X84357Y5762D01*
X84709Y8099D02*Y7693D01*
Y8099D02*X85061Y8302D01*
X84709Y8099D02*X84357Y8302D01*
X84709Y10639D02*Y10233D01*
Y10639D02*X85061Y10842D01*
X84709Y10639D02*X84357Y10842D01*
X84709Y13179D02*Y12773D01*
Y13179D02*X85061Y13382D01*
X84709Y13179D02*X84357Y13382D01*
X84709Y15719D02*Y15313D01*
Y15719D02*X85061Y15922D01*
X84709Y15719D02*X84357Y15922D01*
X84709Y18259D02*Y17853D01*
Y18259D02*X85061Y18462D01*
X84709Y18259D02*X84357Y18462D01*
X84709Y20799D02*Y20393D01*
Y20799D02*X85061Y21002D01*
X84709Y20799D02*X84357Y21002D01*
X84709Y23339D02*Y22933D01*
Y23339D02*X85061Y23542D01*
X84709Y23339D02*X84357Y23542D01*
X134239Y66519D02*Y66113D01*
Y66519D02*X134591Y66722D01*
X134239Y66519D02*X133887Y66722D01*
X134239Y69059D02*Y68653D01*
Y69059D02*X134591Y69262D01*
X134239Y69059D02*X133887Y69262D01*
X134239Y74139D02*Y73733D01*
Y74139D02*X134591Y74342D01*
X134239Y74139D02*X133887Y74342D01*
X134239Y76679D02*Y76273D01*
Y76679D02*X134591Y76882D01*
X134239Y76679D02*X133887Y76882D01*
X134239Y79219D02*Y78813D01*
Y79219D02*X134591Y79422D01*
X134239Y79219D02*X133887Y79422D01*
X117348Y48358D02*Y47952D01*
Y48358D02*X117700Y48561D01*
X117348Y48358D02*X116996Y48561D01*
X117348Y40738D02*Y40332D01*
Y40738D02*X117700Y40941D01*
X117348Y40738D02*X116996Y40941D01*
X121412Y53692D02*Y53286D01*
Y53692D02*X121764Y53895D01*
X121412Y53692D02*X121060Y53895D01*
X121412Y51152D02*Y50746D01*
Y51152D02*X121764Y51355D01*
X121412Y51152D02*X121060Y51355D01*
X121412Y48612D02*Y48206D01*
Y48612D02*X121764Y48815D01*
X121412Y48612D02*X121060Y48815D01*
X121412Y46072D02*Y45666D01*
Y46072D02*X121764Y46275D01*
X121412Y46072D02*X121060Y46275D01*
X121412Y43532D02*Y43126D01*
Y43532D02*X121764Y43735D01*
X121412Y43532D02*X121060Y43735D01*
X121412Y40992D02*Y40586D01*
Y40992D02*X121764Y41195D01*
X121412Y40992D02*X121060Y41195D01*
X121412Y38452D02*Y38046D01*
Y38452D02*X121764Y38655D01*
X121412Y38452D02*X121060Y38655D01*
X129032Y38452D02*Y38046D01*
Y38452D02*X129384Y38655D01*
X129032Y38452D02*X128680Y38655D01*
X129032Y40992D02*Y40586D01*
Y40992D02*X129384Y41195D01*
X129032Y40992D02*X128680Y41195D01*
X129032Y43532D02*Y43126D01*
Y43532D02*X129384Y43735D01*
X129032Y43532D02*X128680Y43735D01*
X129032Y46072D02*Y45666D01*
Y46072D02*X129384Y46275D01*
X129032Y46072D02*X128680Y46275D01*
X129032Y48612D02*Y48206D01*
Y48612D02*X129384Y48815D01*
X129032Y48612D02*X128680Y48815D01*
X129032Y51152D02*Y50746D01*
Y51152D02*X129384Y51355D01*
X129032Y51152D02*X128680Y51355D01*
X129032Y53692D02*Y53286D01*
Y53692D02*X129384Y53895D01*
X129032Y53692D02*X128680Y53895D01*
X66802Y73885D02*Y73479D01*
Y73885D02*X67154Y74088D01*
X66802Y73885D02*X66450Y74088D01*
X64262Y73885D02*Y73479D01*
Y73885D02*X64614Y74088D01*
X64262Y73885D02*X63910Y74088D01*
X61722Y73885D02*Y73479D01*
Y73885D02*X62074Y74088D01*
X61722Y73885D02*X61370Y74088D01*
X59182Y73885D02*Y73479D01*
Y73885D02*X59534Y74088D01*
X59182Y73885D02*X58830Y74088D01*
X56642Y73885D02*Y73479D01*
Y73885D02*X56994Y74088D01*
X56642Y73885D02*X56290Y74088D01*
X54102Y73885D02*Y73479D01*
Y73885D02*X54454Y74088D01*
X54102Y73885D02*X53750Y74088D01*
X51562Y73885D02*Y73479D01*
Y73885D02*X51914Y74088D01*
X51562Y73885D02*X51210Y74088D01*
X51562Y66265D02*Y65859D01*
Y66265D02*X51914Y66468D01*
X51562Y66265D02*X51210Y66468D01*
X54102Y66265D02*Y65859D01*
Y66265D02*X54454Y66468D01*
X54102Y66265D02*X53750Y66468D01*
X56642Y66265D02*Y65859D01*
Y66265D02*X56994Y66468D01*
X56642Y66265D02*X56290Y66468D01*
X59182Y66265D02*Y65859D01*
Y66265D02*X59534Y66468D01*
X59182Y66265D02*X58830Y66468D01*
X61722Y66265D02*Y65859D01*
Y66265D02*X62074Y66468D01*
X61722Y66265D02*X61370Y66468D01*
X64262Y66265D02*Y65859D01*
Y66265D02*X64614Y66468D01*
X64262Y66265D02*X63910Y66468D01*
X66802Y66265D02*Y65859D01*
Y66265D02*X67154Y66468D01*
X66802Y66265D02*X66450Y66468D01*
X20701Y24990D02*Y24584D01*
Y24990D02*X21053Y25193D01*
X20701Y24990D02*X20349Y25193D01*
X20701Y22450D02*Y22044D01*
Y22450D02*X21053Y22653D01*
X20701Y22450D02*X20349Y22653D01*
X20701Y19910D02*Y19504D01*
Y19910D02*X21053Y20113D01*
X20701Y19910D02*X20349Y20113D01*
X20701Y17370D02*Y16964D01*
Y17370D02*X21053Y17573D01*
X20701Y17370D02*X20349Y17573D01*
X20701Y14830D02*Y14424D01*
Y14830D02*X21053Y15033D01*
X20701Y14830D02*X20349Y15033D01*
X20701Y12290D02*Y11884D01*
Y12290D02*X21053Y12493D01*
X20701Y12290D02*X20349Y12493D01*
X20701Y9750D02*Y9344D01*
Y9750D02*X21053Y9953D01*
X20701Y9750D02*X20349Y9953D01*
X20701Y7210D02*Y6804D01*
Y7210D02*X21053Y7413D01*
X20701Y7210D02*X20349Y7413D01*
X28321Y7210D02*Y6804D01*
Y7210D02*X28673Y7413D01*
X28321Y7210D02*X27969Y7413D01*
X28321Y9750D02*Y9344D01*
Y9750D02*X28673Y9953D01*
X28321Y9750D02*X27969Y9953D01*
X28321Y12290D02*Y11884D01*
Y12290D02*X28673Y12493D01*
X28321Y12290D02*X27969Y12493D01*
X28321Y14830D02*Y14424D01*
Y14830D02*X28673Y15033D01*
X28321Y14830D02*X27969Y15033D01*
X28321Y17370D02*Y16964D01*
Y17370D02*X28673Y17573D01*
X28321Y17370D02*X27969Y17573D01*
X28321Y19910D02*Y19504D01*
Y19910D02*X28673Y20113D01*
X28321Y19910D02*X27969Y20113D01*
X28321Y22450D02*Y22044D01*
Y22450D02*X28673Y22653D01*
X28321Y22450D02*X27969Y22653D01*
X28321Y24990D02*Y24584D01*
Y24990D02*X28673Y25193D01*
X28321Y24990D02*X27969Y25193D01*
X137922Y80616D02*Y80210D01*
Y80616D02*X138274Y80819D01*
X137922Y80616D02*X137570Y80819D01*
X138938Y82902D02*Y82496D01*
Y82902D02*X139290Y83105D01*
X138938Y82902D02*X138586Y83105D01*
X3810Y138338D02*Y137931D01*
Y138338D02*X4162Y138541D01*
X3810Y138338D02*X3458Y138541D01*
X34290Y138909D02*Y138719D01*
X34671Y138338D01*
X35052Y138719D01*
Y138909D02*Y138719D01*
X34671Y138338D02*Y137385D01*
X35509Y138147D02*X36081D01*
X35509Y137385D02*X36271D01*
X35509Y138909D02*Y137385D01*
Y138909D02*X36271D01*
X37490D02*X37681Y138719D01*
X36919Y138909D02*X37490D01*
X36728Y138719D02*X36919Y138909D01*
X36728Y138719D02*Y138338D01*
X36919Y138147D01*
X37490D01*
X37681Y137957D01*
Y137576D01*
X37490Y137385D02*X37681Y137576D01*
X36919Y137385D02*X37490D01*
X36728Y137576D02*X36919Y137385D01*
X24892Y138719D02*X25083Y138909D01*
X25654D01*
X25845Y138719D01*
Y138338D01*
X24892Y137385D02*X25845Y138338D01*
X24892Y137385D02*X25845D01*
X26302Y137576D02*X26492Y137385D01*
X26302Y138719D02*Y137576D01*
Y138719D02*X26492Y138909D01*
X26873D01*
X27064Y138719D01*
Y137576D01*
X26873Y137385D02*X27064Y137576D01*
X26492Y137385D02*X26873D01*
X26302Y137766D02*X27064Y138528D01*
X27521Y138909D02*X28283D01*
X27521D02*Y138147D01*
X27711Y138338D01*
X28092D01*
X28283Y138147D01*
Y137576D01*
X28092Y137385D02*X28283Y137576D01*
X27711Y137385D02*X28092D01*
X27521Y137576D02*X27711Y137385D01*
X11430Y137576D02*X11621Y137385D01*
X11430Y138719D02*Y137576D01*
Y138719D02*X11621Y138909D01*
X12002D01*
X12192Y138719D01*
Y137576D01*
X12002Y137385D02*X12192Y137576D01*
X11621Y137385D02*X12002D01*
X11430Y137766D02*X12192Y138528D01*
X12649Y137385D02*X12840D01*
X13297Y137576D02*X13487Y137385D01*
X13297Y138719D02*Y137576D01*
Y138719D02*X13487Y138909D01*
X13868D01*
X14059Y138719D01*
Y137576D01*
X13868Y137385D02*X14059Y137576D01*
X13487Y137385D02*X13868D01*
X13297Y137766D02*X14059Y138528D01*
X14516Y138719D02*X14707Y138909D01*
X15278D01*
X15469Y138719D01*
Y138338D01*
X14516Y137385D02*X15469Y138338D01*
X14516Y137385D02*X15469D01*
X15926Y137576D02*X16116Y137385D01*
X15926Y137957D02*Y137576D01*
Y137957D02*X16116Y138147D01*
X16497D01*
X16688Y137957D01*
Y137576D01*
X16497Y137385D02*X16688Y137576D01*
X16116Y137385D02*X16497D01*
X15926Y138338D02*X16116Y138147D01*
X15926Y138719D02*Y138338D01*
Y138719D02*X16116Y138909D01*
X16497D01*
X16688Y138719D01*
Y138338D01*
X16497Y138147D02*X16688Y138338D01*
X762Y142719D02*X953Y142529D01*
X191Y142719D02*X762D01*
X0Y142529D02*X191Y142719D01*
X0Y142529D02*Y142148D01*
X191Y141957D01*
X762D01*
X953Y141767D01*
Y141386D01*
X762Y141195D02*X953Y141386D01*
X191Y141195D02*X762D01*
X0Y141386D02*X191Y141195D01*
X1410Y141957D02*Y141386D01*
X1600Y141195D01*
X2172Y141957D02*Y140814D01*
X1981Y140624D02*X2172Y140814D01*
X1600Y140624D02*X1981D01*
X1410Y140814D02*X1600Y140624D01*
Y141195D02*X1981D01*
X2172Y141386D01*
X2819Y141767D02*Y141195D01*
Y141767D02*X3010Y141957D01*
X3200D01*
X3391Y141767D01*
Y141195D01*
Y141767D02*X3581Y141957D01*
X3772D01*
X3962Y141767D01*
Y141195D01*
X2629Y141957D02*X2819Y141767D01*
X4420Y142719D02*Y141195D01*
Y141386D02*X4610Y141195D01*
X4991D01*
X5182Y141386D01*
Y141767D02*Y141386D01*
X4991Y141957D02*X5182Y141767D01*
X4610Y141957D02*X4991D01*
X4420Y141767D02*X4610Y141957D01*
X5639Y141767D02*Y141386D01*
Y141767D02*X5829Y141957D01*
X6210D01*
X6401Y141767D01*
Y141386D01*
X6210Y141195D02*X6401Y141386D01*
X5829Y141195D02*X6210D01*
X5639Y141386D02*X5829Y141195D01*
X6858Y142719D02*Y141386D01*
X7049Y141195D01*
X0Y140369D02*X7430D01*
X10605Y142719D02*Y141195D01*
X11176Y142719D02*X11367Y142529D01*
Y141386D01*
X11176Y141195D02*X11367Y141386D01*
X10414Y141195D02*X11176D01*
X10414Y142719D02*X11176D01*
X11824Y142338D02*Y142148D01*
Y141767D02*Y141195D01*
X12776Y141957D02*X12967Y141767D01*
X12395Y141957D02*X12776D01*
X12205Y141767D02*X12395Y141957D01*
X12205Y141767D02*Y141386D01*
X12395Y141195D01*
X12967Y141957D02*Y141386D01*
X13157Y141195D01*
X12395D02*X12776D01*
X12967Y141386D01*
X13805Y141767D02*Y141195D01*
Y141767D02*X13995Y141957D01*
X14186D01*
X14376Y141767D01*
Y141195D01*
Y141767D02*X14567Y141957D01*
X14757D01*
X14948Y141767D01*
Y141195D01*
X13614Y141957D02*X13805Y141767D01*
X15405Y141195D02*X15596D01*
X16739Y141386D02*X16929Y141195D01*
X16739Y142529D02*X16929Y142719D01*
X16739Y142529D02*Y141386D01*
X17386Y142719D02*X17767D01*
X17577D02*Y141195D01*
X17386D02*X17767D01*
X18415Y141767D02*Y141195D01*
Y141767D02*X18606Y141957D01*
X18796D01*
X18987Y141767D01*
Y141195D01*
X18225Y141957D02*X18415Y141767D01*
X19634Y141957D02*X20206D01*
X19444Y141767D02*X19634Y141957D01*
X19444Y141767D02*Y141386D01*
X19634Y141195D01*
X20206D01*
X20663Y142719D02*Y141195D01*
Y141767D02*X20853Y141957D01*
X21234D01*
X21425Y141767D01*
Y141195D01*
X21882Y142719D02*X22073Y142529D01*
Y141386D01*
X21882Y141195D02*X22073Y141386D01*
X10414Y140369D02*X22530D01*
X24321Y141195D02*X24892D01*
X24130Y141386D02*X24321Y141195D01*
X24130Y142529D02*Y141386D01*
Y142529D02*X24321Y142719D01*
X24892D01*
X25349Y141767D02*Y141386D01*
Y141767D02*X25540Y141957D01*
X25921D01*
X26111Y141767D01*
Y141386D01*
X25921Y141195D02*X26111Y141386D01*
X25540Y141195D02*X25921D01*
X25349Y141386D02*X25540Y141195D01*
X26568Y141957D02*Y141386D01*
X26759Y141195D01*
X27140D01*
X27330Y141386D01*
Y141957D02*Y141386D01*
X27978Y141767D02*Y141195D01*
Y141767D02*X28169Y141957D01*
X28359D01*
X28550Y141767D01*
Y141195D01*
X27788Y141957D02*X27978Y141767D01*
X29197Y142719D02*Y141386D01*
X29388Y141195D01*
X29007Y142148D02*X29388D01*
X24130Y140369D02*X29769D01*
X33211Y142719D02*Y141195D01*
X33020Y142719D02*X33782D01*
X33973Y142529D01*
Y142148D01*
X33782Y141957D02*X33973Y142148D01*
X33211Y141957D02*X33782D01*
X34430Y142719D02*Y141386D01*
X34620Y141195D01*
X35573Y141957D02*X35763Y141767D01*
X35192Y141957D02*X35573D01*
X35001Y141767D02*X35192Y141957D01*
X35001Y141767D02*Y141386D01*
X35192Y141195D01*
X35763Y141957D02*Y141386D01*
X35954Y141195D01*
X35192D02*X35573D01*
X35763Y141386D01*
X36601Y142719D02*Y141386D01*
X36792Y141195D01*
X36411Y142148D02*X36792D01*
X37363Y141195D02*X37935D01*
X37173Y141386D02*X37363Y141195D01*
X37173Y141767D02*Y141386D01*
Y141767D02*X37363Y141957D01*
X37744D01*
X37935Y141767D01*
X37173Y141576D02*X37935D01*
Y141767D02*Y141576D01*
X39154Y142719D02*Y141195D01*
X38964D02*X39154Y141386D01*
X38583Y141195D02*X38964D01*
X38392Y141386D02*X38583Y141195D01*
X38392Y141767D02*Y141386D01*
Y141767D02*X38583Y141957D01*
X38964D01*
X39154Y141767D01*
X39992Y141957D02*Y141767D01*
Y141386D02*Y141195D01*
X39611Y142529D02*Y142338D01*
Y142529D02*X39802Y142719D01*
X40183D01*
X40373Y142529D01*
Y142338D01*
X39992Y141957D02*X40373Y142338D01*
X33020Y140369D02*X40831D01*
X0Y146529D02*X762D01*
X381D02*Y145005D01*
X1219Y146529D02*Y145005D01*
Y145577D02*X1410Y145767D01*
X1791D01*
X1981Y145577D01*
Y145005D01*
X2629D02*X3200D01*
X2438Y145196D02*X2629Y145005D01*
X2438Y145577D02*Y145196D01*
Y145577D02*X2629Y145767D01*
X3010D01*
X3200Y145577D01*
X2438Y145386D02*X3200D01*
Y145577D02*Y145386D01*
X3848Y145577D02*Y145005D01*
Y145577D02*X4039Y145767D01*
X4420D01*
X3658D02*X3848Y145577D01*
X5067Y145005D02*X5639D01*
X4877Y145196D02*X5067Y145005D01*
X4877Y145577D02*Y145196D01*
Y145577D02*X5067Y145767D01*
X5448D01*
X5639Y145577D01*
X4877Y145386D02*X5639D01*
Y145577D02*Y145386D01*
X7353Y145767D02*X7544Y145577D01*
X6972Y145767D02*X7353D01*
X6782Y145577D02*X6972Y145767D01*
X6782Y145577D02*Y145196D01*
X6972Y145005D01*
X7544Y145767D02*Y145196D01*
X7734Y145005D01*
X6972D02*X7353D01*
X7544Y145196D01*
X8382Y145577D02*Y145005D01*
Y145577D02*X8573Y145767D01*
X8954D01*
X8192D02*X8382Y145577D01*
X9601Y145005D02*X10173D01*
X9411Y145196D02*X9601Y145005D01*
X9411Y145577D02*Y145196D01*
Y145577D02*X9601Y145767D01*
X9982D01*
X10173Y145577D01*
X9411Y145386D02*X10173D01*
Y145577D02*Y145386D01*
X11316Y145005D02*X12078Y145767D01*
Y146339D02*Y145767D01*
X11887Y146529D02*X12078Y146339D01*
X11506Y146529D02*X11887D01*
X11316Y146339D02*X11506Y146529D01*
X11316Y146339D02*Y145958D01*
X11506Y145767D01*
X12078D01*
X13983Y146529D02*Y145005D01*
X13792D02*X13983Y145196D01*
X13411Y145005D02*X13792D01*
X13221Y145196D02*X13411Y145005D01*
X13221Y145577D02*Y145196D01*
Y145577D02*X13411Y145767D01*
X13792D01*
X13983Y145577D01*
X14440Y146148D02*Y145958D01*
Y145577D02*Y145005D01*
X15011Y146339D02*Y145005D01*
Y146339D02*X15202Y146529D01*
X15392D01*
X14821Y145767D02*X15202D01*
X15964Y146339D02*Y145005D01*
Y146339D02*X16154Y146529D01*
X16345D01*
X15773Y145767D02*X16154D01*
X16916Y145005D02*X17488D01*
X16726Y145196D02*X16916Y145005D01*
X16726Y145577D02*Y145196D01*
Y145577D02*X16916Y145767D01*
X17297D01*
X17488Y145577D01*
X16726Y145386D02*X17488D01*
Y145577D02*Y145386D01*
X18136Y145577D02*Y145005D01*
Y145577D02*X18326Y145767D01*
X18707D01*
X17945D02*X18136Y145577D01*
X19355Y145005D02*X19926D01*
X19164Y145196D02*X19355Y145005D01*
X19164Y145577D02*Y145196D01*
Y145577D02*X19355Y145767D01*
X19736D01*
X19926Y145577D01*
X19164Y145386D02*X19926D01*
Y145577D02*Y145386D01*
X20574Y145577D02*Y145005D01*
Y145577D02*X20765Y145767D01*
X20955D01*
X21146Y145577D01*
Y145005D01*
X20384Y145767D02*X20574Y145577D01*
X21793Y146529D02*Y145196D01*
X21984Y145005D01*
X21603Y145958D02*X21984D01*
X23813Y146529D02*Y145005D01*
X23622D02*X23813Y145196D01*
X23241Y145005D02*X23622D01*
X23051Y145196D02*X23241Y145005D01*
X23051Y145577D02*Y145196D01*
Y145577D02*X23241Y145767D01*
X23622D01*
X23813Y145577D01*
X24460D02*Y145005D01*
Y145577D02*X24651Y145767D01*
X25032D01*
X24270D02*X24460Y145577D01*
X25489Y146148D02*Y145958D01*
Y145577D02*Y145005D01*
X25870Y146529D02*Y145196D01*
X26060Y145005D01*
X26441Y146529D02*Y145196D01*
X26632Y145005D01*
X27889D02*X28461D01*
X28651Y145196D01*
X28461Y145386D02*X28651Y145196D01*
X27889Y145386D02*X28461D01*
X27699Y145577D02*X27889Y145386D01*
X27699Y145577D02*X27889Y145767D01*
X28461D01*
X28651Y145577D01*
X27699Y145196D02*X27889Y145005D01*
X29108Y146148D02*Y145958D01*
Y145577D02*Y145005D01*
X29489Y145767D02*X30251D01*
X29489Y145005D02*X30251Y145767D01*
X29489Y145005D02*X30251D01*
X30899D02*X31471D01*
X30709Y145196D02*X30899Y145005D01*
X30709Y145577D02*Y145196D01*
Y145577D02*X30899Y145767D01*
X31280D01*
X31471Y145577D01*
X30709Y145386D02*X31471D01*
Y145577D02*Y145386D01*
X32118Y145005D02*X32690D01*
X32880Y145196D01*
X32690Y145386D02*X32880Y145196D01*
X32118Y145386D02*X32690D01*
X31928Y145577D02*X32118Y145386D01*
X31928Y145577D02*X32118Y145767D01*
X32690D01*
X32880Y145577D01*
X31928Y145196D02*X32118Y145005D01*
X34023Y145767D02*Y145196D01*
X34214Y145005D01*
X34595D01*
X34785Y145196D01*
Y145767D02*Y145196D01*
X35433Y145005D02*X36005D01*
X36195Y145196D01*
X36005Y145386D02*X36195Y145196D01*
X35433Y145386D02*X36005D01*
X35243Y145577D02*X35433Y145386D01*
X35243Y145577D02*X35433Y145767D01*
X36005D01*
X36195Y145577D01*
X35243Y145196D02*X35433Y145005D01*
X36843D02*X37414D01*
X36652Y145196D02*X36843Y145005D01*
X36652Y145577D02*Y145196D01*
Y145577D02*X36843Y145767D01*
X37224D01*
X37414Y145577D01*
X36652Y145386D02*X37414D01*
Y145577D02*Y145386D01*
X38633Y146529D02*Y145005D01*
X38443D02*X38633Y145196D01*
X38062Y145005D02*X38443D01*
X37871Y145196D02*X38062Y145005D01*
X37871Y145577D02*Y145196D01*
Y145577D02*X38062Y145767D01*
X38443D01*
X38633Y145577D01*
X39776Y146148D02*Y145958D01*
Y145577D02*Y145005D01*
X40348Y145577D02*Y145005D01*
Y145577D02*X40538Y145767D01*
X40729D01*
X40919Y145577D01*
Y145005D01*
X40157Y145767D02*X40348Y145577D01*
X42253Y146529D02*Y145196D01*
X42443Y145005D01*
X42062Y145958D02*X42443D01*
X42824Y146529D02*Y145005D01*
Y145577D02*X43015Y145767D01*
X43396D01*
X43586Y145577D01*
Y145005D01*
X44044Y146148D02*Y145958D01*
Y145577D02*Y145005D01*
X44615D02*X45187D01*
X45377Y145196D01*
X45187Y145386D02*X45377Y145196D01*
X44615Y145386D02*X45187D01*
X44425Y145577D02*X44615Y145386D01*
X44425Y145577D02*X44615Y145767D01*
X45187D01*
X45377Y145577D01*
X44425Y145196D02*X44615Y145005D01*
X46520Y146529D02*Y145196D01*
X46711Y145005D01*
X47663Y145767D02*X47854Y145577D01*
X47282Y145767D02*X47663D01*
X47092Y145577D02*X47282Y145767D01*
X47092Y145577D02*Y145196D01*
X47282Y145005D01*
X47854Y145767D02*Y145196D01*
X48044Y145005D01*
X47282D02*X47663D01*
X47854Y145196D01*
X48501Y145767D02*Y145196D01*
X48692Y145005D01*
X49263Y145767D02*Y144624D01*
X49073Y144434D02*X49263Y144624D01*
X48692Y144434D02*X49073D01*
X48501Y144624D02*X48692Y144434D01*
Y145005D02*X49073D01*
X49263Y145196D01*
X49721Y145577D02*Y145196D01*
Y145577D02*X49911Y145767D01*
X50292D01*
X50483Y145577D01*
Y145196D01*
X50292Y145005D02*X50483Y145196D01*
X49911Y145005D02*X50292D01*
X49721Y145196D02*X49911Y145005D01*
X50940Y145767D02*Y145196D01*
X51130Y145005D01*
X51511D01*
X51702Y145196D01*
Y145767D02*Y145196D01*
X52349Y146529D02*Y145196D01*
X52540Y145005D01*
X52159Y145958D02*X52540D01*
X52921Y144624D02*X53302Y145005D01*
X54445Y145196D02*X54635Y145005D01*
X54445Y145577D02*Y145196D01*
Y145577D02*X54635Y145767D01*
X55016D01*
X55207Y145577D01*
Y145196D01*
X55016Y145005D02*X55207Y145196D01*
X54635Y145005D02*X55016D01*
X54445Y145958D02*X54635Y145767D01*
X54445Y146339D02*Y145958D01*
Y146339D02*X54635Y146529D01*
X55016D01*
X55207Y146339D01*
Y145958D01*
X55016Y145767D02*X55207Y145958D01*
X56236Y146529D02*X56426Y146339D01*
X55855Y146529D02*X56236D01*
X55664Y146339D02*X55855Y146529D01*
X55664Y146339D02*Y145196D01*
X55855Y145005D01*
X56236Y145767D02*X56426Y145577D01*
X55664Y145767D02*X56236D01*
X55855Y145005D02*X56236D01*
X56426Y145196D01*
Y145577D02*Y145196D01*
X56883Y145767D02*X57645Y146529D01*
X56883Y145767D02*X57836D01*
X57645Y146529D02*Y145005D01*
X58979Y146529D02*Y145005D01*
Y145577D02*X59169Y145767D01*
X59550D01*
X59741Y145577D01*
Y145005D01*
X60198Y145577D02*Y145196D01*
Y145577D02*X60389Y145767D01*
X60770D01*
X60960Y145577D01*
Y145196D01*
X60770Y145005D02*X60960Y145196D01*
X60389Y145005D02*X60770D01*
X60198Y145196D02*X60389Y145005D01*
X61417Y146529D02*Y145196D01*
X61608Y145005D01*
X62179D02*X62751D01*
X61989Y145196D02*X62179Y145005D01*
X61989Y145577D02*Y145196D01*
Y145577D02*X62179Y145767D01*
X62560D01*
X62751Y145577D01*
X61989Y145386D02*X62751D01*
Y145577D02*Y145386D01*
X63398Y145005D02*X63970D01*
X64160Y145196D01*
X63970Y145386D02*X64160Y145196D01*
X63398Y145386D02*X63970D01*
X63208Y145577D02*X63398Y145386D01*
X63208Y145577D02*X63398Y145767D01*
X63970D01*
X64160Y145577D01*
X63208Y145196D02*X63398Y145005D01*
X65494Y146529D02*Y145196D01*
X65684Y145005D01*
X65303Y145958D02*X65684D01*
X66065Y145577D02*Y145196D01*
Y145577D02*X66256Y145767D01*
X66637D01*
X66827Y145577D01*
Y145196D01*
X66637Y145005D02*X66827Y145196D01*
X66256Y145005D02*X66637D01*
X66065Y145196D02*X66256Y145005D01*
X67475Y146529D02*Y145196D01*
X67666Y145005D01*
X67285Y145958D02*X67666D01*
X68618Y145767D02*X68809Y145577D01*
X68237Y145767D02*X68618D01*
X68047Y145577D02*X68237Y145767D01*
X68047Y145577D02*Y145196D01*
X68237Y145005D01*
X68809Y145767D02*Y145196D01*
X68999Y145005D01*
X68237D02*X68618D01*
X68809Y145196D01*
X69456Y146529D02*Y145196D01*
X69647Y145005D01*
G54D1140*X506Y12494D02*Y94494D01*
X10506D01*
Y104494D01*
X170506D02*Y94494D01*
X180506D01*
Y12494D02*X170506D01*
Y2494D01*
X10506D01*
Y12494D01*
X506D01*
X180506Y94494D02*Y12494D01*
X10506Y104494D02*X170506D01*
X111760Y57248D02*Y57121D01*
G54D1139*X69573Y-2413D02*X70335D01*
X70526Y-2223D01*
Y-1842D02*Y-2223D01*
X70335Y-1651D02*X70526Y-1842D01*
X69764Y-1651D02*X70335D01*
X69764Y-889D02*Y-2413D01*
X69573Y-889D02*X70335D01*
X70526Y-1080D01*
Y-1461D01*
X70335Y-1651D02*X70526Y-1461D01*
X70983Y-1842D02*Y-2223D01*
Y-1842D02*X71174Y-1651D01*
X71555D01*
X71745Y-1842D01*
Y-2223D01*
X71555Y-2413D02*X71745Y-2223D01*
X71174Y-2413D02*X71555D01*
X70983Y-2223D02*X71174Y-2413D01*
X72774Y-1651D02*X72964Y-1842D01*
X72393Y-1651D02*X72774D01*
X72202Y-1842D02*X72393Y-1651D01*
X72202Y-1842D02*Y-2223D01*
X72393Y-2413D01*
X72964Y-1651D02*Y-2223D01*
X73155Y-2413D01*
X72393D02*X72774D01*
X72964Y-2223D01*
X73803Y-1842D02*Y-2413D01*
Y-1842D02*X73993Y-1651D01*
X74374D01*
X73612D02*X73803Y-1842D01*
X75593Y-889D02*Y-2413D01*
X75403D02*X75593Y-2223D01*
X75022Y-2413D02*X75403D01*
X74831Y-2223D02*X75022Y-2413D01*
X74831Y-1842D02*Y-2223D01*
Y-1842D02*X75022Y-1651D01*
X75403D01*
X75593Y-1842D01*
X76736D02*Y-2223D01*
Y-1842D02*X76927Y-1651D01*
X77308D01*
X77498Y-1842D01*
Y-2223D01*
X77308Y-2413D02*X77498Y-2223D01*
X76927Y-2413D02*X77308D01*
X76736Y-2223D02*X76927Y-2413D01*
X77955Y-1651D02*Y-2223D01*
X78146Y-2413D01*
X78527D01*
X78717Y-2223D01*
Y-1651D02*Y-2223D01*
X79365Y-889D02*Y-2223D01*
X79556Y-2413D01*
X79175Y-1461D02*X79556D01*
X79937Y-889D02*Y-2223D01*
X80127Y-2413D01*
X80508Y-1270D02*Y-1461D01*
Y-1842D02*Y-2413D01*
X81080Y-1842D02*Y-2413D01*
Y-1842D02*X81270Y-1651D01*
X81461D01*
X81651Y-1842D01*
Y-2413D01*
X80889Y-1651D02*X81080Y-1842D01*
X82299Y-2413D02*X82870D01*
X82108Y-2223D02*X82299Y-2413D01*
X82108Y-1842D02*Y-2223D01*
Y-1842D02*X82299Y-1651D01*
X82680D01*
X82870Y-1842D01*
X82108Y-2032D02*X82870D01*
Y-1842D02*Y-2032D01*
X84013Y-1270D02*Y-1461D01*
Y-1842D02*Y-2413D01*
X84585D02*X85156D01*
X85347Y-2223D01*
X85156Y-2032D02*X85347Y-2223D01*
X84585Y-2032D02*X85156D01*
X84394Y-1842D02*X84585Y-2032D01*
X84394Y-1842D02*X84585Y-1651D01*
X85156D01*
X85347Y-1842D01*
X84394Y-2223D02*X84585Y-2413D01*
X86680Y-889D02*Y-2223D01*
X86871Y-2413D01*
X86490Y-1461D02*X86871D01*
X87252Y-889D02*Y-2413D01*
Y-1842D02*X87442Y-1651D01*
X87823D01*
X88014Y-1842D01*
Y-2413D01*
X88662D02*X89233D01*
X88471Y-2223D02*X88662Y-2413D01*
X88471Y-1842D02*Y-2223D01*
Y-1842D02*X88662Y-1651D01*
X89043D01*
X89233Y-1842D01*
X88471Y-2032D02*X89233D01*
Y-1842D02*Y-2032D01*
X90567Y-1651D02*X91138D01*
X90376Y-1842D02*X90567Y-1651D01*
X90376Y-1842D02*Y-2223D01*
X90567Y-2413D01*
X91138D01*
X91786D02*X92357D01*
X91595Y-2223D02*X91786Y-2413D01*
X91595Y-1842D02*Y-2223D01*
Y-1842D02*X91786Y-1651D01*
X92167D01*
X92357Y-1842D01*
X91595Y-2032D02*X92357D01*
Y-1842D02*Y-2032D01*
X93005Y-1842D02*Y-2413D01*
Y-1842D02*X93196Y-1651D01*
X93386D01*
X93577Y-1842D01*
Y-2413D01*
X92815Y-1651D02*X93005Y-1842D01*
X94224Y-889D02*Y-2223D01*
X94415Y-2413D01*
X94034Y-1461D02*X94415D01*
X94986Y-2413D02*X95558D01*
X94796Y-2223D02*X94986Y-2413D01*
X94796Y-1842D02*Y-2223D01*
Y-1842D02*X94986Y-1651D01*
X95367D01*
X95558Y-1842D01*
X94796Y-2032D02*X95558D01*
Y-1842D02*Y-2032D01*
X96205Y-1842D02*Y-2413D01*
Y-1842D02*X96396Y-1651D01*
X96777D01*
X96015D02*X96205Y-1842D01*
X97234Y-889D02*Y-2223D01*
X97425Y-2413D01*
X97806Y-1270D02*Y-1461D01*
Y-1842D02*Y-2413D01*
X98377Y-1842D02*Y-2413D01*
Y-1842D02*X98568Y-1651D01*
X98758D01*
X98949Y-1842D01*
Y-2413D01*
X98187Y-1651D02*X98377Y-1842D01*
X99596Y-2413D02*X100168D01*
X99406Y-2223D02*X99596Y-2413D01*
X99406Y-1842D02*Y-2223D01*
Y-1842D02*X99596Y-1651D01*
X99977D01*
X100168Y-1842D01*
X99406Y-2032D02*X100168D01*
Y-1842D02*Y-2032D01*
X101311Y-1842D02*Y-2223D01*
Y-1842D02*X101501Y-1651D01*
X101882D01*
X102073Y-1842D01*
Y-2223D01*
X101882Y-2413D02*X102073Y-2223D01*
X101501Y-2413D02*X101882D01*
X101311Y-2223D02*X101501Y-2413D01*
X102721Y-1080D02*Y-2413D01*
Y-1080D02*X102911Y-889D01*
X103102D01*
X102530Y-1651D02*X102911D01*
X104359Y-889D02*Y-2223D01*
X104549Y-2413D01*
X104168Y-1461D02*X104549D01*
X104930Y-889D02*Y-2413D01*
Y-1842D02*X105121Y-1651D01*
X105502D01*
X105692Y-1842D01*
Y-2413D01*
X106150Y-1270D02*Y-1461D01*
Y-1842D02*Y-2413D01*
X106721D02*X107293D01*
X107483Y-2223D01*
X107293Y-2032D02*X107483Y-2223D01*
X106721Y-2032D02*X107293D01*
X106531Y-1842D02*X106721Y-2032D01*
X106531Y-1842D02*X106721Y-1651D01*
X107293D01*
X107483Y-1842D01*
X106531Y-2223D02*X106721Y-2413D01*
X108817Y-1842D02*Y-2985D01*
X108626Y-1651D02*X108817Y-1842D01*
X109007Y-1651D01*
X109388D01*
X109579Y-1842D01*
Y-2223D01*
X109388Y-2413D02*X109579Y-2223D01*
X109007Y-2413D02*X109388D01*
X108817Y-2223D02*X109007Y-2413D01*
X110607Y-1651D02*X110798Y-1842D01*
X110226Y-1651D02*X110607D01*
X110036Y-1842D02*X110226Y-1651D01*
X110036Y-1842D02*Y-2223D01*
X110226Y-2413D01*
X110798Y-1651D02*Y-2223D01*
X110988Y-2413D01*
X110226D02*X110607D01*
X110798Y-2223D01*
X111636Y-889D02*Y-2223D01*
X111826Y-2413D01*
X111445Y-1461D02*X111826D01*
X112207Y-889D02*Y-2413D01*
Y-1842D02*X112398Y-1651D01*
X112779D01*
X112969Y-1842D01*
Y-2413D01*
X50991Y112239D02*Y110715D01*
X51562Y112239D02*X51753Y112049D01*
Y110906D01*
X51562Y110715D02*X51753Y110906D01*
X50800Y110715D02*X51562D01*
X50800Y112239D02*X51562D01*
X52781Y111477D02*X52972Y111287D01*
X52400Y111477D02*X52781D01*
X52210Y111287D02*X52400Y111477D01*
X52210Y111287D02*Y110906D01*
X52400Y110715D01*
X52972Y111477D02*Y110906D01*
X53162Y110715D01*
X52400D02*X52781D01*
X52972Y110906D01*
X53810Y112239D02*Y110906D01*
X54000Y110715D01*
X53619Y111668D02*X54000D01*
X54572Y110715D02*X55143D01*
X54381Y110906D02*X54572Y110715D01*
X54381Y111287D02*Y110906D01*
Y111287D02*X54572Y111477D01*
X54953D01*
X55143Y111287D01*
X54381Y111096D02*X55143D01*
Y111287D02*Y111096D01*
X55601Y111668D02*X55791D01*
X55601Y111287D02*X55791D01*
X56934Y112049D02*X57125Y112239D01*
X57696D01*
X57887Y112049D01*
Y111668D01*
X56934Y110715D02*X57887Y111668D01*
X56934Y110715D02*X57887D01*
X58915Y112239D02*X59106Y112049D01*
X58534Y112239D02*X58915D01*
X58344Y112049D02*X58534Y112239D01*
X58344Y112049D02*Y110906D01*
X58534Y110715D01*
X58915Y111477D02*X59106Y111287D01*
X58344Y111477D02*X58915D01*
X58534Y110715D02*X58915D01*
X59106Y110906D01*
Y111287D02*Y110906D01*
X59563Y110715D02*X59754D01*
X60211Y112049D02*X60401Y112239D01*
X60973D01*
X61163Y112049D01*
Y111668D01*
X60211Y110715D02*X61163Y111668D01*
X60211Y110715D02*X61163D01*
X61620D02*X61811D01*
X62268Y112049D02*X62459Y112239D01*
X63030D01*
X63221Y112049D01*
Y111668D01*
X62268Y110715D02*X63221Y111668D01*
X62268Y110715D02*X63221D01*
X63678Y110906D02*X63868Y110715D01*
X63678Y112049D02*Y110906D01*
Y112049D02*X63868Y112239D01*
X64249D01*
X64440Y112049D01*
Y110906D01*
X64249Y110715D02*X64440Y110906D01*
X63868Y110715D02*X64249D01*
X63678Y111096D02*X64440Y111858D01*
X65088Y110715D02*X65469D01*
X65278Y112239D02*Y110715D01*
X64897Y111858D02*X65278Y112239D01*
X65926Y110906D02*X66116Y110715D01*
X65926Y111287D02*Y110906D01*
Y111287D02*X66116Y111477D01*
X66497D01*
X66688Y111287D01*
Y110906D01*
X66497Y110715D02*X66688Y110906D01*
X66116Y110715D02*X66497D01*
X65926Y111668D02*X66116Y111477D01*
X65926Y112049D02*Y111668D01*
Y112049D02*X66116Y112239D01*
X66497D01*
X66688Y112049D01*
Y111668D01*
X66497Y111477D02*X66688Y111668D01*
X68021Y110715D02*X68402D01*
X68212Y112239D02*Y110715D01*
X67831Y111858D02*X68212Y112239D01*
X68859Y112049D02*X69050Y112239D01*
X69431D01*
X69621Y112049D01*
Y110906D01*
X69431Y110715D02*X69621Y110906D01*
X69050Y110715D02*X69431D01*
X68859Y110906D02*X69050Y110715D01*
Y111477D02*X69621D01*
X70079Y110715D02*X70269D01*
X70726Y112239D02*X71488D01*
X70726D02*Y111477D01*
X70917Y111668D01*
X71298D01*
X71488Y111477D01*
Y110906D01*
X71298Y110715D02*X71488Y110906D01*
X70917Y110715D02*X71298D01*
X70726Y110906D02*X70917Y110715D01*
X71946Y110906D02*X72136Y110715D01*
X71946Y112049D02*Y110906D01*
Y112049D02*X72136Y112239D01*
X72517D01*
X72708Y112049D01*
Y110906D01*
X72517Y110715D02*X72708Y110906D01*
X72136Y110715D02*X72517D01*
X71946Y111096D02*X72708Y111858D01*
X73165Y110715D02*X73355D01*
X73812Y112239D02*X74574D01*
X73812D02*Y111477D01*
X74003Y111668D01*
X74384D01*
X74574Y111477D01*
Y110906D01*
X74384Y110715D02*X74574Y110906D01*
X74003Y110715D02*X74384D01*
X73812Y110906D02*X74003Y110715D01*
X75222D02*X75603D01*
X75413Y112239D02*Y110715D01*
X75032Y111858D02*X75413Y112239D01*
X76746D02*Y110906D01*
X76937Y110715D01*
X77318D01*
X77508Y110906D01*
Y112239D02*Y110906D01*
X77965Y112239D02*X78727D01*
X78346D02*Y110715D01*
X79375D02*X79947D01*
X79185Y110906D02*X79375Y110715D01*
X79185Y112049D02*Y110906D01*
Y112049D02*X79375Y112239D01*
X79947D01*
X50800Y115859D02*Y114525D01*
Y115859D02*X50991Y116049D01*
X51562D01*
X51753Y115859D01*
Y114525D01*
X50800Y115287D02*X51753D01*
X52210D02*Y114716D01*
X52400Y114525D01*
X52781D01*
X52972Y114716D01*
Y115287D02*Y114716D01*
X53619Y116049D02*Y114716D01*
X53810Y114525D01*
X53429Y115478D02*X53810D01*
X54191Y116049D02*Y114525D01*
Y115097D02*X54381Y115287D01*
X54762D01*
X54953Y115097D01*
Y114525D01*
X55410Y115097D02*Y114716D01*
Y115097D02*X55601Y115287D01*
X55982D01*
X56172Y115097D01*
Y114716D01*
X55982Y114525D02*X56172Y114716D01*
X55601Y114525D02*X55982D01*
X55410Y114716D02*X55601Y114525D01*
X56820Y115097D02*Y114525D01*
Y115097D02*X57010Y115287D01*
X57391D01*
X56629D02*X56820Y115097D01*
X57849Y115478D02*X58039D01*
X57849Y115097D02*X58039D01*
X59182Y116049D02*Y114716D01*
X59373Y114525D01*
X59754D01*
X59944Y114716D01*
Y116049D02*Y114716D01*
X60592Y115097D02*Y114525D01*
Y115097D02*X60782Y115287D01*
X60973D01*
X61163Y115097D01*
Y114525D01*
X60401Y115287D02*X60592Y115097D01*
X61620Y116049D02*Y114525D01*
Y115097D02*X62192Y114525D01*
X61620Y115097D02*X62001Y115478D01*
X62840Y115097D02*Y114525D01*
Y115097D02*X63030Y115287D01*
X63221D01*
X63411Y115097D01*
Y114525D01*
X62649Y115287D02*X62840Y115097D01*
X63868D02*Y114716D01*
Y115097D02*X64059Y115287D01*
X64440D01*
X64630Y115097D01*
Y114716D01*
X64440Y114525D02*X64630Y114716D01*
X64059Y114525D02*X64440D01*
X63868Y114716D02*X64059Y114525D01*
X65088Y115287D02*Y114716D01*
X65278Y114525D01*
X65469D01*
X65659Y114716D01*
Y115287D02*Y114716D01*
X65850Y114525D01*
X66040D01*
X66231Y114716D01*
Y115287D02*Y114716D01*
X66878Y115097D02*Y114525D01*
Y115097D02*X67069Y115287D01*
X67259D01*
X67450Y115097D01*
Y114525D01*
X66688Y115287D02*X66878Y115097D01*
X50800Y119859D02*X51562D01*
X51181D02*Y118335D01*
X52019Y119478D02*Y119288D01*
Y118907D02*Y118335D01*
X52591Y119859D02*Y118526D01*
X52781Y118335D01*
X52400Y119288D02*X52781D01*
X53162Y119859D02*Y118526D01*
X53353Y118335D01*
X53924D02*X54496D01*
X53734Y118526D02*X53924Y118335D01*
X53734Y118907D02*Y118526D01*
Y118907D02*X53924Y119097D01*
X54305D01*
X54496Y118907D01*
X53734Y118716D02*X54496D01*
Y118907D02*Y118716D01*
X54953Y119288D02*X55143D01*
X54953Y118907D02*X55143D01*
X56477Y119097D02*X57048D01*
X56286Y118907D02*X56477Y119097D01*
X56286Y118907D02*Y118526D01*
X56477Y118335D01*
X57048D01*
X57506Y118907D02*Y118526D01*
Y118907D02*X57696Y119097D01*
X58077D01*
X58268Y118907D01*
Y118526D01*
X58077Y118335D02*X58268Y118526D01*
X57696Y118335D02*X58077D01*
X57506Y118526D02*X57696Y118335D01*
X58915Y118907D02*Y118335D01*
Y118907D02*X59106Y119097D01*
X59296D01*
X59487Y118907D01*
Y118335D01*
X58725Y119097D02*X58915Y118907D01*
X60135Y119859D02*Y118526D01*
X60325Y118335D01*
X59944Y119288D02*X60325D01*
X60897Y118907D02*Y118335D01*
Y118907D02*X61087Y119097D01*
X61468D01*
X60706D02*X60897Y118907D01*
X61925D02*Y118526D01*
Y118907D02*X62116Y119097D01*
X62497D01*
X62687Y118907D01*
Y118526D01*
X62497Y118335D02*X62687Y118526D01*
X62116Y118335D02*X62497D01*
X61925Y118526D02*X62116Y118335D01*
X63144Y119859D02*Y118526D01*
X63335Y118335D01*
X63716Y119859D02*Y118335D01*
Y118526D02*X63906Y118335D01*
X64287D01*
X64478Y118526D01*
Y118907D02*Y118526D01*
X64287Y119097D02*X64478Y118907D01*
X63906Y119097D02*X64287D01*
X63716Y118907D02*X63906Y119097D01*
X64935Y118907D02*Y118526D01*
Y118907D02*X65126Y119097D01*
X65507D01*
X65697Y118907D01*
Y118526D01*
X65507Y118335D02*X65697Y118526D01*
X65126Y118335D02*X65507D01*
X64935Y118526D02*X65126Y118335D01*
X66726Y119097D02*X66916Y118907D01*
X66345Y119097D02*X66726D01*
X66154Y118907D02*X66345Y119097D01*
X66154Y118907D02*Y118526D01*
X66345Y118335D01*
X66916Y119097D02*Y118526D01*
X67107Y118335D01*
X66345D02*X66726D01*
X66916Y118526D01*
X67755Y118907D02*Y118335D01*
Y118907D02*X67945Y119097D01*
X68326D01*
X67564D02*X67755Y118907D01*
X69545Y119859D02*Y118335D01*
X69355D02*X69545Y118526D01*
X68974Y118335D02*X69355D01*
X68783Y118526D02*X68974Y118335D01*
X68783Y118907D02*Y118526D01*
Y118907D02*X68974Y119097D01*
X69355D01*
X69545Y118907D01*
X70002Y118335D02*X70764D01*
X71222Y119669D02*X71412Y119859D01*
X71984D01*
X72174Y119669D01*
Y119288D01*
X71222Y118335D02*X72174Y119288D01*
X71222Y118335D02*X72174D01*
X72631D02*X72822D01*
X73279Y119669D02*X73470Y119859D01*
X73851D01*
X74041Y119669D01*
Y118526D01*
X73851Y118335D02*X74041Y118526D01*
X73470Y118335D02*X73851D01*
X73279Y118526D02*X73470Y118335D01*
Y119097D02*X74041D01*
X75184D02*X75946D01*
X77089Y119859D02*Y118335D01*
Y119859D02*X77851D01*
X77089Y119097D02*X77661D01*
X78880D02*X79070Y118907D01*
X78499Y119097D02*X78880D01*
X78308Y118907D02*X78499Y119097D01*
X78308Y118907D02*Y118526D01*
X78499Y118335D01*
X79070Y119097D02*Y118526D01*
X79261Y118335D01*
X78499D02*X78880D01*
X79070Y118526D01*
X79718Y119859D02*Y118335D01*
Y118526D02*X79908Y118335D01*
X80289D01*
X80480Y118526D01*
Y118907D02*Y118526D01*
X80289Y119097D02*X80480Y118907D01*
X79908Y119097D02*X80289D01*
X79718Y118907D02*X79908Y119097D01*
X81128Y118907D02*Y118335D01*
Y118907D02*X81318Y119097D01*
X81699D01*
X80937D02*X81128Y118907D01*
X82156Y119478D02*Y119288D01*
Y118907D02*Y118335D01*
X82728Y119097D02*X83299D01*
X82537Y118907D02*X82728Y119097D01*
X82537Y118907D02*Y118526D01*
X82728Y118335D01*
X83299D01*
X84328Y119097D02*X84519Y118907D01*
X83947Y119097D02*X84328D01*
X83757Y118907D02*X83947Y119097D01*
X83757Y118907D02*Y118526D01*
X83947Y118335D01*
X84519Y119097D02*Y118526D01*
X84709Y118335D01*
X83947D02*X84328D01*
X84519Y118526D01*
X85357Y119859D02*Y118526D01*
X85547Y118335D01*
X85166Y119288D02*X85547D01*
X85928Y119478D02*Y119288D01*
Y118907D02*Y118335D01*
X86309Y118907D02*Y118526D01*
Y118907D02*X86500Y119097D01*
X86881D01*
X87071Y118907D01*
Y118526D01*
X86881Y118335D02*X87071Y118526D01*
X86500Y118335D02*X86881D01*
X86309Y118526D02*X86500Y118335D01*
X87719Y118907D02*Y118335D01*
Y118907D02*X87909Y119097D01*
X88100D01*
X88290Y118907D01*
Y118335D01*
X87528Y119097D02*X87719Y118907D01*
X89624Y119859D02*Y118335D01*
X90195Y119859D02*X90386Y119669D01*
Y118526D01*
X90195Y118335D02*X90386Y118526D01*
X89433Y118335D02*X90195D01*
X89433Y119859D02*X90195D01*
X91034Y118907D02*Y118335D01*
Y118907D02*X91224Y119097D01*
X91605D01*
X90843D02*X91034Y118907D01*
X92634Y119097D02*X92824Y118907D01*
X92253Y119097D02*X92634D01*
X92062Y118907D02*X92253Y119097D01*
X92062Y118907D02*Y118526D01*
X92253Y118335D01*
X92824Y119097D02*Y118526D01*
X93015Y118335D01*
X92253D02*X92634D01*
X92824Y118526D01*
X93472Y119097D02*Y118526D01*
X93663Y118335D01*
X93853D01*
X94044Y118526D01*
Y119097D02*Y118526D01*
X94234Y118335D01*
X94425D01*
X94615Y118526D01*
Y119097D02*Y118526D01*
X95072Y119478D02*Y119288D01*
Y118907D02*Y118335D01*
X95644Y118907D02*Y118335D01*
Y118907D02*X95834Y119097D01*
X96025D01*
X96215Y118907D01*
Y118335D01*
X95453Y119097D02*X95644Y118907D01*
X97244Y119097D02*X97434Y118907D01*
X96863Y119097D02*X97244D01*
X96672Y118907D02*X96863Y119097D01*
X96672Y118907D02*Y118526D01*
X96863Y118335D01*
X97244D01*
X97434Y118526D01*
X96672Y117954D02*X96863Y117764D01*
X97244D01*
X97434Y117954D01*
Y119097D02*Y117954D01*
M02*
