M48
METRIC,000.000
T1057C1.300
T1056C1.600
T1055C2.200
T1054C3.000
T1053C1.000
T1052C1.100
T1051C0.900
T1050C0.700
T1049C0.800
%
T1050
X020701Y024990
X020701Y022450
X020701Y019910
X020701Y017370
X020701Y014830
X020701Y012290
X020701Y009750
X020701Y007210
X028321Y024990
X028321Y022450
X028321Y019910
X028321Y017370
X028321Y014830
X028321Y012290
X028321Y009750
X028321Y007210
X049022Y084680
X049022Y077060
X051562Y084680
X051562Y077060
X051562Y073885
X051562Y066265
X054102Y084680
X054102Y077060
X054102Y073885
X054102Y066265
X056642Y084680
X056642Y077060
X056642Y073885
X056642Y066265
X059182Y084680
X059182Y077060
X059182Y073885
X059182Y066265
X061722Y084680
X061722Y077060
X061722Y073885
X061722Y066265
X064262Y084680
X064262Y077060
X064262Y073885
X064262Y066265
X066802Y084680
X066802Y077060
X066802Y073885
X066802Y066265
X077089Y023339
X077089Y020799
X077089Y018259
X077089Y015719
X077089Y013179
X077089Y010639
X077089Y008099
X077089Y005559
X084709Y023339
X084709Y020799
X084709Y018259
X084709Y015719
X084709Y013179
X084709Y010639
X084709Y008099
X084709Y005559
X105156Y032229
X105156Y024609
X106680Y064868
X106680Y057248
X106807Y053311
X106807Y050771
X106807Y048231
X106807Y045691
X106807Y043151
X106807Y040611
X106807Y038071
X107696Y032229
X107696Y024609
X109220Y064868
X109220Y057248
X110236Y032229
X110236Y024609
X111760Y064868
X111760Y057248
X114300Y064868
X114300Y057248
X114427Y053311
X114427Y050771
X114427Y048231
X114427Y045691
X114427Y043151
X114427Y040611
X114427Y038071
X115189Y032356
X115189Y024736
X116840Y064868
X116840Y057248
X117348Y048358
X117348Y040738
X117729Y032356
X117729Y024736
X119380Y064868
X119380Y057248
X120269Y032356
X120269Y024736
X121412Y053692
X121412Y051152
X121412Y048612
X121412Y046072
X121412Y043532
X121412Y040992
X121412Y038452
X121920Y064868
X121920Y057248
X124460Y064868
X124460Y057248
X124714Y032356
X124714Y024736
X127254Y032356
X127254Y024736
X129032Y053692
X129032Y051152
X129032Y048612
X129032Y046072
X129032Y043532
X129032Y040992
X129032Y038452
X129794Y032356
X129794Y024736
X133604Y059534
X133604Y056994
X133604Y054454
X133604Y051914
X133604Y049374
X134239Y079219
X134239Y076679
X134239Y074139
X134239Y069059
X134239Y066519
X134874Y032356
X134874Y024736
X136525Y054200
X136906Y061947
X137414Y032356
X137414Y024736
X137922Y080616
X138938Y082902
X139065Y054200
X139446Y061947
X139954Y032356
X139954Y024736
X141605Y054200
X141986Y061947
X143828Y067853
X144145Y054200
X144526Y061947
X145014Y032333
X145014Y024713
X146368Y067853
X146685Y054200
X147066Y061947
X147554Y032333
X147554Y024713
X148908Y067853
X150094Y032333
X150094Y024713
X150749Y062582
X150749Y060042
X151448Y067853
X152984Y090725
X152984Y088744
X153924Y059788
X153924Y057248
X153924Y054708
X153924Y052168
X153924Y049374
X153924Y046834
X153924Y044294
X153924Y041754
X153924Y039214
X153924Y036674
X153924Y034134
X153924Y031594
X153924Y029054
X153924Y026514
X153924Y023974
X153924Y021434
X155473Y090725
X155473Y088744
X156655Y067853
X159195Y067853
X161544Y059788
X161544Y057248
X161544Y054708
X161544Y052168
X161544Y049374
X161544Y046834
X161544Y044294
X161544Y041754
X161544Y039214
X161544Y036674
X161544Y034134
X161544Y031594
X161544Y029054
X161544Y026514
X161544Y023974
X161544Y021434
X161735Y067853
T1049
X013589Y024990
X013589Y022450
X013589Y019402
X013589Y016862
X014097Y045564
X014097Y043024
X014097Y040484
X014097Y037944
X014097Y035404
X014097Y032864
X014097Y030324
X014097Y027784
X014351Y056486
X014478Y054073
X014605Y066646
X014605Y064106
X014605Y061566
X014605Y059026
X016002Y073758
X016002Y068678
X017907Y073758
X017907Y068678
X018669Y024990
X018669Y022450
X018669Y019402
X018669Y016862
X019812Y073758
X019812Y068678
X021717Y045564
X021717Y043024
X021717Y040484
X021717Y037944
X021717Y035404
X021717Y032864
X021717Y030324
X021717Y027784
X021971Y056486
X022098Y054073
X022225Y066646
X022225Y064106
X022225Y061566
X022225Y059026
X022987Y045564
X022987Y043024
X022987Y040484
X022987Y037944
X022987Y035658
X023241Y029816
X023241Y027784
X023368Y031848
X023622Y056486
X023749Y059026
X023749Y054073
X024003Y066646
X024003Y064106
X024003Y061820
X025400Y073631
X025400Y068551
X027940Y073631
X027940Y068551
X030480Y073631
X030480Y068551
X030607Y045564
X030607Y043024
X030607Y040484
X030607Y037944
X030607Y035658
X030861Y029816
X030861Y027784
X030861Y022450
X030861Y019910
X030861Y017370
X030861Y014830
X030988Y031848
X031242Y056486
X031369Y059026
X031369Y054073
X031623Y066646
X031623Y064106
X031623Y061820
X035941Y022450
X035941Y019910
X035941Y017370
X035941Y014830
X043942Y073250
X043942Y065630
X043942Y063598
X043942Y055978
X049149Y087347
X054229Y089633
X054229Y087347
X059309Y089633
X061849Y087093
X064389Y089379
X066929Y087093
X069469Y089379
X072517Y025371
X072517Y017751
X074168Y013941
X074168Y006321
X074422Y025371
X074422Y017751
X077724Y084299
X082804Y084299
X088265Y023212
X088265Y015592
X102743Y056232
X102743Y048612
X102997Y047215
X102997Y039595
X104648Y053057
X104648Y045437
X104902Y022196
X107188Y020164
X112268Y066900
X112522Y022196
X114808Y020164
X117348Y066900
X117983Y054454
X117983Y046834
X119380Y045691
X119380Y038071
X119634Y067027
X124714Y067027
X129286Y066265
X129286Y061185
X130048Y089760
X130810Y070329
X130810Y065249
X130937Y062836
X130937Y057756
X132461Y046580
X132461Y038960
X132842Y087982
X135128Y089760
X137922Y087982
X148082Y043786
X148082Y036166
X148844Y053946
X148844Y046326
X151130Y057502
X151130Y049882
X151384Y043786
X151384Y036166
X161798Y076806
X165481Y074647
X165481Y067027
X169418Y076806
X169545Y070456
X171958Y067789
X174625Y070456
X177038Y067789
T1051
X004826Y091792
X004826Y089252
X004826Y086712
X004826Y084172
X004826Y081632
X004826Y079092
X004826Y076552
X004826Y074012
X005461Y045564
X005461Y043024
X005461Y040484
X005461Y037944
X005461Y035404
X005461Y032864
X005461Y030324
X005461Y027784
X005588Y066773
X005588Y064233
X005588Y061693
X005588Y059153
X005588Y056613
X005588Y054073
X007366Y091792
X007366Y089252
X007366Y086712
X007366Y084172
X007366Y081632
X007366Y079092
X007366Y076552
X007366Y074012
X008001Y045564
X008001Y043024
X008001Y040484
X008001Y037944
X008001Y035404
X008001Y032864
X008001Y030324
X008001Y027784
X008128Y066773
X008128Y064233
X008128Y061693
X008128Y059153
X008128Y056613
X008128Y054073
X009906Y091792
X009906Y089252
X009906Y086712
X009906Y084172
X009906Y081632
X009906Y079092
X009906Y076552
X009906Y074012
X010541Y045564
X010541Y043024
X010541Y040484
X010541Y037944
X010541Y035404
X010541Y032864
X010541Y030324
X010541Y027784
X010668Y066773
X010668Y064233
X010668Y061693
X010668Y059153
X010668Y056613
X010668Y054073
X016891Y006956
X018796Y084680
X018796Y082140
X018796Y079600
X021336Y084680
X021336Y082140
X021336Y079600
X023876Y084680
X023876Y082140
X023876Y079600
X025019Y046961
X026416Y092554
X026416Y084680
X026416Y082140
X026416Y079600
X027788Y095399
X028956Y084680
X028956Y082140
X028956Y079600
X029159Y092554
X030531Y095399
X031496Y084680
X031496Y082140
X031496Y079600
X031902Y092554
X033274Y095399
X033274Y052803
X034036Y084680
X034036Y082140
X034036Y079600
X034646Y092554
X035433Y075282
X035433Y072742
X035433Y070202
X035433Y067662
X035433Y065122
X035433Y062582
X035433Y060042
X035433Y057502
X036017Y095399
X036068Y052803
X036576Y084680
X036576Y082140
X036576Y079600
X037389Y092554
X037973Y075282
X037973Y072742
X037973Y070202
X037973Y067662
X037973Y065122
X037973Y062582
X037973Y060042
X037973Y057502
X038735Y029181
X039116Y084680
X039116Y082140
X039116Y079600
X040513Y075282
X040513Y072742
X040513Y070202
X040513Y067662
X040513Y065122
X040513Y062582
X040513Y060042
X040513Y057502
X041656Y084680
X041656Y082140
X041656Y079600
X043815Y031086
X044704Y075536
X048006Y034515
X050038Y061693
X050673Y028927
X051562Y056232
X053086Y032864
X053467Y063979
X053721Y071726
X054356Y060042
X055372Y062328
X055626Y028546
X056007Y058264
X057023Y048612
X057404Y030197
X057785Y059280
X058166Y092554
X059182Y055724
X059538Y095399
X059944Y032356
X060833Y078838
X060909Y092554
X061722Y050771
X061849Y080743
X062281Y095399
X063652Y092554
X064516Y028673
X064770Y051279
X065024Y095399
X066396Y092554
X066802Y028927
X067767Y095399
X068072Y057375
X068961Y029308
X069139Y092554
X069342Y073504
X070231Y059407
X072263Y059280
X072390Y071345
X073152Y057502
X073660Y031594
X074041Y063852
X074295Y082140
X074295Y071091
X074295Y055851
X081788Y033118
X082169Y054327
X087122Y086966
X087376Y079600
X087376Y031467
X088392Y011020
X088392Y008480
X088392Y005940
X089916Y092554
X090297Y086966
X090297Y072107
X090932Y011020
X090932Y008480
X090932Y005940
X091288Y095399
X092583Y051914
X092659Y092554
X093091Y023847
X093091Y021307
X093091Y018767
X093472Y011020
X093472Y008480
X093472Y005940
X094031Y095399
X095402Y092554
X095631Y023847
X095631Y021307
X095631Y018767
X096012Y011020
X096012Y008480
X096012Y005940
X096774Y095399
X097282Y081632
X098146Y092554
X098171Y023847
X098171Y021307
X098171Y018767
X098552Y011020
X098552Y008480
X098552Y005940
X099517Y095399
X100889Y092554
X101092Y011020
X101092Y008480
X101092Y005940
X103632Y087093
X104394Y059407
X108966Y050644
X112903Y059534
X113792Y087474
X114300Y074774
X115316Y077314
X115824Y016481
X115824Y013941
X115824Y011401
X115824Y008861
X115824Y006321
X116332Y074774
X117348Y077314
X117348Y052549
X118364Y074774
X118364Y016481
X118364Y013941
X118364Y011401
X118364Y008861
X118364Y006321
X119507Y087347
X120777Y082648
X120904Y016481
X120904Y013941
X120904Y011401
X120904Y008861
X120904Y006321
X122174Y071726
X122428Y074774
X123444Y077314
X124460Y074774
X124460Y071726
X125476Y077314
X129667Y085188
X129794Y082775
X129794Y080616
X134188Y091563
X135763Y016354
X135763Y013814
X135763Y011274
X135763Y008734
X135763Y006194
X136677Y091563
X138303Y016354
X138303Y013814
X138303Y011274
X138303Y008734
X138303Y006194
X138709Y091563
X138938Y049374
X138938Y046834
X138938Y044294
X138938Y041754
X138938Y039214
X138938Y036674
X140843Y016354
X140843Y013814
X140843Y011274
X140843Y008734
X140843Y006194
X141199Y091563
X141478Y083664
X141478Y049374
X141478Y046834
X141478Y044294
X141478Y041754
X141478Y039214
X141478Y036674
X143256Y089506
X144018Y049374
X144018Y046834
X144018Y044294
X144018Y041754
X144018Y039214
X144018Y036674
X145796Y005940
X148336Y063725
X150876Y016735
X150876Y014195
X150876Y011655
X150876Y009115
X150876Y006575
X152146Y084045
X152146Y081505
X152146Y078965
X153416Y016735
X153416Y014195
X153416Y011655
X153416Y009115
X153416Y006575
X154686Y084045
X154686Y081505
X154686Y078965
X154737Y074114
X154940Y066011
X155956Y016735
X155956Y014195
X155956Y011655
X155956Y009115
X155956Y006575
X157226Y084045
X157226Y081505
X157226Y078965
X157226Y021434
X164084Y021434
X166243Y087728
X166243Y085188
X166243Y082648
X168656Y058772
X168656Y056232
X168656Y053692
X168656Y043913
X168656Y041373
X168656Y038833
X168783Y087728
X168783Y085188
X168783Y082648
X168910Y027276
X168910Y024736
X168910Y022196
X171196Y058772
X171196Y056232
X171196Y053692
X171196Y043913
X171196Y041373
X171196Y038833
X171450Y027276
X171450Y024736
X171450Y022196
X173736Y058772
X173736Y056232
X173736Y053692
X173736Y043913
X173736Y041373
X173736Y038833
X173990Y027276
X173990Y024736
X173990Y022196
X176276Y058772
X176276Y056232
X176276Y053692
X176276Y043913
X176276Y041373
X176276Y038833
X176530Y027276
X176530Y024736
X176530Y022196
X176784Y015084
T1053
X034671Y045564
X034671Y043024
X034671Y038833
X034671Y036293
X037211Y045564
X037211Y043024
X037211Y038833
X037211Y036293
X039751Y045564
X039751Y043024
X039751Y038833
X039751Y036293
X042291Y045564
X042291Y043024
X042291Y038833
X042291Y036293
X044831Y045564
X044831Y043024
X044831Y038833
X044831Y036293
X047371Y038833
X047371Y036293
X049911Y038833
X049911Y036293
X052451Y038833
X052451Y036293
X054991Y038833
X054991Y036293
X057531Y038833
X057531Y036293
X060071Y038833
X060071Y036293
X062611Y038833
X062611Y036293
X065151Y038833
X065151Y036293
X075946Y079854
X075946Y077314
X075946Y074774
X075946Y072234
X075946Y069694
X075946Y067154
X075946Y064614
X075946Y062074
X075946Y059534
X075946Y056994
X075946Y054454
X075946Y051914
X075946Y049374
X075946Y046834
X075946Y044294
X075946Y041754
X075946Y039214
X075946Y036674
X075946Y034134
X075946Y031594
X098806Y079854
X098806Y077314
X098806Y074774
X098806Y072234
X098806Y069694
X098806Y067154
X098806Y064614
X098806Y062074
X098806Y059534
X098806Y056994
X098806Y054454
X098806Y051914
X098806Y049374
X098806Y046834
X098806Y044294
X098806Y041754
X098806Y039214
X098806Y036674
X098806Y034134
X098806Y031594
X137795Y059026
X137795Y056486
X140335Y059026
X140335Y056486
X142875Y059026
X142875Y056486
X145415Y059026
X145415Y056486
X147955Y059026
X147955Y056486
T1052
X124714Y016354
X124714Y013814
X124714Y011274
X124714Y008734
X124714Y006194
X132334Y016354
X132334Y013814
X132334Y011274
X132334Y008734
X132334Y006194
T1057
X171958Y073631
X173101Y090522
X173101Y087982
X173101Y085442
X173101Y082902
X173101Y080362
X174498Y073631
X175641Y090522
X175641Y087982
X175641Y085442
X175641Y082902
X175641Y080362
X177038Y073631
X178181Y090522
X178181Y087982
X178181Y085442
X178181Y082902
X178181Y080362
T1056
X049864Y050876
X069904Y050736
X112395Y095729
X128524Y095729
T1055
X131115Y094281
X144247Y094281
X148209Y093443
X160249Y093443
T1054
X014506Y099494
X014506Y008994
X019558Y093976
X044247Y093976
X051308Y093976
X075997Y093976
X083058Y093976
X107747Y093976
X114046Y092554
X126746Y092554
X166506Y096494
X166506Y010994
M30
