G04 start of page 10 for group -4015 idx -4015 *
G04 Title: controlboard_2.3, toppaste *
G04 Creator: pcb.exe 20130205 *
G04 CreationDate: 26.2.2018 13.50.51 UTC *
G04 Format: Gerber/RS-274X *
G04 PCB-Dimensions (mm): 183.00 105.00 *
G04 PCB-Coordinate-Origin: lower left *
%MOMM*%
%FSLAX43Y43*%
%LNTOPPASTE*%
%ADD1136R,1.270X1.270*%
%ADD1135R,3.429X3.429*%
%ADD1134R,0.889X0.889*%
G54D1134*X131276Y86302D02*X132038D01*
X131263Y85093D02*X132025D01*
X134705Y86302D02*X135467D01*
X134692Y85093D02*X135454D01*
X138896Y86302D02*X139658D01*
X138883Y85093D02*X139645D01*
X142325Y86556D02*X143087D01*
X142312Y85347D02*X143074D01*
X175810Y62738D02*X176572D01*
X175823Y63947D02*X176585D01*
X173016Y62738D02*X173778D01*
X173029Y63947D02*X173791D01*
X170222Y62738D02*X170984D01*
X170235Y63947D02*X170997D01*
X167428Y62738D02*X168190D01*
X167441Y63947D02*X168203D01*
X176572Y17526D02*X177334D01*
X176585Y18735D02*X177347D01*
X173524Y17526D02*X174286D01*
X173537Y18735D02*X174299D01*
X170476Y17526D02*X171238D01*
X170489Y18735D02*X171251D01*
X167428Y17526D02*X168190D01*
X167441Y18735D02*X168203D01*
X159668Y6406D02*Y5644D01*
X160877Y6393D02*Y5631D01*
X159668Y9200D02*Y8438D01*
X160877Y9187D02*Y8425D01*
X159668Y11994D02*Y11232D01*
X160877Y11981D02*Y11219D01*
X159668Y14534D02*Y13772D01*
X160877Y14521D02*Y13759D01*
X159668Y17328D02*Y16566D01*
X160877Y17315D02*Y16553D01*
X110646Y6660D02*Y5898D01*
X111855Y6647D02*Y5885D01*
X110646Y9327D02*Y8565D01*
X111855Y9314D02*Y8552D01*
X110646Y11994D02*Y11232D01*
X111855Y11981D02*Y11219D01*
X110646Y14661D02*Y13899D01*
X111855Y14648D02*Y13886D01*
X110646Y17328D02*Y16566D01*
X111855Y17315D02*Y16553D01*
X146275Y89802D02*Y89040D01*
X145066Y89815D02*Y89053D01*
X146275Y82182D02*Y81420D01*
X145066Y82195D02*Y81433D01*
X146275Y84722D02*Y83960D01*
X145066Y84735D02*Y83973D01*
X146275Y87262D02*Y86500D01*
X145066Y87275D02*Y86513D01*
X101318Y90213D02*X102080D01*
X101305Y89003D02*X102067D01*
X98617Y90062D02*X99379D01*
X98605Y88852D02*X99367D01*
X87905Y90023D02*X88667D01*
X87892Y88814D02*X88654D01*
X90573Y89995D02*X91335D01*
X90561Y88786D02*X91323D01*
X95951Y89999D02*X96713D01*
X95938Y88789D02*X96700D01*
X93252Y89953D02*X94014D01*
X93239Y88743D02*X94001D01*
X111350Y87897D02*Y87135D01*
X110141Y87910D02*Y87148D01*
X111350Y82309D02*Y81547D01*
X110141Y82322D02*Y81560D01*
X111350Y79515D02*Y78753D01*
X110141Y79528D02*Y78766D01*
X111350Y85103D02*Y84341D01*
X110141Y85116D02*Y84354D01*
G54D1135*X69596Y26387D02*Y9242D01*
G54D1136*X53086Y27022D02*Y9242D01*
X58166Y27022D02*Y9242D01*
X50546Y27022D02*Y9242D01*
X55626Y27022D02*Y9242D01*
G54D1135*X41656Y26387D02*Y9242D01*
G54D1136*X45466Y27022D02*Y9242D01*
X60706Y27022D02*Y9242D01*
X63246Y27022D02*Y9242D01*
X48006Y27022D02*Y9242D01*
X65786Y27022D02*Y9242D01*
G54D1134*X55838Y61029D02*X56600D01*
X55825Y59820D02*X56587D01*
M02*
