G04 start of page 7 for group -4062 idx -4062 *
G04 Title: controlboard_2.3, soldermask *
G04 Creator: pcb.exe 20130205 *
G04 CreationDate: 26.2.2018 13.50.51 UTC *
G04 Format: Gerber/RS-274X *
G04 PCB-Dimensions (mm): 183.00 105.00 *
G04 PCB-Coordinate-Origin: lower left *
%MOMM*%
%FSLAX43Y43*%
%LNBOTTOMMASK*%
%ADD1119R,1.397X1.397*%
%ADD1118C,2.540*%
%ADD1117C,2.819*%
%ADD1116C,4.420*%
%ADD1115C,1.727*%
%ADD1114C,2.352*%
%ADD1113C,1.776*%
%ADD1112C,1.903*%
%ADD1111C,1.752*%
%ADD1110C,1.622*%
%ADD1109C,1.876*%
%ADD1108C,1.822*%
%ADD1107C,2.565*%
%ADD1106C,1.700*%
%ADD1105C,4.013*%
%ADD1104C,2.438*%
%ADD1103C,2.921*%
%ADD1102C,6.502*%
%ADD1101C,1.552*%
%ADD1100C,1.562*%
%ADD1099C,1.549*%
%ADD1098C,1.676*%
%ADD1097C,1.749*%
%ADD1096C,1.930*%
%ADD1095C,1.649*%
%ADD1094C,2.057*%
%ADD1093C,2.184*%
%ADD1092C,1.952*%
%ADD1091C,1.652*%
%ADD1090C,1.803*%
G54D1090*X107188Y20164D03*
X114808D03*
X104902Y22196D03*
X112522D03*
G54D1091*X105156Y24609D03*
X107696D03*
X110236D03*
X115189Y24736D03*
X117729D03*
G54D1092*X95631Y18767D03*
X93091D03*
X98171D03*
X95631Y21307D03*
Y23847D03*
X98171D03*
Y21307D03*
G54D1093*X132334Y6194D03*
G54D1094*Y8734D03*
Y11274D03*
Y13814D03*
Y16354D03*
G54D1091*X120269Y32356D03*
X117729D03*
X115189D03*
X129794D03*
X127254D03*
X124714D03*
X120269Y24736D03*
X124714D03*
X127254D03*
X129794D03*
G54D1092*X101092Y8480D03*
Y5940D03*
X98552D03*
X101092Y11020D03*
X98552D03*
X96012D03*
X93472D03*
X90932D03*
X88392D03*
X96012Y5940D03*
X93472D03*
X90932D03*
X88392D03*
G54D1093*X124714Y6194D03*
G54D1094*Y8734D03*
Y11274D03*
Y13814D03*
Y16354D03*
G54D1092*X118364Y6321D03*
Y8861D03*
X115824D03*
Y6321D03*
X118364Y11401D03*
X115824Y16481D03*
Y13941D03*
Y11401D03*
X118364Y13941D03*
Y16481D03*
X120904D03*
Y13941D03*
Y11401D03*
Y8861D03*
Y6321D03*
G54D1095*X74422Y25371D03*
G54D1096*X75946Y31594D03*
G54D1095*X72517Y25371D03*
G54D1097*X88265Y23212D03*
G54D1098*X84709Y20799D03*
Y23339D03*
G54D1092*X93091Y23847D03*
Y21307D03*
G54D1098*X77089Y23339D03*
Y20799D03*
G54D1096*X98806Y31594D03*
G54D1095*X74168Y6321D03*
Y13941D03*
X74422Y17751D03*
X72517D03*
G54D1098*X77089Y18259D03*
Y15719D03*
Y13179D03*
Y10639D03*
X84709D03*
X77089Y8099D03*
X84709D03*
X77089Y5559D03*
X84709D03*
G54D1099*X88265Y15592D03*
G54D1098*X84709Y13179D03*
Y15719D03*
Y18259D03*
G54D1092*X88392Y8480D03*
X90932D03*
X93472D03*
X96012D03*
X98552D03*
G54D1091*X110236Y32229D03*
X107696D03*
X105156D03*
G54D1096*X98806Y34134D03*
Y36674D03*
G54D1091*X114427Y38071D03*
Y40611D03*
Y43151D03*
X106807D03*
Y40611D03*
Y38071D03*
G54D1099*X102997Y39595D03*
G54D1096*X98806Y39214D03*
Y41754D03*
Y44294D03*
Y46834D03*
Y49374D03*
Y51914D03*
G54D1091*X119380Y45691D03*
G54D1100*Y38071D03*
G54D1101*X117348Y40738D03*
Y48358D03*
G54D1100*X117983Y46834D03*
G54D1098*X121412Y48612D03*
Y46072D03*
G54D1100*X117983Y54454D03*
G54D1098*X121412Y53692D03*
Y51152D03*
Y43532D03*
G54D1096*X75946Y51914D03*
Y49374D03*
Y46834D03*
Y44294D03*
Y41754D03*
Y39214D03*
Y36674D03*
Y34134D03*
G54D1098*X121412Y40992D03*
Y38452D03*
X129032D03*
Y40992D03*
Y43532D03*
Y46072D03*
Y48612D03*
Y51152D03*
Y53692D03*
G54D1091*X132461Y38960D03*
Y46580D03*
G54D1095*X135128Y89760D03*
X130048D03*
X137922Y87982D03*
X132842D03*
G54D1102*X107747Y93976D03*
G54D1103*X131115Y94281D03*
G54D1104*X128524Y95729D03*
G54D1105*X126746Y92554D03*
G54D1106*X136677Y91563D03*
X134188D03*
G54D1107*X112395Y95729D03*
G54D1105*X114046Y92554D03*
G54D1090*X130810Y70329D03*
Y65249D03*
G54D1091*X124460Y64868D03*
X121920D03*
X119380D03*
G54D1090*X129286Y66265D03*
X124714Y67027D03*
G54D1098*X134239Y66519D03*
Y69059D03*
Y74139D03*
Y76679D03*
Y79219D03*
G54D1090*X112268Y66900D03*
G54D1091*X111760Y64868D03*
X109220D03*
X106680D03*
G54D1090*X117348Y66900D03*
G54D1091*X116840Y64868D03*
X114300D03*
Y57248D03*
X116840D03*
X119380D03*
X121920D03*
X106680D03*
X109220D03*
X111760D03*
X106807Y53311D03*
G54D1099*X102743Y56232D03*
X104648Y53057D03*
G54D1091*X106807Y50771D03*
Y48231D03*
Y45691D03*
G54D1099*X102743Y48612D03*
X102997Y47215D03*
X104648Y45437D03*
G54D1091*X114427Y45691D03*
Y48231D03*
Y50771D03*
Y53311D03*
X124460Y57248D03*
G54D1090*X130937Y57756D03*
Y62836D03*
G54D1108*X133604Y59534D03*
Y56994D03*
G54D1109*X136525Y54200D03*
G54D1110*X136906Y61947D03*
G54D1108*X133604Y54454D03*
Y51914D03*
Y49374D03*
G54D1111*X137795Y56486D03*
Y59026D03*
G54D1090*X119634Y67027D03*
X114300Y74774D03*
X116332D03*
X115316Y77314D03*
X118364Y74774D03*
X117348Y77314D03*
G54D1112*X122428Y74774D03*
G54D1113*X124460D03*
X123444Y77314D03*
X125476D03*
G54D1112*X148844Y46326D03*
G54D1096*X144018Y46834D03*
X138938D03*
G54D1112*X148082Y43786D03*
G54D1096*X144018Y44294D03*
X138938D03*
G54D1112*X151384Y43786D03*
G54D1091*X153924Y46834D03*
Y44294D03*
X161544D03*
G54D1092*X168656Y43913D03*
X171196D03*
X173736D03*
X176276D03*
G54D1091*X161544Y46834D03*
G54D1096*X141478Y49374D03*
Y46834D03*
Y44294D03*
X144018Y49374D03*
X138938D03*
G54D1112*X148844Y53946D03*
G54D1108*X139065Y54200D03*
X141605D03*
X144145D03*
X146685D03*
G54D1091*X153924Y49374D03*
G54D1112*X151130Y49882D03*
G54D1090*X129286Y61185D03*
G54D1110*X139446Y61947D03*
G54D1108*X141986D03*
G54D1091*X161544Y49374D03*
Y52168D03*
Y54708D03*
Y57248D03*
Y59788D03*
G54D1092*X176276Y56232D03*
X173736D03*
X171196D03*
Y53692D03*
Y58772D03*
X168656Y56232D03*
Y53692D03*
X173736D03*
X176276D03*
X168656Y58772D03*
X173736D03*
X176276D03*
G54D1091*X153924Y59788D03*
Y57248D03*
Y54708D03*
Y52168D03*
G54D1112*X151130Y57502D03*
G54D1098*X150749Y60042D03*
Y62582D03*
G54D1108*X144526Y61947D03*
X147066D03*
G54D1111*X142875Y56486D03*
X145415D03*
X147955D03*
X140335Y59026D03*
X142875D03*
X145415D03*
X147955D03*
X140335Y56486D03*
G54D1091*X153924Y39214D03*
Y36674D03*
Y34134D03*
Y31594D03*
Y41754D03*
G54D1112*X151384Y36166D03*
G54D1091*X150094Y32333D03*
X161544Y31594D03*
Y34134D03*
Y36674D03*
Y39214D03*
Y41754D03*
G54D1092*X176276Y41373D03*
Y38833D03*
X173736Y41373D03*
Y38833D03*
X171196Y41373D03*
X168656D03*
Y38833D03*
X171196D03*
G54D1091*X145014Y24713D03*
X147554D03*
X150094D03*
X139954Y32356D03*
Y24736D03*
G54D1096*X141478Y41754D03*
Y39214D03*
Y36674D03*
G54D1091*X137414Y32356D03*
X134874D03*
Y24736D03*
X137414D03*
G54D1112*X148082Y36166D03*
G54D1091*X147554Y32333D03*
X145014D03*
G54D1096*X144018Y36674D03*
X138938D03*
Y39214D03*
Y41754D03*
X144018Y39214D03*
Y41754D03*
G54D1091*X153924Y29054D03*
Y26514D03*
X161544D03*
Y29054D03*
Y21434D03*
Y23974D03*
G54D1092*X168910Y22196D03*
X171450D03*
X176530Y24736D03*
X173990D03*
Y27276D03*
X176530D03*
X173990Y22196D03*
X171450Y24736D03*
X168910D03*
Y27276D03*
X171450D03*
X176530Y22196D03*
G54D1091*X153924Y23974D03*
Y21434D03*
G54D1092*X155956Y16735D03*
X153416Y6575D03*
Y9115D03*
Y11655D03*
Y14195D03*
Y16735D03*
X150876D03*
Y14195D03*
Y11655D03*
X155956Y14195D03*
Y11655D03*
Y9115D03*
Y6575D03*
X150876Y9115D03*
Y6575D03*
X138303Y6194D03*
Y8734D03*
Y11274D03*
Y13814D03*
Y16354D03*
X135763D03*
X140843D03*
X135763Y13814D03*
Y11274D03*
Y8734D03*
Y6194D03*
X140843Y13814D03*
Y11274D03*
Y8734D03*
Y6194D03*
G54D1114*X174498Y73631D03*
X177038D03*
G54D1090*X174625Y70456D03*
G54D1095*X177038Y67789D03*
G54D1097*X171958D03*
G54D1099*X165481Y67027D03*
G54D1114*X171958Y73631D03*
G54D1095*X169545Y70456D03*
G54D1097*X169418Y76806D03*
G54D1115*X152984Y90725D03*
Y88744D03*
G54D1116*X148209Y93443D03*
G54D1103*X144247Y94281D03*
G54D1106*X138709Y91563D03*
X141199D03*
G54D1115*X155473Y90725D03*
Y88744D03*
G54D1116*X160249Y93443D03*
G54D1097*X161798Y76806D03*
G54D1099*X165481Y74647D03*
G54D1098*X161735Y67853D03*
X159195D03*
X156655D03*
X151448D03*
X148908D03*
X146368D03*
X143828D03*
G54D1114*X173101Y87982D03*
X175641D03*
X178181D03*
Y85442D03*
X175641D03*
X178181Y90522D03*
Y80362D03*
X173101Y85442D03*
X175641Y90522D03*
X173101D03*
Y82902D03*
X178181D03*
X175641D03*
G54D1092*X166243Y82648D03*
X168783D03*
G54D1114*X175641Y80362D03*
X173101D03*
G54D1092*X168783Y85188D03*
X166243D03*
Y87728D03*
X168783D03*
X154686Y84045D03*
X157226D03*
X152146D03*
X154686Y81505D03*
X157226D03*
X152146D03*
X154686Y78965D03*
X157226D03*
X152146D03*
G54D1114*X63652Y92554D03*
X66396D03*
X69139D03*
X65024Y95399D03*
X67767D03*
G54D1095*X66929Y87093D03*
G54D1091*X66802Y84680D03*
X64262D03*
G54D1095*X64389Y89379D03*
G54D1102*X75997Y93976D03*
G54D1095*X69469Y89379D03*
G54D1114*X58166Y92554D03*
X60909D03*
X59538Y95399D03*
X62281D03*
G54D1102*X51308Y93976D03*
G54D1095*X54229Y89633D03*
Y87347D03*
X49149D03*
G54D1114*X89916Y92554D03*
X92659D03*
X91288Y95399D03*
X94031D03*
X95402Y92554D03*
X98146D03*
X100889D03*
X96774Y95399D03*
X99517D03*
G54D1096*X98806Y64614D03*
Y67154D03*
Y69694D03*
Y72234D03*
Y74774D03*
Y77314D03*
Y79854D03*
G54D1095*X59309Y89633D03*
X61849Y87093D03*
G54D1091*X61722Y84680D03*
X59182D03*
Y77060D03*
X61722D03*
X64262D03*
X66802D03*
X56642Y84680D03*
Y77060D03*
G54D1098*X66802Y73885D03*
X64262D03*
X61722D03*
X59182D03*
X56642D03*
X54102D03*
X51562D03*
G54D1102*X83058Y93976D03*
G54D1097*X82804Y84299D03*
X77724D03*
G54D1096*X75946Y79854D03*
Y77314D03*
Y74774D03*
Y72234D03*
Y69694D03*
Y67154D03*
Y64614D03*
G54D1091*X54102Y84680D03*
X51562D03*
X49022D03*
Y77060D03*
X51562D03*
X54102D03*
G54D1114*X37389Y92554D03*
G54D1102*X44247Y93976D03*
G54D1092*X39116Y82140D03*
Y84680D03*
Y79600D03*
X41656Y82140D03*
Y84680D03*
Y79600D03*
X36576D03*
X37973Y72742D03*
Y75282D03*
Y70202D03*
Y67662D03*
Y65122D03*
Y62582D03*
X35433Y65122D03*
Y67662D03*
Y70202D03*
Y72742D03*
G54D1097*X31623Y66646D03*
Y64106D03*
G54D1092*X35433Y75282D03*
G54D1091*X43942Y73250D03*
G54D1092*X40513Y65122D03*
Y67662D03*
Y70202D03*
Y75282D03*
Y72742D03*
G54D1098*X51562Y66265D03*
G54D1091*X43942Y63598D03*
Y65630D03*
G54D1098*X54102Y66265D03*
X56642D03*
X59182D03*
X61722D03*
X64262D03*
X66802D03*
G54D1114*X34646Y92554D03*
G54D1092*X31496Y82140D03*
X34036D03*
X36576D03*
Y84680D03*
X34036D03*
X31496D03*
X34036Y79600D03*
G54D1117*X49864Y50876D03*
X69904Y50736D03*
G54D1096*X75946Y62074D03*
X98806D03*
X75946Y59534D03*
X98806D03*
X75946Y56994D03*
X98806D03*
X75946Y54454D03*
X98806D03*
G54D1092*X37973Y60042D03*
X40513D03*
X35433D03*
Y62582D03*
X37973Y57502D03*
X35433D03*
G54D1091*X43942Y55978D03*
G54D1092*X40513Y57502D03*
Y62582D03*
G54D1097*X31369Y59026D03*
Y54073D03*
X31242Y56486D03*
X31623Y61820D03*
G54D1095*X22098Y54073D03*
X23749D03*
X21971Y56486D03*
X23622D03*
X24003Y61820D03*
X22225Y59026D03*
G54D1114*X26416Y92554D03*
X29159D03*
X31902D03*
X27788Y95399D03*
G54D1102*X19558Y93976D03*
G54D1114*X30531Y95399D03*
X33274D03*
X36017D03*
G54D1092*X26416Y82140D03*
X28956D03*
Y84680D03*
X26416D03*
X23876Y82140D03*
Y79600D03*
Y84680D03*
X31496Y79600D03*
X28956D03*
X26416D03*
X21336Y82140D03*
X18796D03*
Y79600D03*
Y84680D03*
X21336Y79600D03*
Y84680D03*
G54D1095*X25400Y73631D03*
X27940D03*
X30480D03*
X16002Y73758D03*
X19812D03*
X17907D03*
G54D1092*X7366Y89252D03*
X9906D03*
X7366Y91792D03*
Y86712D03*
Y84172D03*
Y81632D03*
X4826Y91792D03*
X9906D03*
X4826Y89252D03*
X7366Y79092D03*
Y76552D03*
Y74012D03*
X4826D03*
Y76552D03*
Y79092D03*
X9906Y74012D03*
Y76552D03*
Y79092D03*
Y81632D03*
X10668Y64233D03*
Y66773D03*
X4826Y81632D03*
Y84172D03*
Y86712D03*
X9906Y84172D03*
Y86712D03*
X8128Y66773D03*
Y64233D03*
X5588D03*
Y66773D03*
G54D1095*X14605Y64106D03*
Y66646D03*
X16002Y68678D03*
X19812D03*
X17907D03*
X14605Y59026D03*
X22225Y61566D03*
X23749Y59026D03*
X22225Y64106D03*
Y66646D03*
X24003D03*
Y64106D03*
X25400Y68551D03*
X27940D03*
X30480D03*
G54D1092*X8001Y43024D03*
X5461D03*
X10541D03*
X8001Y45564D03*
X5461D03*
X10541D03*
X8001Y40484D03*
X10541D03*
X5461D03*
X8001Y37944D03*
Y35404D03*
X10541D03*
X5461D03*
X10541Y37944D03*
X5461D03*
X8128Y61693D03*
Y59153D03*
Y56613D03*
Y54073D03*
X10668D03*
G54D1095*X14478D03*
G54D1092*X5588D03*
X10668Y56613D03*
G54D1095*X14351Y56486D03*
G54D1092*X5588Y56613D03*
Y59153D03*
Y61693D03*
X10668Y59153D03*
Y61693D03*
G54D1095*X14605Y61566D03*
G54D1092*X8001Y32864D03*
X10541Y30324D03*
Y32864D03*
X8001Y30324D03*
Y27784D03*
X5461D03*
Y30324D03*
Y32864D03*
X10541Y27784D03*
G54D1097*X14097D03*
Y30324D03*
Y32864D03*
Y35404D03*
G54D1095*X13589Y19402D03*
Y22450D03*
Y24990D03*
Y16862D03*
G54D1097*X14097Y37944D03*
Y40484D03*
Y43024D03*
Y45564D03*
G54D1091*X20701Y24990D03*
Y22450D03*
G54D1095*X18669D03*
Y24990D03*
G54D1091*X20701Y17370D03*
X28321D03*
Y19910D03*
Y22450D03*
Y24990D03*
G54D1097*X30861Y27784D03*
G54D1090*Y22450D03*
Y19910D03*
G54D1111*X34671Y36293D03*
Y38833D03*
Y43024D03*
G54D1097*X21717Y32864D03*
Y35404D03*
Y37944D03*
Y40484D03*
Y43024D03*
Y45564D03*
Y27784D03*
Y30324D03*
X23241Y27784D03*
Y29816D03*
X23368Y31848D03*
X22987Y35658D03*
Y37944D03*
Y40484D03*
Y43024D03*
Y45564D03*
G54D1091*X20701Y14830D03*
X28321D03*
G54D1090*X35941D03*
X30861D03*
G54D1091*X20701Y12290D03*
Y9750D03*
Y7210D03*
X28321D03*
Y9750D03*
Y12290D03*
X20701Y19910D03*
G54D1095*X18669Y19402D03*
Y16862D03*
G54D1090*X35941Y17370D03*
Y19910D03*
X30861Y17370D03*
X35941Y22450D03*
G54D1097*X30861Y29816D03*
X30988Y31848D03*
X30607Y35658D03*
Y37944D03*
Y40484D03*
Y43024D03*
Y45564D03*
G54D1111*X52451Y36293D03*
X54991D03*
X52451Y38833D03*
X54991D03*
X47371Y36293D03*
Y38833D03*
X49911Y36293D03*
Y38833D03*
X42291Y43024D03*
X39751D03*
X37211D03*
X44831Y45564D03*
X42291D03*
X39751D03*
X37211D03*
X34671D03*
X39751Y36293D03*
X42291D03*
X44831D03*
X37211Y38833D03*
X39751D03*
X42291D03*
X44831D03*
X37211Y36293D03*
X44831Y43024D03*
X62611Y36293D03*
Y38833D03*
X57531Y36293D03*
Y38833D03*
X60071Y36293D03*
Y38833D03*
X65151Y36293D03*
Y38833D03*
G54D1118*X126492Y100047D03*
X164084Y5432D03*
G54D1119*X123105Y49472D02*X123867D01*
X123118Y48263D02*X123880D01*
X124502Y45281D02*X125264D01*
X126788D02*X127550D01*
X126801Y44072D02*X127563D01*
X124515D02*X125277D01*
X123275Y41021D02*X124037D01*
X123262Y42230D02*X124024D01*
X146262Y51054D02*X147024D01*
X145838Y64458D02*X146600D01*
X145851Y63249D02*X146613D01*
X146249Y52263D02*X147011D01*
X135792Y52337D02*Y51575D01*
X137001Y52350D02*Y51588D01*
X132038Y43815D02*X132800D01*
X132025Y45024D02*X132787D01*
G54D1118*X11430Y16100D03*
M02*
