G04 start of page 9 for group -4078 idx -4078 *
G04 Title: controlboard_2.3, bottomsilk *
G04 Creator: pcb.exe 20130205 *
G04 CreationDate: 26.2.2018 13.50.51 UTC *
G04 Format: Gerber/RS-274X *
G04 PCB-Dimensions (mm): 183.00 105.00 *
G04 PCB-Coordinate-Origin: lower left *
%MOMM*%
%FSLAX43Y43*%
%LNBOTTOMSILK*%
%ADD1133C,0.250*%
%ADD1132C,0.508*%
%ADD1131C,0.254*%
G54D1131*X145474Y50395D02*X147760D01*
X145474D02*Y52935D01*
X147760D01*
Y50395D02*Y52935D01*
G54D1132*X149479Y60042D02*Y62582D01*
X152019Y60042D02*Y62582D01*
G54D1131*X149479Y61312D02*X152019D01*
G54D1132*X149479Y60042D02*G75*G03X152019Y60042I1270J0D01*G01*
Y62582D02*G75*G03X149479Y62582I-1270J0D01*G01*
G54D1131*X131250Y43156D02*X133536D01*
X131250D02*Y45696D01*
X133536D01*
Y43156D02*Y45696D01*
X135133Y53125D02*Y50839D01*
Y53125D02*X137673D01*
Y50839D01*
X135133D02*X137673D01*
X145102Y65117D02*X147388D01*
Y62577D01*
X145102D02*X147388D01*
X145102Y65117D02*Y62577D01*
G54D1132*X136906Y63217D02*X147066D01*
X136906Y60677D02*X147066D01*
G54D1131*X138176Y63217D02*Y60677D01*
G54D1132*X136906Y63217D02*G75*G03X136906Y60677I0J-1270D01*G01*
X147066D02*G75*G03X147066Y63217I0J1270D01*G01*
X136525Y55470D02*X146685D01*
X136525Y52930D02*X146685D01*
G54D1131*X137795Y55470D02*Y52930D01*
G54D1132*X136525Y55470D02*G75*G03X136525Y52930I0J-1270D01*G01*
X146685D02*G75*G03X146685Y55470I0J1270D01*G01*
X134874Y59534D02*Y49374D01*
X132334Y59534D02*Y49374D01*
G54D1131*Y58264D02*X134874D01*
G54D1132*Y59534D02*G75*G03X132334Y59534I-1270J0D01*G01*
Y49374D02*G75*G03X134874Y49374I1270J0D01*G01*
G54D1131*X122487Y40362D02*X124773D01*
X122487Y42902D02*Y40362D01*
Y42902D02*X124773D01*
Y40362D01*
X122369Y50131D02*X124655D01*
Y47591D01*
X122369D02*X124655D01*
X122369Y50131D02*Y47591D01*
X126052Y45940D02*X128338D01*
Y43400D01*
X126052D02*X128338D01*
X126052Y45940D02*Y43400D01*
X123766Y45940D02*X126052D01*
Y43400D01*
X123766D02*X126052D01*
X123766Y45940D02*Y43400D01*
G54D1133*X152908Y62582D02*X153289D01*
X152781Y62455D02*X152908Y62582D01*
X152781Y61693D02*Y62455D01*
Y61693D02*X152908Y61566D01*
X153289D01*
X153594Y61693D02*Y62455D01*
Y61693D02*X153721Y61566D01*
X153975D01*
X154102Y61693D01*
Y62455D01*
X153975Y62582D02*X154102Y62455D01*
X153721Y62582D02*X153975D01*
X153594Y62455D02*X153721Y62582D01*
X154407Y61566D02*Y62582D01*
Y61566D02*Y61693D01*
X155042Y62328D01*
Y61566D02*Y62582D01*
X155346Y61566D02*Y62582D01*
Y61566D02*Y61693D01*
X155981Y62328D01*
Y61566D02*Y62582D01*
X156413D02*X156667D01*
X156540Y61566D02*Y62582D01*
X156286Y61820D02*X156540Y61566D01*
X156972Y62582D02*X157480Y62074D01*
Y61693D02*Y62074D01*
X157353Y61566D02*X157480Y61693D01*
X157099Y61566D02*X157353D01*
X156972Y61693D02*X157099Y61566D01*
X156972Y61693D02*Y61947D01*
X157099Y62074D01*
X157480D01*
X136652Y63852D02*X137033D01*
Y64741D01*
X136906Y64868D02*X137033Y64741D01*
X136779Y64868D02*X136906D01*
X136652Y64741D02*X136779Y64868D01*
X137338Y63979D02*X137465Y63852D01*
X137719D01*
X137846Y63979D01*
Y64741D01*
X137719Y64868D02*X137846Y64741D01*
X137465Y64868D02*X137719D01*
X137338Y64741D02*X137465Y64868D01*
Y64360D02*X137846D01*
X138151Y64868D02*X138659Y64360D01*
Y63979D02*Y64360D01*
X138532Y63852D02*X138659Y63979D01*
X138278Y63852D02*X138532D01*
X138151Y63979D02*X138278Y63852D01*
X138151Y63979D02*Y64233D01*
X138278Y64360D01*
X138659D01*
X145415Y65503D02*X145796D01*
Y66392D01*
X145669Y66519D02*X145796Y66392D01*
X145542Y66519D02*X145669D01*
X145415Y66392D02*X145542Y66519D01*
X146101Y66011D02*X146609Y65503D01*
X146101Y66011D02*X146736D01*
X146609Y65503D02*Y66519D01*
X147041Y66011D02*X147549Y65503D01*
X147041Y66011D02*X147676D01*
X147549Y65503D02*Y66519D01*
X145796Y48612D02*X146177D01*
Y49501D01*
X146050Y49628D02*X146177Y49501D01*
X145923Y49628D02*X146050D01*
X145796Y49501D02*X145923Y49628D01*
X146482Y49120D02*X146990Y48612D01*
X146482Y49120D02*X147117D01*
X146990Y48612D02*Y49628D01*
X147803Y48612D02*X147930Y48739D01*
X147549Y48612D02*X147803D01*
X147422Y48739D02*X147549Y48612D01*
X147422Y48739D02*Y49501D01*
X147549Y49628D01*
X147803Y49120D02*X147930Y49247D01*
X147422Y49120D02*X147803D01*
X147549Y49628D02*X147803D01*
X147930Y49501D01*
Y49247D02*Y49501D01*
X140462Y51279D02*X140843D01*
Y52168D01*
X140716Y52295D02*X140843Y52168D01*
X140589Y52295D02*X140716D01*
X140462Y52168D02*X140589Y52295D01*
X141148Y51406D02*X141275Y51279D01*
X141529D01*
X141656Y51406D01*
Y52168D01*
X141529Y52295D02*X141656Y52168D01*
X141275Y52295D02*X141529D01*
X141148Y52168D02*X141275Y52295D01*
Y51787D02*X141656D01*
X141961Y52168D02*X142088Y52295D01*
X141961Y51914D02*Y52168D01*
Y51914D02*X142088Y51787D01*
X142342D01*
X142469Y51914D01*
Y52168D01*
X142342Y52295D02*X142469Y52168D01*
X142088Y52295D02*X142342D01*
X141961Y51660D02*X142088Y51787D01*
X141961Y51406D02*Y51660D01*
Y51406D02*X142088Y51279D01*
X142342D01*
X142469Y51406D01*
Y51660D01*
X142342Y51787D02*X142469Y51660D01*
X131572Y55851D02*Y56232D01*
X131445Y56359D02*X131572Y56232D01*
X130683Y56359D02*X131445D01*
X130683D02*X130556Y56232D01*
Y55851D02*Y56232D01*
X130683Y55546D02*X131445D01*
X130683D02*X130556Y55419D01*
Y55165D02*Y55419D01*
Y55165D02*X130683Y55038D01*
X131445D01*
X131572Y55165D02*X131445Y55038D01*
X131572Y55165D02*Y55419D01*
X131445Y55546D02*X131572Y55419D01*
X130556Y54733D02*X131572D01*
X130556D02*X130683D01*
X131318Y54098D01*
X130556D02*X131572D01*
X130556Y53794D02*X131572D01*
X130556D02*X130683D01*
X131318Y53159D01*
X130556D02*X131572D01*
Y52473D02*Y52727D01*
X130556Y52600D02*X131572D01*
X130810Y52854D02*X130556Y52600D01*
X131445Y52168D02*X131572Y52041D01*
X131191Y52168D02*X131445D01*
X131191D02*X131064Y52041D01*
Y51787D02*Y52041D01*
Y51787D02*X131191Y51660D01*
X131445D01*
X131572Y51787D02*X131445Y51660D01*
X131572Y51787D02*Y52041D01*
X130937Y52168D02*X131064Y52041D01*
X130683Y52168D02*X130937D01*
X130683D02*X130556Y52041D01*
Y51787D02*Y52041D01*
Y51787D02*X130683Y51660D01*
X130937D01*
X131064Y51787D02*X130937Y51660D01*
X122555Y50390D02*X122936D01*
Y51279D01*
X122809Y51406D02*X122936Y51279D01*
X122682Y51406D02*X122809D01*
X122555Y51279D02*X122682Y51406D01*
X123241Y50517D02*X123368Y50390D01*
X123622D01*
X123749Y50517D01*
Y51279D01*
X123622Y51406D02*X123749Y51279D01*
X123368Y51406D02*X123622D01*
X123241Y51279D02*X123368Y51406D01*
Y50898D02*X123749D01*
X124054Y50517D02*X124181Y50390D01*
X124435D01*
X124562Y50517D01*
Y51279D01*
X124435Y51406D02*X124562Y51279D01*
X124181Y51406D02*X124435D01*
X124054Y51279D02*X124181Y51406D01*
Y50898D02*X124562D01*
X135509Y49374D02*X135890D01*
Y50263D01*
X135763Y50390D02*X135890Y50263D01*
X135636Y50390D02*X135763D01*
X135509Y50263D02*X135636Y50390D01*
X136195Y49882D02*X136703Y49374D01*
X136195Y49882D02*X136830D01*
X136703Y49374D02*Y50390D01*
X137135Y49374D02*X137643D01*
X137135D02*Y49882D01*
X137262Y49755D01*
X137516D01*
X137643Y49882D01*
Y50263D01*
X137516Y50390D02*X137643Y50263D01*
X137262Y50390D02*X137516D01*
X137135Y50263D02*X137262Y50390D01*
X122682Y38960D02*X123063D01*
Y39849D01*
X122936Y39976D02*X123063Y39849D01*
X122809Y39976D02*X122936D01*
X122682Y39849D02*X122809Y39976D01*
X123368Y39087D02*X123495Y38960D01*
X123749D01*
X123876Y39087D01*
Y39849D01*
X123749Y39976D02*X123876Y39849D01*
X123495Y39976D02*X123749D01*
X123368Y39849D02*X123495Y39976D01*
Y39468D02*X123876D01*
X124181D02*X124689Y38960D01*
X124181Y39468D02*X124816D01*
X124689Y38960D02*Y39976D01*
X131318Y41627D02*X131699D01*
Y42516D01*
X131572Y42643D02*X131699Y42516D01*
X131445Y42643D02*X131572D01*
X131318Y42516D02*X131445Y42643D01*
X132004Y42135D02*X132512Y41627D01*
X132004Y42135D02*X132639D01*
X132512Y41627D02*Y42643D01*
X132944D02*X133452Y42135D01*
Y41754D02*Y42135D01*
X133325Y41627D02*X133452Y41754D01*
X133071Y41627D02*X133325D01*
X132944Y41754D02*X133071Y41627D01*
X132944Y41754D02*Y42008D01*
X133071Y42135D01*
X133452D01*
X126365Y41881D02*X126746D01*
Y42770D01*
X126619Y42897D02*X126746Y42770D01*
X126492Y42897D02*X126619D01*
X126365Y42770D02*X126492Y42897D01*
X127051Y42008D02*X127178Y41881D01*
X127432D01*
X127559Y42008D01*
Y42770D01*
X127432Y42897D02*X127559Y42770D01*
X127178Y42897D02*X127432D01*
X127051Y42770D02*X127178Y42897D01*
Y42389D02*X127559D01*
X128245Y41881D02*X128372Y42008D01*
X127991Y41881D02*X128245D01*
X127864Y42008D02*X127991Y41881D01*
X127864Y42008D02*Y42770D01*
X127991Y42897D01*
X128245Y42389D02*X128372Y42516D01*
X127864Y42389D02*X128245D01*
X127991Y42897D02*X128245D01*
X128372Y42770D01*
Y42516D02*Y42770D01*
X123825Y46199D02*X124206D01*
Y47088D01*
X124079Y47215D02*X124206Y47088D01*
X123952Y47215D02*X124079D01*
X123825Y47088D02*X123952Y47215D01*
X124511Y46326D02*X124638Y46199D01*
X124892D01*
X125019Y46326D01*
Y47088D01*
X124892Y47215D02*X125019Y47088D01*
X124638Y47215D02*X124892D01*
X124511Y47088D02*X124638Y47215D01*
Y46707D02*X125019D01*
X125324Y46199D02*X125832D01*
X125324D02*Y46707D01*
X125451Y46580D01*
X125705D01*
X125832Y46707D01*
Y47088D01*
X125705Y47215D02*X125832Y47088D01*
X125451Y47215D02*X125705D01*
X125324Y47088D02*X125451Y47215D01*
M02*
